<svg width="76" height="76" viewBox="0 0 76 76" fill="none" xmlns="http://www.w3.org/2000/svg">
<mask id="mask0_4004_19849" style="mask-type:luminance" maskUnits="userSpaceOnUse" x="0" y="0" width="76" height="76">
<path d="M76 0H0V76H76V0Z" fill="white"/>
</mask>
<g mask="url(#mask0_4004_19849)">
<path d="M51.7146 57.5418V54.0233L51.6454 54.0552C50.8535 54.4387 49.9925 54.6572 49.109 54.6978C48.1952 54.7678 47.2867 54.5009 46.5561 53.9473C46.0353 53.5457 45.6466 52.9956 45.442 52.3703C45.22 51.6872 45.195 50.9557 45.3686 50.2587C45.5335 49.5462 45.9325 48.9097 46.499 48.4563C47.006 48.0322 47.6235 47.7662 48.279 47.6902C49.4363 47.5607 50.6065 47.7792 51.6385 48.3173L51.7146 48.3587V44.8213L51.553 44.7772C50.5201 44.4473 49.4354 44.3057 48.3515 44.3592C47.3644 44.3834 46.3928 44.6053 45.492 45.0113C44.5835 45.4293 43.782 46.0467 43.1525 46.8197C42.1904 48.034 41.6575 49.5315 41.6342 51.0809C41.6109 52.6294 42.1005 54.1425 43.0255 55.3852C43.96 56.5822 45.271 57.4277 46.7461 57.7792C48.3015 58.1592 49.932 58.1022 51.4554 57.6143L51.7146 57.5418ZM16.897 57.5418V54.0233L16.8279 54.0552C16.036 54.4387 15.175 54.6572 14.2915 54.6978C13.3769 54.7686 12.4692 54.5017 11.7386 53.9473C11.2178 53.5457 10.83 52.9964 10.627 52.3703C10.4034 51.688 10.3766 50.9557 10.5511 50.2587C10.716 49.5462 11.1115 48.9097 11.6815 48.4563C12.1885 48.0322 12.806 47.7662 13.4615 47.6902C14.6188 47.5607 15.789 47.7792 16.821 48.3173L16.897 48.3587V44.8213L16.7355 44.7772C15.7026 44.4473 14.6179 44.3057 13.534 44.3592C12.5469 44.3842 11.5753 44.6053 10.6745 45.0113C9.76685 45.4284 8.96541 46.0467 8.3315 46.8197C7.37114 48.034 6.83829 49.5315 6.8141 51.08C6.79079 52.6285 7.27874 54.1416 8.20196 55.3852C9.13469 56.5831 10.4483 57.4277 11.9259 57.7792C13.4805 58.1592 15.1084 58.1022 16.6345 57.6143L16.897 57.5418ZM29.323 54.6218L29.311 57.6523L29.5321 57.6903C30.229 57.8207 30.9286 57.9088 31.635 57.9597C32.2525 58.0202 32.8735 58.0297 33.4936 57.9977C34.086 57.9537 34.6716 57.8423 35.239 57.6687C35.904 57.4787 36.5215 57.1522 37.0465 56.7023C37.5215 56.2955 37.8843 55.7748 38.101 55.1892C38.4793 54.209 38.4707 53.1225 38.0795 52.1492C37.8748 51.6422 37.5509 51.1923 37.1355 50.8382C36.7322 50.4772 36.2606 50.2026 35.7485 50.0307L33.4625 49.1817C33.1895 49.0651 32.9676 48.8536 32.8381 48.5867C32.7888 48.477 32.7646 48.357 32.7689 48.2369C32.7733 48.116 32.8061 47.9985 32.864 47.8932C32.9814 47.7006 33.1498 47.5451 33.351 47.4432C33.6075 47.3197 33.883 47.2403 34.1655 47.2092C34.65 47.1392 35.1405 47.1427 35.6215 47.2247C36.1915 47.2878 36.7555 47.3862 37.3099 47.5287L37.43 47.5538V44.7582L37.2115 44.7107C36.645 44.5751 36.0706 44.4723 35.492 44.4032C34.7415 44.3048 33.9824 44.3022 33.231 44.3938C32.281 44.4793 31.3785 44.8463 30.6314 45.4387C30.1245 45.8377 29.741 46.3663 29.52 46.9717C29.19 47.8897 29.1875 48.8967 29.52 49.8182C29.691 50.2777 29.963 50.6862 30.318 51.0247C30.6246 51.3192 30.9734 51.5723 31.3534 51.7718C31.85 52.0378 32.3795 52.2442 32.927 52.3893C33.1075 52.4437 33.288 52.5007 33.465 52.5603L33.7345 52.6587L33.8105 52.6907C34.0765 52.7857 34.3235 52.9377 34.5265 53.1338C34.669 53.2668 34.7795 53.4317 34.846 53.6122C34.89 53.7789 34.8909 53.9542 34.8494 54.1217C34.7639 54.3921 34.5748 54.6175 34.3235 54.7487C34.0506 54.8878 33.7561 54.9802 33.4529 55.0208C33.0056 55.0907 32.5522 55.1132 32.1005 55.0873C31.5089 55.0415 30.9199 54.9629 30.337 54.8532C30.033 54.7876 29.7298 54.7168 29.4276 54.6408L29.323 54.6218ZM21.4855 57.7732H24.8105V44.5777H21.4855V57.7732ZM59.9985 48.4753C60.3518 48.1877 60.7585 47.9726 61.1947 47.8422C61.6317 47.7118 62.0894 47.6678 62.5428 47.7144C62.9954 47.761 63.435 47.8967 63.8357 48.1126C64.2373 48.3293 64.5914 48.6221 64.8789 48.9762C65.1665 49.3286 65.3825 49.7353 65.5137 50.1715C65.645 50.6076 65.6882 51.0653 65.6424 51.5188C65.5966 51.9722 65.461 52.4117 65.2451 52.8133C65.0284 53.2141 64.7347 53.5682 64.3815 53.8557L64.3279 53.8998C63.6068 54.4534 62.6974 54.7012 61.7949 54.5907C60.8933 54.481 60.0702 54.0207 59.5028 53.3108C58.9363 52.6 58.6703 51.6958 58.7635 50.7916C58.8559 49.8873 59.2999 49.0565 59.9985 48.4753ZM55.17 51.1802C55.1855 52.2096 55.4308 53.2236 55.8868 54.1468C56.3436 55.07 56.9991 55.881 57.8075 56.5192C58.6159 57.1583 59.5555 57.6091 60.5599 57.8397C61.5635 58.0703 62.6059 58.0746 63.612 57.8518C64.9619 57.597 66.202 56.9372 67.1684 55.9604C68.134 54.9836 68.7809 53.7366 69.021 52.3841C69.2619 51.0316 69.0857 49.6378 68.5166 48.3881C67.9466 47.1375 67.0104 46.0908 65.8316 45.3852C64.784 44.7375 63.5835 44.3782 62.3519 44.3437C61.1204 44.3091 59.9018 44.601 58.8197 45.1892C57.7367 45.7773 56.829 46.6409 56.1882 47.6937C55.5474 48.7456 55.1959 49.9486 55.17 51.1802ZM72.7095 33.9722C72.7285 34.3963 72.9099 34.7962 73.2165 35.0898C73.5231 35.3826 73.9307 35.5466 74.3548 35.5466C74.7788 35.5466 75.1873 35.3826 75.493 35.0898C75.7996 34.7962 75.981 34.3963 76 33.9722V30.3148C75.981 29.8907 75.7996 29.4908 75.493 29.1972C75.1873 28.9036 74.7788 28.7403 74.3548 28.7403C73.9307 28.7403 73.5231 28.9036 73.2165 29.1972C72.9099 29.4908 72.7285 29.8907 72.7095 30.3148V33.9722ZM63.7035 33.9722C63.7355 34.3876 63.9229 34.7763 64.2286 35.0596C64.5344 35.3428 64.9351 35.5 65.3522 35.5C65.7685 35.5 66.1701 35.3428 66.4758 35.0596C66.7815 34.7763 66.969 34.3876 67.0001 33.9722V25.7737C66.9741 25.3549 66.7893 24.9611 66.4836 24.6735C66.1779 24.3859 65.7737 24.2261 65.354 24.2261C64.9334 24.2261 64.5301 24.3859 64.2235 24.6735C63.9177 24.9611 63.7329 25.3549 63.707 25.7737L63.7035 33.9722ZM54.5645 37.2748C54.5965 37.6893 54.783 38.0771 55.0888 38.3604C55.3936 38.6428 55.7944 38.8 56.2098 38.8C56.626 38.8 57.0268 38.6428 57.3316 38.3604C57.6365 38.0771 57.823 37.6893 57.855 37.2748V19.5383C57.836 19.1151 57.6547 18.7144 57.3481 18.4208C57.0423 18.128 56.6338 17.9639 56.2098 17.9639C55.7857 17.9639 55.3781 18.128 55.0715 18.4208C54.7649 18.7144 54.5835 19.1151 54.5645 19.5383V37.2748ZM45.5775 33.9722C45.6034 34.3911 45.7883 34.7849 46.0949 35.0725C46.4006 35.3601 46.8048 35.5199 47.2245 35.5199C47.6442 35.5199 48.0484 35.3601 48.3541 35.0725C48.6607 34.7849 48.8456 34.3911 48.8715 33.9722V25.7737C48.8525 25.3497 48.6711 24.9498 48.3645 24.6562C48.0579 24.3626 47.6503 24.1993 47.2262 24.1993C46.8022 24.1993 46.3937 24.3626 46.0879 24.6562C45.7814 24.9498 45.6 25.3497 45.581 25.7737V33.9722M36.3979 33.9722C36.4377 34.3807 36.6286 34.7599 36.9326 35.0354C37.2366 35.3109 37.6321 35.4637 38.0432 35.4637C38.4534 35.4637 38.8489 35.3109 39.1529 35.0354C39.4569 34.7599 39.6478 34.3807 39.6876 33.9722V30.3148C39.6694 29.8907 39.4881 29.4908 39.1815 29.1972C38.8749 28.9036 38.4672 28.7403 38.0432 28.7403C37.6183 28.7403 37.2106 28.9036 36.904 29.1972C36.5974 29.4908 36.4161 29.8907 36.3979 30.3148V33.9722ZM27.309 33.9722C27.328 34.3963 27.5094 34.7962 27.816 35.0898C28.1226 35.3826 28.5302 35.5466 28.9543 35.5466C29.3783 35.5466 29.7868 35.3826 30.0925 35.0898C30.3991 34.7962 30.5805 34.3963 30.5995 33.9722V25.7737C30.5805 25.3497 30.3991 24.9498 30.0925 24.6562C29.7868 24.3626 29.3783 24.1993 28.9543 24.1993C28.5302 24.1993 28.1226 24.3626 27.816 24.6562C27.5094 24.9498 27.328 25.3497 27.309 25.7737V33.9722ZM18.1675 37.2748C18.1856 37.6988 18.367 38.0996 18.6736 38.3923C18.9801 38.686 19.3878 38.8492 19.8118 38.8492C20.2367 38.8492 20.6444 38.686 20.951 38.3923C21.2575 38.0996 21.4389 37.6988 21.457 37.2748V19.5383C21.4389 19.1151 21.2575 18.7144 20.951 18.4208C20.6444 18.128 20.2367 17.9639 19.8118 17.9639C19.3878 17.9639 18.9801 18.128 18.6736 18.4208C18.367 18.7144 18.1856 19.1151 18.1675 19.5383V37.2748ZM9.10706 33.9722C9.14333 34.3842 9.33245 34.7676 9.63732 35.0466C9.94218 35.3255 10.3403 35.481 10.754 35.481C11.1677 35.481 11.5658 35.3255 11.8707 35.0466C12.1755 34.7676 12.3647 34.3842 12.401 33.9722V25.7737C12.382 25.3497 12.2006 24.9498 11.894 24.6562C11.5874 24.3626 11.1798 24.1993 10.7557 24.1993C10.3317 24.1993 9.92317 24.3626 9.61744 24.6562C9.31085 24.9498 9.12951 25.3497 9.11051 25.7737V33.9722M0 33.9722C0.0319545 34.3868 0.218489 34.7746 0.523353 35.057C0.828217 35.3403 1.22895 35.4966 1.64523 35.4966C2.06064 35.4966 2.46137 35.3403 2.76623 35.057C3.07196 34.7746 3.2585 34.3868 3.29045 33.9722V30.3148C3.27145 29.8907 3.09008 29.4908 2.78349 29.1972C2.4769 28.9036 2.06927 28.7403 1.64523 28.7403C1.22118 28.7403 0.812687 28.9036 0.506959 29.1972C0.200368 29.4908 0.019 29.8907 0 30.3148V33.9722Z" fill="#31373D"/>
</g>
</svg>
