<svg width="192" height="28" viewBox="0 0 192 28" fill="none" xmlns="http://www.w3.org/2000/svg">
<g clip-path="url(#clip0_4005_19143)">
<mask id="mask0_4005_19143" style="mask-type:luminance" maskUnits="userSpaceOnUse" x="0" y="0" width="192" height="28">
<path d="M0 0H192V28H0V0Z" fill="white"/>
</mask>
<g mask="url(#mask0_4005_19143)">
<path d="M49.5886 12.1594C49.3815 12.1594 49.1773 12.1669 48.973 12.1734C48.9399 12.1752 48.9074 12.1828 48.877 12.1958C48.823 12.2141 48.7744 12.2454 48.7356 12.2869C48.6968 12.3285 48.6691 12.379 48.6549 12.4338L47.7796 15.4662C47.4022 16.7701 47.5424 17.9741 48.1768 18.858C48.7584 19.6756 49.726 20.1553 50.9006 20.2113L55.6488 20.4969C55.79 20.5044 55.9123 20.5716 55.9867 20.6826C56.0256 20.7419 56.0502 20.8093 56.0585 20.8796C56.0668 20.9498 56.0587 21.0211 56.0347 21.0877C55.9964 21.196 55.9276 21.2911 55.8363 21.3616C55.745 21.4321 55.6351 21.4751 55.5199 21.4853L50.5862 21.7709C47.9057 21.8941 45.022 24.0632 44.0102 26.7082L43.6544 27.6416C43.6391 27.6802 43.6333 27.722 43.6376 27.7634C43.6418 27.8047 43.6559 27.8445 43.6787 27.8793C43.7015 27.9142 43.7324 27.9431 43.7688 27.9638C43.8052 27.9845 43.846 27.9962 43.8879 27.9981H60.8799C60.9786 27.9985 61.0749 27.9668 61.1537 27.9078C61.2326 27.8488 61.2898 27.7657 61.3166 27.6714C61.6184 26.5957 61.7703 25.484 61.7683 24.3674C61.7683 17.6288 56.3199 12.1669 49.5961 12.1669" fill="#31373D"/>
<path d="M80.4882 17.6269H83.3023V25.326H88.2133V27.7965H80.4882V17.6269ZM91.1235 22.7406V22.7108C91.1235 19.7894 93.4698 17.4234 96.602 17.4234C99.7333 17.4234 102.051 19.7642 102.051 22.6809V22.7108C102.051 25.6312 99.7042 27.9981 96.5719 27.9981C93.4397 27.9981 91.1235 25.6601 91.1235 22.7406ZM99.1818 22.7406V22.7108C99.1818 21.2426 98.1249 19.9649 96.5719 19.9649C95.019 19.9649 94.0072 21.2128 94.0072 22.6809V22.7108C94.0072 24.178 95.0632 25.4566 96.602 25.4566C98.1399 25.4566 99.1818 24.2078 99.1818 22.7406ZM105.492 23.3361V17.6306H108.347V23.282C108.347 24.7492 109.084 25.4445 110.215 25.4445C111.346 25.4445 112.083 24.7753 112.083 23.352V17.6269H114.937V23.2633C114.937 26.5477 113.069 27.9822 110.185 27.9822C107.301 27.9822 105.489 26.5141 105.489 23.3342M119.241 17.6297H123.155C126.777 17.6297 128.879 19.7213 128.879 22.6529V22.6828C128.879 25.6134 126.747 27.7946 123.096 27.7946H119.241V17.6269V17.6297ZM123.196 25.298C124.879 25.298 125.991 24.3693 125.991 22.7276V22.6977C125.991 21.07 124.876 20.1264 123.196 20.1264H122.051V25.298H123.196ZM132.966 17.6269H141.08V20.0984H135.776V21.825H140.572V24.163H135.776V27.7965H132.966V17.6269ZM144.992 17.6269H147.805V25.326H152.717V27.7965H144.992V17.6269ZM160.063 17.555H162.771L167.091 27.7946H164.077L163.335 25.9784H159.421L158.698 27.7946H155.74L160.059 17.555H160.063ZM162.528 23.786L161.396 20.8954L160.251 23.786H162.528ZM170.713 17.6297H175.509C177.059 17.6297 178.134 18.0385 178.812 18.7329C179.41 19.3125 179.71 20.1002 179.71 21.0998V21.1297C179.71 22.6828 178.883 23.715 177.622 24.2508L180.043 27.7946H176.796L174.754 24.7146H173.523V27.7946H170.709V17.6269L170.713 17.6297ZM175.38 22.511C176.337 22.511 176.888 22.0472 176.888 21.307V21.2781C176.888 20.4792 176.31 20.0741 175.365 20.0741H173.526V22.5157H175.383L175.38 22.512V22.511ZM183.767 17.6269H191.926V20.0237H186.551V21.5618H191.422V23.7869H186.551V25.3997H192.001V27.7965H183.767V17.6269ZM74.33 23.9325C73.9366 24.8248 73.1065 25.4566 72.0053 25.4566C70.4712 25.4566 69.4115 24.178 69.4115 22.7108V22.68C69.4115 21.2118 70.4411 19.964 71.9762 19.964C73.1329 19.964 74.0148 20.677 74.3893 21.6505H77.3512C76.8759 19.2322 74.7564 17.4225 72.0025 17.4225C68.874 17.4225 66.5239 19.7894 66.5239 22.7098V22.7397C66.5239 25.6601 68.8402 27.9972 71.9733 27.9972C74.6491 27.9972 76.7432 26.2574 77.2957 23.9278H74.3263L74.33 23.9325Z" fill="#31373D"/>
<path d="M42.1723 27.6061L42.4866 26.5095C42.865 25.2056 42.7247 24.0016 42.0913 23.1177C41.5078 22.3001 40.5412 21.8204 39.3657 21.7644L17.0927 21.4788C17.0235 21.4775 16.9555 21.4601 16.8943 21.4278C16.8331 21.3955 16.7805 21.3493 16.7407 21.2931C16.7017 21.2339 16.6769 21.1665 16.6684 21.0962C16.6599 21.026 16.6679 20.9547 16.6918 20.888C16.7304 20.779 16.8 20.6834 16.8922 20.6129C16.9844 20.5423 17.0952 20.4998 17.2113 20.4904L39.6923 20.2048C42.3614 20.0825 45.2452 17.9125 46.257 15.2675L47.5389 11.9075C47.5911 11.765 47.6041 11.6113 47.5765 11.4623C46.1158 4.9084 40.273 0 33.2876 0C26.848 0 21.3845 4.16453 19.424 9.954C18.1041 8.95862 16.4511 8.49998 14.8019 8.6716C11.7149 8.9796 9.23015 11.4735 8.92333 14.5684C8.84389 15.3414 8.90122 16.1222 9.09274 16.8756C4.04804 17.0249 0.000976562 21.1671 0.000976562 26.2575C0.000976562 26.7176 0.0339177 27.1712 0.100741 27.6136C0.114041 27.7174 0.165081 27.8127 0.244278 27.8818C0.323476 27.9509 0.425381 27.989 0.530859 27.9888H41.664C41.7799 27.9869 41.892 27.9479 41.9836 27.8776C42.0752 27.8072 42.1414 27.7094 42.1723 27.5987" fill="#31373D"/>
</g>
</g>
<defs>
<clipPath id="clip0_4005_19143">
<rect width="192" height="28" fill="white"/>
</clipPath>
</defs>
</svg>
