<svg width="1146" height="620" viewBox="0 0 1146 620" fill="none" xmlns="http://www.w3.org/2000/svg">
<g clip-path="url(#clip0_4006_20455)">
<rect width="1146" height="620" rx="23" fill="#101010"/>
<g clip-path="url(#clip1_4006_20455)">
<mask id="mask0_4006_20455" style="mask-type:alpha" maskUnits="userSpaceOnUse" x="386" y="393" width="382" height="253">
<path d="M767.35 393.009H386.317V645H767.35V393.009Z" fill="#D9D9D9"/>
</mask>
<g mask="url(#mask0_4006_20455)">
<path opacity="0.4" d="M573.715 668.897C648.826 668.897 709.716 608.066 709.716 533.027C709.716 457.987 648.826 397.156 573.715 397.156C498.604 397.156 437.713 457.987 437.713 533.027C437.713 608.066 498.604 668.897 573.715 668.897Z" fill="#FF0000"/>
<path opacity="0.8" d="M573.717 670.454C649.131 670.454 710.268 609.377 710.268 534.034C710.268 458.692 649.131 397.615 573.717 397.615C498.302 397.615 437.166 458.692 437.166 534.034C437.166 609.377 498.302 670.454 573.717 670.454Z" stroke="#EC0000" stroke-width="2" stroke-miterlimit="10"/>
<path d="M573.767 621.256C621.613 621.256 660.4 582.507 660.4 534.706C660.4 486.906 621.613 448.156 573.767 448.156C525.921 448.156 487.134 486.906 487.134 534.706C487.134 582.507 525.921 621.256 573.767 621.256Z" fill="#EC0000" stroke="url(#paint0_linear_4006_20455)" stroke-width="2"/>
<path d="M711 534.706C711 610.425 649.559 671.808 573.767 671.808C497.975 671.808 436.534 610.425 436.534 534.706C436.534 458.987 497.975 397.605 573.767 397.605C649.559 397.605 711 458.987 711 534.706Z" fill="url(#paint1_linear_4006_20455)"/>
</g>
<path d="M493.897 140.049L482.917 142.395L485.265 153.365L496.245 151.018L493.897 140.049Z" fill="#EC0000"/>
<path d="M655.862 141.372L644.833 139.268L642.727 150.287L653.756 152.39L655.862 141.372Z" fill="#EC0000"/>
<path d="M517.034 537.465L518.692 536.142C519.341 537.168 520.215 537.7 521.395 537.7C522.468 537.7 523.018 537.186 523.018 536.466C523.018 535.548 522.071 535.359 520.711 535.043C519.242 534.738 517.593 534.26 517.593 532.261C517.593 530.641 519.034 529.345 521.089 529.345C522.837 529.345 523.928 529.948 524.928 531.055L523.369 532.271C522.855 531.515 522.188 531.037 521.062 531.037C519.989 531.037 519.539 531.559 519.539 532.208C519.539 533 520.521 533.153 521.756 533.441C523.27 533.765 525.009 534.251 525.009 536.385C525.009 538.077 523.585 539.482 521.386 539.482C519.187 539.482 517.971 538.645 517.034 537.456V537.465Z" fill="white"/>
<path d="M527.817 529.497H529.746V539.355H527.817V529.497Z" fill="white"/>
<path d="M532.939 529.497H534.984L539.31 536.204V529.497H541.148V539.355H539.256L534.795 532.432V539.355H532.948V529.497H532.939Z" fill="white"/>
<path d="M543.975 534.431C543.975 531.595 546.093 529.372 549.067 529.372C550.932 529.372 552.356 530.164 553.284 531.424L551.679 532.549C551.112 531.685 550.22 531.182 549.067 531.182C547.246 531.182 545.876 532.631 545.876 534.441C545.876 536.25 547.219 537.664 549.093 537.664C550.598 537.664 551.58 536.826 551.905 535.53H548.769V533.747H553.959V534.575C553.959 537.204 552.085 539.509 549.12 539.509C546.155 539.509 543.975 537.186 543.975 534.449V534.431Z" fill="white"/>
<path d="M556.792 529.497H558.712V537.501H563.263V539.346H556.792V529.489V529.497Z" fill="white"/>
<path d="M566.064 529.497H572.697V531.289H567.966V533.504H572.697V535.304H567.966V537.545H572.697V539.355H566.064V529.497Z" fill="white"/>
<path d="M583.257 529.497H585.131L588.862 539.355H586.906L586.258 537.555H582.139L581.49 539.355H579.535L583.266 529.497H583.257ZM582.77 535.826H585.627L584.203 531.91L582.77 535.826Z" fill="white"/>
<path d="M590.385 534.431C590.385 531.595 592.503 529.372 595.477 529.372C597.342 529.372 598.766 530.164 599.694 531.424L598.09 532.549C597.522 531.685 596.63 531.182 595.477 531.182C593.657 531.182 592.287 532.631 592.287 534.441C592.287 536.25 593.629 537.664 595.503 537.664C597.008 537.664 597.991 536.826 598.315 535.53H595.179V533.747H600.37V534.575C600.37 537.204 598.495 539.509 595.53 539.509C592.566 539.509 590.385 537.186 590.385 534.449V534.431Z" fill="white"/>
<path d="M603.203 529.497H609.836V531.289H605.104V533.504H609.836V535.304H605.104V537.545H609.836V539.355H603.203V529.497Z" fill="white"/>
<path d="M612.834 529.497H614.87L619.196 536.204V529.497H621.034V539.355H619.142L614.682 532.432V539.355H612.834V529.497Z" fill="white"/>
<path d="M626.613 531.253H623.873V529.497H631.217V531.253H628.505V539.355H626.621V531.253H626.613Z" fill="white"/>
<path d="M503.186 139.784L504.997 139.478L508.547 142.962L510.845 138.479L512.575 138.182L514.225 147.824L512.395 148.139L511.242 141.378L509.007 145.753L505.537 142.413L506.682 149.111L504.835 149.427L503.186 139.784Z" fill="white"/>
<path d="M518.435 137.299L521.571 136.885C524.653 136.471 526.924 138.308 527.285 141.062C527.654 143.826 525.807 146.194 522.905 146.581L519.724 147.004L518.426 137.308L518.435 137.299ZM520.553 138.793L521.382 144.997L522.554 144.844C524.518 144.582 525.617 143.052 525.383 141.314C525.149 139.532 523.797 138.361 521.67 138.64L520.553 138.793Z" fill="white"/>
<path d="M532.223 135.571L536.179 135.175C538.423 134.95 539.901 136.264 540.09 138.119C540.207 139.343 539.694 140.514 538.666 141.171L540.946 144.538L538.837 144.745L536.972 141.828L534.783 142.044L535.088 145.114L533.206 145.303L532.232 135.562L532.223 135.571ZM534.277 137.12L534.593 140.334L536.512 140.145C537.756 140.018 538.252 139.19 538.161 138.326C538.062 137.363 537.395 136.814 536.188 136.931L534.269 137.12H534.277Z" fill="white"/>
<path d="M549.506 134.103L551.471 133.968L547.496 144.042L545.532 144.177L549.506 134.103Z" fill="white"/>
<path d="M556.795 138.577C556.696 135.724 558.796 133.482 561.634 133.383C563.509 133.32 565.14 134.238 566.059 135.67L564.428 136.768C563.869 135.778 562.923 135.184 561.706 135.229C559.913 135.292 558.643 136.742 558.706 138.505C558.76 140.234 560.112 141.612 561.896 141.548C563.239 141.504 564.157 140.721 564.608 139.649L566.375 140.514C565.599 142.179 564.032 143.358 561.977 143.421C559.03 143.52 556.886 141.342 556.787 138.569L556.795 138.577Z" fill="white"/>
<path d="M571.521 133.276H574.693C577.811 133.276 579.802 135.409 579.802 138.182C579.802 140.972 577.649 143.07 574.72 143.07H571.512L571.521 133.276ZM573.431 135.04V141.306H574.603C576.594 141.306 577.883 139.946 577.883 138.182C577.883 136.381 576.703 135.04 574.557 135.04H573.431Z" fill="white"/>
<path d="M585.459 133.401L589.434 133.545C591.686 133.626 592.975 135.121 592.912 136.984C592.867 138.217 592.2 139.307 591.092 139.82L592.893 143.466L590.776 143.394L589.316 140.253L587.117 140.171L587.009 143.25L585.117 143.178L585.468 133.392L585.459 133.401ZM587.288 135.21L587.172 138.443L589.1 138.515C590.344 138.56 590.956 137.803 590.984 136.93C591.02 135.967 590.425 135.328 589.217 135.282L587.288 135.21Z" fill="white"/>
<path d="M670.075 144.889L671.851 145.357L673.644 150.002L677.591 146.86L679.294 147.301L676.816 156.772L675.022 156.304L676.762 149.66L672.922 152.73L671.138 148.256L669.417 154.827L667.597 154.35L670.075 144.879V144.889Z" fill="white"/>
<path d="M687.876 149.795L689.66 150.335L690.372 160.769L688.506 160.211L688.407 158.321L684.488 157.141L683.352 158.663L681.487 158.105L687.858 149.813L687.876 149.795ZM685.596 155.674L688.309 156.493L688.083 152.37L685.596 155.683V155.674Z" fill="white"/>
<path d="M698.186 153.008L700.105 153.665L702.016 161.354L704.17 155.052L705.9 155.637L702.737 164.892L700.962 164.289L698.997 156.358L696.771 162.867L695.032 162.272L698.195 153.017L698.186 153.008Z" fill="white"/>
<path d="M714.279 158.717L716.019 159.383L716 169.844L714.18 169.151L714.216 167.261L710.395 165.802L709.161 167.243L707.341 166.549L714.288 158.717H714.279ZM711.585 164.416L714.234 165.424L714.298 161.292L711.585 164.416Z" fill="white"/>
<path d="M721.599 166.802C722.689 164.209 725.501 162.985 728.213 164.128C729.917 164.848 730.916 166.126 731.277 167.63L729.376 168.035C729.187 167.027 728.565 166.226 727.519 165.785C725.853 165.082 724.041 165.874 723.347 167.531C722.635 169.215 723.329 170.997 725.042 171.726C726.42 172.303 727.637 171.915 728.439 170.862L725.564 169.656L726.249 168.026L730.998 170.025L730.683 170.781C729.665 173.194 727.06 174.572 724.356 173.428C721.527 172.239 720.536 169.313 721.599 166.811V166.802Z" fill="white"/>
<path d="M737.783 168.459L743.758 171.223L743.009 172.843L738.748 170.871L737.819 172.861L742.082 174.833L741.334 176.454L737.072 174.482L736.134 176.499L740.397 178.47L739.639 180.099L733.665 177.336L737.783 168.459Z" fill="white"/>
<path d="M748.972 173.743L751.802 175.165C754.587 176.569 755.415 179.351 754.163 181.836C752.911 184.329 750.045 185.239 747.431 183.924L744.565 182.484L748.972 173.743ZM749.882 176.164L747.062 181.755L748.116 182.286C749.891 183.177 751.658 182.538 752.451 180.972C753.262 179.369 752.811 177.64 750.892 176.677L749.882 176.173V176.164Z" fill="white"/>
<path d="M768.97 186.303L766.61 184.951L767.474 183.439L773.8 187.04L772.935 188.553L770.592 187.22L766.61 194.207L764.987 193.289L768.97 186.303Z" fill="white"/>
<path d="M780.6 197.925L777.247 195.818L775.12 199.203L773.507 198.195L778.716 189.903L780.329 190.912L778.229 194.251L781.582 196.349L783.682 193.009L785.286 194.018L780.077 202.309L778.473 201.301L780.6 197.915V197.925Z" fill="white"/>
<path d="M790.256 197.159L793.562 199.346C795.446 200.589 795.762 202.533 794.735 204.091C794.049 205.117 792.914 205.703 791.697 205.558L791.328 209.61L789.562 208.439L789.958 205L788.12 203.785L786.416 206.36L784.839 205.315L790.247 197.159H790.256ZM790.868 199.653L789.084 202.344L790.697 203.406C791.733 204.091 792.652 203.766 793.13 203.037C793.662 202.236 793.49 201.381 792.482 200.715L790.868 199.653Z" fill="white"/>
<path d="M801.16 204.487L806.532 208.296L805.504 209.754L801.674 207.044L800.404 208.835L804.233 211.545L803.197 213.004L799.367 210.295L798.078 212.113L801.908 214.823L800.872 216.29L795.501 212.482L801.169 204.496L801.16 204.487Z" fill="white"/>
<path d="M813.631 213.535L815.118 214.66L812.144 224.689L810.595 223.51L811.162 221.701L807.9 219.225L806.305 220.251L804.755 219.072L813.622 213.517L813.631 213.535ZM809.441 218.253L811.694 219.963L812.928 216.02L809.441 218.253Z" fill="white"/>
<path d="M821.691 222.007L819.573 220.296L820.673 218.937L826.34 223.511L825.241 224.869L823.142 223.177L818.087 229.443L816.635 228.272L821.691 222.007Z" fill="white"/>
<path d="M836.641 240.039L833.694 237.401L831.026 240.382L829.603 239.112L836.136 231.82L837.551 233.089L834.919 236.024L837.866 238.662L840.498 235.727L841.912 236.988L835.379 244.279L833.964 243.02L836.631 240.039H836.641Z" fill="white"/>
<path d="M842.046 245.308L846.218 240.968L847.615 242.3L843.415 246.675C842.577 247.549 842.569 248.683 843.398 249.485C844.226 250.286 845.38 250.232 846.209 249.359L850.409 244.983L851.805 246.325L847.633 250.664C845.939 252.428 843.803 252.402 842.136 250.799C840.46 249.196 840.361 247.071 842.055 245.308H842.046Z" fill="white"/>
<path d="M855.966 250.446L857.382 251.896L855.588 259.611L860.373 254.966L861.643 256.271L854.615 263.086L853.308 261.736L855.155 253.768L850.217 258.558L848.938 257.244L855.957 250.428L855.966 250.446Z" fill="white"/>
<path d="M866.041 263.581L864.211 261.564L865.5 260.394L870.393 265.787L869.105 266.957L867.293 264.959L861.327 270.36L860.075 268.983L866.032 263.581H866.041Z" fill="white"/>
<path d="M874.11 270.029L875.363 271.478L867.946 277.861L866.693 276.411L874.11 270.029Z" fill="white"/>
<path d="M879.238 276.024L880.518 277.6L878.057 285.135L883.232 280.931L884.382 282.344L876.786 288.52L875.597 287.061L878.138 279.283L872.804 283.622L871.641 282.2L879.238 276.024Z" fill="white"/>
<path d="M883.953 289.708C886.207 288.015 889.243 288.366 891.021 290.716C892.141 292.192 892.355 293.795 891.911 295.281L890.063 294.677C890.408 293.713 890.27 292.705 889.588 291.796C888.499 290.346 886.536 290.13 885.103 291.211C883.638 292.309 883.332 294.2 884.459 295.685C885.356 296.874 886.613 297.152 887.832 296.639L885.954 294.155L887.372 293.092L890.469 297.207L889.81 297.702C887.725 299.277 884.773 299.161 883.01 296.811C881.162 294.362 881.775 291.346 883.945 289.708H883.953Z" fill="white"/>
<path d="M524.847 352.232L527.92 351.376C530.948 350.539 533.453 352.06 534.201 354.753C534.949 357.463 533.435 360.082 530.597 360.866L527.479 361.73L524.847 352.232ZM527.172 353.429L528.857 359.506L530.002 359.191C531.93 358.66 532.813 356.985 532.345 355.275C531.858 353.528 530.353 352.547 528.271 353.123L527.181 353.429H527.172Z" fill="white"/>
<path d="M538.155 348.829L539.993 348.441L545.689 357.319L543.769 357.724L542.76 356.103L538.723 356.959L538.461 358.849L536.542 359.254L538.155 348.838V348.829ZM538.993 355.131L541.786 354.546L539.587 351.007L538.993 355.14V355.131Z" fill="white"/>
<path d="M547.548 348.865L544.835 349.279L544.564 347.541L551.819 346.426L552.089 348.163L549.404 348.577L550.638 356.58L548.782 356.868L547.548 348.865Z" fill="white"/>
<path d="M556.46 345.92L558.325 345.74L563.001 355.184L561.055 355.373L560.235 353.654L556.135 354.059L555.666 355.905L553.72 356.093L556.469 345.92H556.46ZM556.594 352.267L559.433 351.988L557.64 348.234L556.594 352.267Z" fill="white"/>
<path d="M570.398 345.021H572.317L572.327 353.024H576.886V354.87H570.407L570.389 345.021H570.398Z" fill="white"/>
<path d="M582.995 345.272L584.869 345.389L587.996 355.454L586.04 355.337L585.5 353.51L581.391 353.258L580.634 355.013L578.678 354.896L582.995 345.281V345.272ZM582.121 351.565L584.969 351.736L583.788 347.738L582.121 351.556V351.565Z" fill="white"/>
<path d="M591.767 351.709L589.1 345.659L591.182 345.902L592.939 350.053L595.615 346.425L597.679 346.667L593.66 351.979L593.173 356.075L591.263 355.85L591.75 351.718L591.767 351.709Z" fill="white"/>
<path d="M600.201 347.082L606.734 348.252L606.419 350.017L601.76 349.18L601.373 351.358L606.031 352.195L605.716 353.96L601.057 353.123L600.661 355.329L605.32 356.166L605.004 357.948L598.471 356.778L600.21 347.082H600.201Z" fill="white"/>
<path d="M609.861 348.901L613.754 349.846C615.962 350.378 616.935 352.124 616.485 353.942C616.187 355.149 615.304 356.085 614.114 356.373L615.151 360.335L613.078 359.831L612.276 356.436L610.122 355.915L609.383 358.93L607.527 358.48L609.861 348.901ZM611.303 351.052L610.537 354.213L612.429 354.671C613.655 354.969 614.403 354.347 614.61 353.493C614.835 352.547 614.385 351.8 613.195 351.512L611.303 351.052Z" fill="white"/>
<path d="M518.567 437.561L519.892 436.85L526.253 442.396L524.875 443.134L523.74 442.116L520.829 443.674L521.054 445.187L519.675 445.924L518.576 437.57L518.567 437.561ZM520.622 442.216L522.631 441.135L520.153 438.911L520.622 442.216Z" fill="white"/>
<path d="M525.308 434.14L528.174 432.915C529.805 432.222 531.4 432.924 532.022 434.392C532.634 435.832 532.058 437.498 530.418 438.2L528.976 438.812L529.823 440.793L528.408 441.395L525.317 434.14H525.308ZM527.264 434.824L528.417 437.515L529.778 436.939C530.616 436.588 530.932 435.778 530.598 435.004C530.265 434.22 529.463 433.887 528.625 434.248L527.264 434.833V434.824Z" fill="white"/>
<path d="M534.598 430.44L536.057 429.936L538.608 437.399L537.148 437.903L534.598 430.44Z" fill="white"/>
<path d="M547.266 426.362L550.051 438.984L549.05 439.209L546.266 426.587L547.275 426.362H547.266Z" fill="white"/>
<path d="M557.994 431.762L559.184 430.718C559.625 431.321 560.202 431.537 560.923 431.474C561.698 431.402 562.212 430.952 562.157 430.295C562.104 429.674 561.518 429.341 560.707 429.413L559.833 429.485L559.715 428.117L560.527 428.045C561.355 427.973 561.743 427.495 561.698 426.91C561.653 426.397 561.23 426.001 560.418 426.064C559.706 426.127 559.274 426.478 559.022 427.054L557.697 426.415C558.193 425.496 559.094 424.884 560.301 424.776C561.995 424.632 563.095 425.424 563.203 426.739C563.266 427.459 562.96 428.071 562.419 428.495C563.14 428.791 563.618 429.341 563.698 430.187C563.816 431.556 562.833 432.69 561.058 432.843C559.67 432.96 558.769 432.6 558.012 431.753L557.994 431.762Z" fill="white"/>
<path d="M566.678 424.471H569.877C571.698 424.462 572.779 425.623 572.779 427.127C572.779 428.126 572.274 429.017 571.4 429.468L572.968 432.348H571.256L569.986 429.873H568.21V432.367H566.687L566.669 424.48L566.678 424.471ZM568.201 425.875V428.477H569.769C570.778 428.477 571.238 427.847 571.238 427.145C571.238 426.362 570.733 425.866 569.76 425.875H568.201Z" fill="white"/>
<path d="M576.159 424.605L578.701 424.831C581.196 425.056 582.647 426.901 582.449 429.124C582.251 431.366 580.376 432.897 578.024 432.69L575.447 432.456L576.15 424.605H576.159ZM577.556 426.154L577.105 431.177L578.051 431.258C579.647 431.402 580.782 430.394 580.908 428.99C581.034 427.55 580.187 426.388 578.466 426.235L577.565 426.154H577.556Z" fill="white"/>
<path d="M591.768 426.695L594.796 427.416C596.517 427.821 597.382 429.333 597.013 430.882C596.652 432.404 595.192 433.402 593.462 432.989L591.939 432.628L591.444 434.717L589.947 434.366L591.768 426.695ZM592.94 428.406L592.263 431.251L593.705 431.593C594.589 431.8 595.319 431.341 595.516 430.522C595.715 429.694 595.264 428.955 594.381 428.748L592.94 428.406Z" fill="white"/>
<path d="M602.59 429.566L604.023 430.034L604.41 438.461L602.914 437.975L602.869 436.444L599.733 435.427L598.796 436.633L597.3 436.147L602.59 429.575V429.566ZM600.652 434.265L602.824 434.977L602.716 431.646L600.652 434.275V434.265Z" fill="white"/>
<path d="M609.734 432.078L612.672 433.338C614.34 434.059 614.871 435.553 614.285 436.93C613.889 437.839 613.069 438.47 612.096 438.524L612.384 441.792L610.816 441.117L610.636 438.335L609.004 437.633L608.022 439.92L606.625 439.316L609.744 432.069L609.734 432.078ZM610.581 433.978L609.554 436.373L610.987 436.985C611.915 437.381 612.582 436.985 612.862 436.345C613.168 435.634 612.907 434.977 612.014 434.59L610.581 433.978Z" fill="white"/>
<path d="M619.351 438.084L617.413 437.048L618.08 435.806L623.262 438.57L622.595 439.812L620.676 438.786L617.62 444.502L616.296 443.791L619.351 438.074V438.084Z" fill="white"/>
<path d="M625.57 445.348L625.823 440.063L627.228 440.981L627.012 444.582L630.22 442.935L631.617 443.844L626.85 446.221L625.048 448.985L623.759 448.148L625.579 445.357L625.57 445.348Z" fill="white"/>
<path d="M430.857 463.21L429.928 465.2L428.658 464.605L431.136 459.294L432.406 459.888L431.487 461.86L437.362 464.596L436.731 465.956L430.857 463.219V463.21Z" fill="white"/>
<path d="M439.308 453.767L437.785 456.566L440.614 458.106L439.875 459.456L432.937 455.675L433.675 454.324L436.469 455.846L438.001 453.046L435.208 451.525L435.938 450.183L442.876 453.955L442.146 455.297L439.316 453.757L439.308 453.767Z" fill="white"/>
<path d="M438.109 446.527L439.821 443.826C440.794 442.296 442.363 442.008 443.624 442.809C444.462 443.34 444.949 444.249 444.859 445.222L448.13 445.447L447.22 446.887L444.444 446.626L443.498 448.121L445.597 449.453L444.778 450.74L438.109 446.518V446.527ZM440.119 445.987L442.318 447.383L443.146 446.068C443.687 445.222 443.408 444.493 442.813 444.114C442.155 443.7 441.47 443.853 440.948 444.673L440.119 445.987Z" fill="white"/>
<path d="M443.671 438.03L446.78 433.735L447.942 434.573L445.726 437.633L447.158 438.669L449.375 435.608L450.537 436.454L448.321 439.515L449.771 440.568L451.988 437.508L453.16 438.354L450.051 442.648L443.662 438.03H443.671Z" fill="white"/>
<path d="M450.888 428.522L451.843 427.361L459.837 430.089L458.836 431.295L457.394 430.782L455.294 433.321L456.069 434.635L455.07 435.842L450.879 428.513L450.888 428.522ZM454.556 432.051L456.006 430.296L452.862 429.17L454.556 432.051Z" fill="white"/>
<path d="M457.846 422.67L456.351 424.282L455.323 423.327L459.315 419.024L460.343 419.979L458.864 421.572L463.622 425.983L462.604 427.082L457.846 422.679V422.67Z" fill="white"/>
<path d="M468.876 415.162C467.38 413.451 467.488 410.993 469.29 409.427C470.417 408.446 471.696 408.185 472.913 408.455L472.534 409.976C471.741 409.751 470.939 409.922 470.246 410.525C469.146 411.48 469.083 413.074 470.029 414.163C470.993 415.27 472.534 415.405 473.67 414.424C474.571 413.631 474.733 412.614 474.247 411.66L472.354 413.307L471.417 412.227L474.553 409.499L474.985 409.994C476.373 411.588 476.445 413.956 474.661 415.513C472.796 417.143 470.326 416.818 468.885 415.162H468.876Z" fill="white"/>
<path d="M475.392 404.493L477.941 402.567C479.392 401.468 480.961 401.747 481.861 402.945C482.466 403.737 482.601 404.754 482.168 405.636L485.15 406.996L483.79 408.022L481.276 406.807L479.861 407.878L481.366 409.859L480.149 410.777L475.382 404.493H475.392ZM477.455 404.691L479.032 406.762L480.275 405.826C481.077 405.223 481.069 404.439 480.645 403.881C480.176 403.26 479.482 403.17 478.698 403.755L477.455 404.691Z" fill="white"/>
<path d="M485.574 397.155L486.826 396.327L493.666 401.27L492.36 402.134L491.134 401.225L488.385 403.044L488.745 404.529L487.439 405.393L485.583 397.165L485.574 397.155ZM488.042 401.594L489.944 400.342L487.268 398.353L488.042 401.594Z" fill="white"/>
<path d="M492.189 392.897L494.91 391.395C496.46 390.539 498.118 391.079 498.893 392.465C499.65 393.834 499.245 395.554 497.686 396.418L496.316 397.174L497.362 399.056L496.018 399.803L492.198 392.907L492.189 392.897ZM494.208 393.375L495.622 395.932L496.92 395.211C497.713 394.77 497.947 393.942 497.533 393.204C497.118 392.457 496.289 392.213 495.496 392.655L494.198 393.366L494.208 393.375Z" fill="white"/>
<path d="M507.655 389.981L504.789 391.376L506.204 394.266L504.825 394.942L501.356 387.856L502.734 387.181L504.131 390.035L506.997 388.64L505.6 385.786L506.97 385.119L510.439 392.205L509.069 392.871L507.655 389.981Z" fill="white"/>
<path d="M516.635 381.032L518.032 380.502L521.745 390.188L520.348 390.72L516.644 381.032H516.635Z" fill="white"/>
<path d="M528.279 377.044L529.766 376.603L531.992 384.174L530.505 384.615L528.279 377.044Z" fill="white"/>
<path d="M534.161 375.378L535.747 375L540.343 379.429L539.108 374.208L540.541 373.866L542.352 381.536L540.883 381.887L536.144 377.314L537.414 382.706L535.972 383.048L534.161 375.378Z" fill="white"/>
<path d="M546.905 374.109L544.742 374.469L544.508 373.083L550.302 372.111L550.536 373.497L548.392 373.857L549.464 380.25L547.977 380.502L546.905 374.109Z" fill="white"/>
<path d="M554.349 371.571L559.63 371.012L559.783 372.444L556.025 372.84L556.214 374.605L559.981 374.209L560.134 375.64L556.368 376.036L556.557 377.818L560.315 377.423L560.468 378.863L555.187 379.422L554.358 371.58L554.349 371.571Z" fill="white"/>
<path d="M563.92 370.697L565.452 370.625L565.741 377.027L569.381 376.864L569.453 378.341L564.28 378.575L563.92 370.697Z" fill="white"/>
<path d="M578.672 374.397C578.807 372.138 580.61 370.454 582.98 370.598C584.466 370.688 585.566 371.39 586.251 372.435L584.917 373.254C584.502 372.534 583.817 372.093 582.898 372.038C581.438 371.949 580.285 373.038 580.195 374.488C580.104 375.954 581.105 377.125 582.61 377.215C583.808 377.287 584.638 376.666 584.953 375.649L582.447 375.496L582.529 374.073L586.674 374.316L586.638 374.973C586.512 377.071 584.908 378.817 582.538 378.683C580.068 378.539 578.537 376.585 578.672 374.397Z" fill="white"/>
<path d="M590.808 371.336L593.979 371.741C595.782 371.966 596.701 373.263 596.512 374.748C596.385 375.729 595.773 376.558 594.844 376.882L596.025 379.942L594.33 379.726L593.394 377.107L591.636 376.882L591.321 379.34L589.807 379.15L590.808 371.336ZM592.141 372.92L591.807 375.504L593.348 375.702C594.349 375.828 594.889 375.27 594.971 374.568C595.07 373.794 594.637 373.244 593.673 373.118L592.132 372.92H592.141Z" fill="white"/>
<path d="M603.201 373.208L604.679 373.497L606.103 381.807L604.562 381.51L604.328 379.997L601.092 379.367L600.308 380.681L598.767 380.384L603.201 373.218V373.208ZM601.849 378.107L604.084 378.539L603.57 375.253L601.849 378.107Z" fill="white"/>
<path d="M611.214 374.9L614.232 375.693C615.945 376.143 616.774 377.682 616.368 379.213C615.972 380.725 614.485 381.689 612.755 381.238L611.241 380.842L610.691 382.922L609.205 382.535L611.214 374.9ZM612.349 376.638L611.601 379.475L613.034 379.852C613.917 380.086 614.656 379.645 614.873 378.826C615.089 377.998 614.656 377.25 613.782 377.017L612.349 376.638Z" fill="white"/>
<path d="M623.982 383.517L620.955 382.509L619.937 385.561L618.476 385.075L620.964 377.594L622.424 378.08L621.423 381.095L624.451 382.104L625.451 379.088L626.903 379.565L624.415 387.047L622.964 386.569L623.982 383.517Z" fill="white"/>
<path d="M636.671 383.437L638.04 384.031L633.886 393.538L632.516 392.943L636.671 383.437Z" fill="white"/>
<path d="M649.635 389.72L650.951 390.44L649.77 398.794L648.392 398.038L648.626 396.526L645.733 394.941L644.589 395.95L643.21 395.194L649.626 389.71L649.635 389.72ZM646.851 393.978L648.851 395.077L649.365 391.782L646.851 393.978Z" fill="white"/>
<path d="M652.806 398.84L654.5 398.66C654.5 399.632 654.86 400.361 655.662 400.866C656.383 401.325 656.978 401.217 657.284 400.731C657.681 400.109 657.122 399.579 656.329 398.777C655.464 397.94 654.554 396.914 655.418 395.563C656.112 394.465 657.653 394.213 659.042 395.095C660.222 395.842 660.699 396.725 660.898 397.904L659.321 398.057C659.302 397.328 659.059 396.725 658.284 396.238C657.564 395.78 657.023 395.941 656.743 396.373C656.401 396.914 657.005 397.436 657.717 398.156C658.6 399.02 659.573 400.1 658.654 401.541C657.933 402.684 656.365 403.018 654.878 402.072C653.445 401.163 652.931 400.037 652.806 398.84Z" fill="white"/>
<path d="M660.747 403.99L662.442 403.918C662.379 404.89 662.703 405.637 663.46 406.195C664.154 406.7 664.749 406.628 665.091 406.159C665.524 405.565 665.001 404.998 664.262 404.151C663.451 403.261 662.613 402.18 663.55 400.884C664.316 399.83 665.857 399.677 667.191 400.64C668.318 401.46 668.741 402.369 668.867 403.557L667.29 403.611C667.317 402.882 667.11 402.261 666.371 401.729C665.677 401.226 665.136 401.352 664.83 401.775C664.451 402.288 665.019 402.846 665.686 403.611C666.515 404.53 667.416 405.664 666.407 407.05C665.614 408.14 664.036 408.383 662.604 407.348C661.234 406.348 660.784 405.196 660.738 403.99H660.747Z" fill="white"/>
<path d="M672.859 405.079L676.95 408.455L676.04 409.562L673.12 407.158L671.994 408.527L674.913 410.931L674.003 412.038L671.084 409.634L669.939 411.02L672.859 413.424L671.94 414.54L667.849 411.165L672.868 405.088L672.859 405.079Z" fill="white"/>
<path d="M680.584 413.595L678.98 412.101L679.943 411.074L684.233 415.08L683.269 416.107L681.683 414.621L677.249 419.357L676.15 418.331L680.584 413.595Z" fill="white"/>
<path d="M688.063 424.642C689.776 423.157 692.236 423.273 693.795 425.065C694.768 426.191 695.038 427.469 694.759 428.685L693.236 428.297C693.461 427.505 693.299 426.704 692.696 426.011C691.74 424.913 690.146 424.841 689.055 425.786C687.947 426.749 687.803 428.288 688.785 429.422C689.568 430.332 690.596 430.485 691.551 430.008L689.911 428.117L690.992 427.181L693.714 430.314L693.218 430.746C691.623 432.124 689.253 432.196 687.703 430.404C686.081 428.532 686.414 426.074 688.073 424.642H688.063Z" fill="white"/>
<path d="M698.732 431.195L700.651 433.752C701.741 435.201 701.462 436.768 700.255 437.668C699.462 438.262 698.435 438.398 697.552 437.966L696.182 440.945L695.154 439.577L696.38 437.074L695.317 435.661L693.325 437.155L692.406 435.94L698.723 431.204L698.732 431.195ZM698.525 433.257L696.443 434.823L697.38 436.065C697.984 436.867 698.768 436.867 699.326 436.444C699.948 435.976 700.048 435.283 699.461 434.499L698.525 433.257Z" fill="white"/>
<path d="M706.021 441.378L706.841 442.638L701.866 449.454L701.011 448.139L701.93 446.915L700.128 444.16L698.64 444.511L697.785 443.197L706.021 441.378ZM701.569 443.818L702.822 445.727L704.823 443.061L701.569 443.818Z" fill="white"/>
<path d="M710.303 448.094L711.808 450.813C712.663 452.361 712.123 454.017 710.735 454.792C709.365 455.548 707.644 455.142 706.779 453.585L706.022 452.217L704.139 453.261L703.391 451.919L710.294 448.103L710.303 448.094ZM709.834 450.11L707.275 451.533L707.996 452.829C708.437 453.621 709.266 453.856 710.005 453.45C710.753 453.036 710.997 452.208 710.555 451.415L709.834 450.119V450.11Z" fill="white"/>
<path d="M713.139 463.471L711.751 460.609L708.858 462.013L708.191 460.635L715.292 457.187L715.959 458.564L713.103 459.952L714.5 462.814L717.356 461.427L718.023 462.796L710.921 466.235L710.255 464.866L713.148 463.463L713.139 463.471Z" fill="white"/>
<path d="M454.472 266.067L456.23 265.238L460.789 270.676L459.699 263.599L461.348 262.816L466.115 268.164L464.836 261.16L466.557 260.35L468.251 270.451L466.565 271.243L461.744 265.823L462.862 272.99L461.141 273.799L454.463 266.048L454.472 266.067Z" fill="white"/>
<path d="M469.538 264.483C468.465 261.899 469.655 258.956 472.223 257.893C474.8 256.831 477.738 258.073 478.81 260.657C479.883 263.241 478.693 266.184 476.098 267.256C473.53 268.318 470.61 267.067 469.538 264.483ZM477.044 261.377C476.369 259.757 474.566 258.937 472.935 259.613C471.313 260.279 470.628 262.133 471.295 263.754C471.962 265.366 473.755 266.184 475.377 265.519C477.026 264.843 477.711 262.989 477.044 261.386V261.377Z" fill="white"/>
<path d="M479.338 255.192L483.068 253.842C485.186 253.076 486.943 253.986 487.583 255.75C488.007 256.921 487.8 258.19 486.971 259.072L490.017 261.8L488.025 262.52L485.493 260.134L483.429 260.881L484.492 263.799L482.717 264.447L479.347 255.183L479.338 255.192ZM481.717 256.191L482.825 259.252L484.636 258.595C485.808 258.171 486.078 257.235 485.781 256.416C485.447 255.497 484.655 255.129 483.519 255.543L481.708 256.2L481.717 256.191Z" fill="white"/>
<path d="M493.901 255.398L493 257.694L493.901 260.512L492.09 261.088L489.089 251.689L490.9 251.112L492.297 255.479L494.406 249.996L496.551 249.312L494.82 253.723L499.659 258.675L497.668 259.314L493.91 255.398H493.901Z" fill="white"/>
<path d="M499.053 248.592L505.126 246.908L505.613 248.655L501.377 249.825L501.991 252.022L506.226 250.843L506.703 252.562L502.468 253.741L503.54 257.577L501.702 258.09L499.053 248.592Z" fill="white"/>
<path d="M508.163 246.135L510.01 245.693L511.875 253.481L516.273 252.437L516.706 254.237L510.461 255.722L508.163 246.135Z" fill="white"/>
<path d="M517.192 249.043C516.651 246.297 518.39 243.642 521.12 243.111C523.86 242.57 526.492 244.361 527.032 247.099C527.573 249.845 525.834 252.5 523.076 253.04C520.354 253.581 517.732 251.789 517.192 249.043ZM525.158 247.467C524.815 245.748 523.211 244.587 521.472 244.938C519.751 245.28 518.715 246.955 519.057 248.674C519.391 250.385 520.995 251.537 522.716 251.204C524.464 250.862 525.5 249.178 525.167 247.467H525.158Z" fill="white"/>
<path d="M527.195 242.021L529.123 241.742L531.899 248.268L532.917 241.184L534.72 240.922L537.72 247.431L538.54 240.364L540.424 240.085L539.099 250.24L537.251 250.51L534.224 243.929L533.205 251.105L531.322 251.383L527.195 242.021Z" fill="white"/>
<path d="M548.202 246.639C548.102 245.279 549.057 244.397 550.094 243.65C549.4 242.938 549.075 242.372 549.013 241.534C548.913 240.229 549.86 239.049 551.464 238.933C553.032 238.815 554.122 239.797 554.221 241.084C554.302 242.173 553.554 242.974 552.68 243.668L554.104 244.901L555.617 242.705L557.825 242.542L555.447 245.955L558.411 248.449L555.87 248.638L554.41 247.377C553.428 248.574 552.581 249.015 551.445 249.096C549.589 249.231 548.336 248.259 548.211 246.639H548.202ZM553.113 246.305L551.256 244.694C550.554 245.216 550.031 245.729 550.076 246.351C550.13 247.08 550.725 247.458 551.4 247.404C551.977 247.359 552.509 247.062 553.104 246.305H553.113ZM551.527 242.65C552.112 242.209 552.536 241.759 552.5 241.228C552.463 240.742 552.095 240.418 551.581 240.454C551.049 240.49 550.715 240.868 550.742 241.354C550.778 241.849 550.959 242.146 551.527 242.65Z" fill="white"/>
<path d="M565.478 238.329L568.64 238.302C571.749 238.275 573.768 240.391 573.795 243.182C573.822 245.991 571.695 248.125 568.776 248.151L565.576 248.178L565.486 238.321L565.478 238.329ZM567.396 240.085L567.451 246.387H568.631C570.613 246.36 571.885 244.973 571.875 243.2C571.857 241.39 570.668 240.049 568.523 240.076H567.396V240.085Z" fill="white"/>
<path d="M576.612 238.302L583.191 238.5L583.137 240.301L578.451 240.157L578.388 242.372L583.074 242.516L583.019 244.316L578.334 244.172L578.262 246.413L582.957 246.557L582.902 248.367L576.324 248.169L576.622 238.311L576.612 238.302Z" fill="white"/>
<path d="M585.537 238.599L587.528 238.735L589.645 246.216L592.799 239.104L594.782 239.239L590.411 248.818L588.555 248.692L585.545 238.599H585.537Z" fill="white"/>
<path d="M597.222 239.481L603.764 240.192L603.575 241.975L598.916 241.47L598.673 243.676L603.332 244.18L603.134 245.963L598.475 245.458L598.232 247.691L602.89 248.196L602.692 249.996L596.149 249.285L597.213 239.481H597.222Z" fill="white"/>
<path d="M606.983 240.607L608.867 240.887L607.713 248.809L612.183 249.457L611.912 251.285L605.56 250.357L606.983 240.607Z" fill="white"/>
<path d="M614.303 246.657C614.816 243.911 617.412 242.084 620.142 242.597C622.882 243.101 624.666 245.739 624.161 248.493C623.648 251.239 621.053 253.067 618.295 252.554C615.565 252.049 613.789 249.411 614.303 246.665V246.657ZM622.296 248.133C622.611 246.405 621.549 244.739 619.809 244.415C618.079 244.091 616.502 245.271 616.177 246.999C615.862 248.71 616.916 250.375 618.638 250.699C620.395 251.023 621.972 249.844 622.287 248.133H622.296Z" fill="white"/>
<path d="M627.634 244.19L631.401 245.055C633.546 245.549 634.628 247.431 634.186 249.367C633.744 251.276 631.942 252.536 629.788 252.041L627.896 251.609L627.292 254.228L625.436 253.805L627.634 244.199V244.19ZM629.103 246.315L628.283 249.88L630.077 250.294C631.176 250.546 632.077 249.961 632.311 248.935C632.545 247.899 631.987 246.981 630.888 246.72L629.095 246.315H629.103Z" fill="white"/>
<path d="M637.591 246.513L639.356 246.999L641.087 251.69L645.07 248.566L646.764 249.034L644.16 258.541L642.375 258.055L644.205 251.383L640.33 254.436L638.609 249.916L636.797 256.515L634.986 256.02L637.591 246.513Z" fill="white"/>
<path d="M649.631 249.906L655.903 251.904L655.353 253.615L650.883 252.193L650.208 254.299L654.678 255.722L654.128 257.433L649.657 256.01L648.973 258.144L653.442 259.566L652.893 261.295L646.621 259.296L649.613 249.906H649.631Z" fill="white"/>
<path d="M658.787 252.868L660.689 253.561L662.428 261.331L664.717 255.019L666.429 255.641L663.059 264.914L661.293 264.275L659.499 256.253L657.138 262.771L655.408 262.15L658.778 252.877L658.787 252.868Z" fill="white"/>
<path d="M670.957 259.332L668.442 258.306L669.109 256.686L675.841 259.432L675.174 261.061L672.678 260.044L669.614 267.543L667.893 266.841L670.957 259.342V259.332Z" fill="white"/>
<path d="M227.689 537.115L227.77 530.489L229.572 530.508L229.518 535.233L231.735 535.261L231.789 530.534L233.592 530.552L233.537 535.279L235.781 535.306L235.835 530.58L237.646 530.597L237.565 537.223L227.698 537.106L227.689 537.115Z" fill="white"/>
<path d="M227.833 526.771L227.959 523.584C228.085 520.451 230.293 518.524 233.086 518.632C235.898 518.74 237.935 520.982 237.818 523.926L237.691 527.149L227.833 526.761V526.771ZM229.671 524.925L235.979 525.177L236.024 523.989C236.106 521.99 234.781 520.64 233.005 520.576C231.194 520.504 229.797 521.639 229.716 523.799L229.671 524.934V524.925Z" fill="white"/>
<path d="M228.366 514.896L228.654 510.908C228.816 508.648 230.366 507.406 232.241 507.541C233.484 507.631 234.557 508.342 235.025 509.477L238.765 507.793L238.612 509.918L235.395 511.268L235.232 513.474L238.333 513.699L238.197 515.598L228.357 514.887L228.366 514.896ZM230.258 513.123L233.502 513.357L233.646 511.421C233.737 510.17 232.998 509.53 232.124 509.468C231.151 509.396 230.484 509.972 230.402 511.187L230.267 513.123H230.258Z" fill="white"/>
<path d="M228.294 498.547L228.501 496.693L241.388 498.124L241.18 499.978L228.294 498.547Z" fill="#EC0000"/>
<path d="M231.106 487.977L231.376 486.068L241.135 487.473L240.856 489.382L231.097 487.977H231.106Z" fill="white"/>
<path d="M234.086 480.092L233.636 482.793L231.906 482.504L233.122 475.275L234.852 475.563L234.402 478.237L242.404 479.579L242.089 481.433L234.086 480.092Z" fill="white"/>
<path d="M233.753 471.772L234.384 468.648C235.006 465.578 237.502 464.029 240.242 464.579C242.999 465.137 244.649 467.676 244.071 470.557L243.432 473.717L233.753 471.763V471.772ZM235.871 470.242L242.062 471.493L242.296 470.332C242.693 468.369 241.593 466.83 239.863 466.478C238.088 466.118 236.529 467.019 236.096 469.134L235.871 470.25V470.242Z" fill="white"/>
<path d="M236.179 460.113L237.098 456.225C237.621 454.019 239.351 453.038 241.189 453.47C242.397 453.758 243.343 454.631 243.632 455.828L247.596 454.766L247.101 456.846L243.712 457.665L243.199 459.817L246.227 460.537L245.786 462.391L236.179 460.113ZM238.333 458.664L241.505 459.412L241.955 457.521C242.244 456.297 241.613 455.549 240.757 455.351C239.811 455.126 239.063 455.585 238.784 456.774L238.333 458.664Z" fill="white"/>
<path d="M238.718 443.971L239.224 442.171L251.731 445.646L251.226 447.438L238.718 443.963V443.971Z" fill="#EC0000"/>
<path d="M247.765 435.798C245.026 434.916 243.621 432.161 244.503 429.432C245.089 427.632 246.522 426.408 248.199 426.029L248.685 427.947C247.558 428.136 246.666 428.83 246.288 430C245.729 431.719 246.675 433.421 248.37 433.97C250.028 434.51 251.794 433.7 252.352 431.99C252.767 430.702 252.352 429.559 251.478 428.767L252.902 427.398C254.218 428.703 254.795 430.594 254.155 432.557C253.236 435.384 250.433 436.662 247.775 435.806L247.765 435.798Z" fill="white"/>
<path d="M247.143 422.032L247.792 420.231L255.334 422.95L256.884 418.674L258.623 419.304L256.424 425.39L247.143 422.041V422.032Z" fill="white"/>
<path d="M254.803 415.36C252.199 414.325 250.92 411.408 251.956 408.806C252.992 406.196 255.939 404.935 258.534 405.971C261.138 407.005 262.418 409.923 261.373 412.542C260.337 415.144 257.399 416.386 254.803 415.351V415.36ZM257.831 407.753C256.2 407.105 254.353 407.843 253.686 409.499C253.037 411.147 253.875 412.93 255.515 413.578C257.137 414.217 258.976 413.497 259.634 411.858C260.301 410.192 259.453 408.401 257.831 407.753Z" fill="white"/>
<path d="M260.876 403.396L255.316 400.957L256.1 399.174L261.696 401.631C262.813 402.118 263.895 401.739 264.363 400.677C264.832 399.615 264.382 398.544 263.273 398.058L257.676 395.6L258.461 393.817L264.021 396.257C266.274 397.247 266.985 399.273 266.048 401.415C265.112 403.558 263.129 404.386 260.876 403.396Z" fill="white"/>
<path d="M260.059 390.361L261.448 387.489C262.808 384.661 265.611 383.779 268.134 384.995C270.666 386.219 271.639 389.082 270.359 391.738L268.954 394.646L260.059 390.361ZM262.483 389.406L268.17 392.143L268.683 391.072C269.548 389.271 268.873 387.507 267.277 386.733C265.647 385.949 263.907 386.426 262.97 388.38L262.474 389.406H262.483Z" fill="white"/>
<path d="M274.334 379.538L273.964 377.45C275.172 377.369 276.055 376.847 276.614 375.811C277.118 374.875 276.938 374.146 276.307 373.804C275.496 373.363 274.883 374.11 273.955 375.154C272.982 376.298 271.784 377.522 270.017 376.567C268.594 375.794 268.143 373.912 269.116 372.102C269.945 370.572 270.999 369.897 272.451 369.545L272.783 371.49C271.873 371.58 271.144 371.94 270.603 372.931C270.099 373.867 270.342 374.524 270.91 374.83C271.612 375.208 272.207 374.416 273.045 373.471C274.055 372.291 275.307 370.995 277.19 372.012C278.678 372.813 279.236 374.731 278.182 376.667C277.173 378.53 275.821 379.269 274.324 379.521L274.334 379.538Z" fill="white"/>
<path d="M272.835 365.719L276.17 359.994L277.72 360.894L275.341 364.981L277.251 366.098L279.63 362.01L281.18 362.911L278.801 366.998L280.739 368.123L283.118 364.036L284.685 364.945L281.351 370.671L272.827 365.71L272.835 365.719Z" fill="white"/>
<path d="M282.111 359.66C279.669 358.13 278.983 355.114 280.507 352.692C281.516 351.089 283.201 350.252 284.914 350.297V352.278C283.777 352.188 282.742 352.638 282.092 353.673C281.129 355.204 281.624 357.076 283.138 358.03C284.616 358.958 286.526 358.607 287.481 357.085C288.203 355.942 288.067 354.727 287.418 353.745L289.13 352.764C290.086 354.348 290.185 356.32 289.086 358.075C287.509 360.588 284.48 361.145 282.111 359.66Z" fill="white"/>
<path d="M289.795 349.675L284.767 346.272L285.857 344.661L290.921 348.082C291.93 348.766 293.066 348.586 293.715 347.623C294.364 346.66 294.121 345.535 293.111 344.85L288.046 341.429L289.137 339.818L294.165 343.221C296.202 344.598 296.545 346.723 295.238 348.658C293.922 350.594 291.831 351.053 289.795 349.675Z" fill="white"/>
<path d="M291.329 336.713L293.68 333.481C295.014 331.644 296.987 331.41 298.511 332.509C299.52 333.238 300.052 334.408 299.862 335.624L303.926 336.164L302.674 337.892L299.231 337.343L297.925 339.135L300.439 340.962L299.321 342.502L291.337 336.713H291.329ZM293.869 336.209L296.501 338.117L297.645 336.542C298.384 335.524 298.096 334.597 297.384 334.084C296.591 333.516 295.726 333.652 295.014 334.633L293.869 336.209Z" fill="white"/>
<path d="M297.979 327.692L299.151 326.152L307 332.13L305.829 333.67L297.979 327.692Z" fill="white"/>
<path d="M304.44 322.263L302.727 324.397L301.358 323.298L305.944 317.581L307.314 318.68L305.62 320.796L311.946 325.864L310.775 327.332L304.448 322.263H304.44Z" fill="white"/>
<path d="M314.297 316.501L307.781 315.34L309.142 313.746L313.567 314.601L312.035 310.361L313.387 308.776L315.568 315.061L318.703 317.735L317.46 319.193L314.297 316.492V316.501Z" fill="white"/>
<path d="M317.838 301.646L319.109 300.278L328.643 309.073L327.381 310.442L317.847 301.646H317.838Z" fill="#EC0000"/>
<path d="M326.329 294.831L327.771 293.39L335.583 295.083L330.834 290.33L332.132 289.033L339.107 296.01L337.764 297.343L329.699 295.587L334.601 300.494L333.294 301.799L326.319 294.822L326.329 294.831Z" fill="white"/>
<path d="M334.908 286.369L339.757 281.832L340.983 283.146L337.531 286.378L339.045 287.998L342.496 284.767L343.722 286.081L340.27 289.312L341.802 290.951L345.254 287.719L346.488 289.043L341.64 293.58L334.891 286.378L334.908 286.369Z" fill="white"/>
<path d="M349.431 281.805L350.161 285.748L348.557 287.161L347.538 281.328L342.167 279.644L343.735 278.258L347.34 279.41L346.646 275.7L348.233 274.306L349.196 279.878L354.856 281.616L353.234 283.038L349.422 281.796L349.431 281.805Z" fill="white"/>
<path d="M353.698 272.019L351.59 273.766L350.472 272.415L356.122 267.742L357.24 269.093L355.149 270.821L360.322 277.061L358.871 278.258L353.698 272.019Z" fill="white"/>
<path d="M361.292 269.028L364.203 266.742L365.05 267.822L362.139 270.109L361.284 269.028H361.292Z" fill="white"/>
<path d="M367.149 265.329C365.464 263.052 365.843 259.999 368.231 258.226C369.727 257.119 371.349 256.911 372.845 257.371L372.214 259.225C371.241 258.865 370.231 259 369.304 259.675C367.835 260.755 367.6 262.736 368.673 264.186C369.763 265.662 371.674 265.986 373.179 264.87C374.386 263.978 374.683 262.719 374.17 261.485L371.647 263.348L370.583 261.917L374.756 258.829L375.242 259.495C376.81 261.611 376.666 264.573 374.287 266.338C371.8 268.174 368.763 267.525 367.132 265.329H367.149Z" fill="white"/>
<path d="M375.161 253.391L380.631 249.628L381.649 251.104L377.756 253.787L379.018 255.615L382.911 252.932L383.929 254.408L380.036 257.091L381.307 258.937L385.2 256.254L386.227 257.749L380.758 261.512L375.161 253.391Z" fill="white"/>
<path d="M383.732 247.557L385.454 246.459L392.726 249.781L389.094 244.127L390.644 243.137L395.97 251.437L394.375 252.455L386.877 249.025L390.617 254.859L389.058 255.858L383.732 247.557Z" fill="white"/>
<path d="M401.708 245.73L402.493 243.758C403.565 244.326 404.592 244.343 405.611 243.758C406.538 243.227 406.755 242.507 406.403 241.886C405.943 241.093 405.033 241.4 403.691 241.814C402.258 242.282 400.591 242.696 399.591 240.959C398.78 239.554 399.383 237.709 401.168 236.682C402.681 235.809 403.934 235.791 405.349 236.25L404.61 238.078C403.79 237.681 402.979 237.601 401.987 238.167C401.06 238.699 400.924 239.383 401.249 239.95C401.646 240.643 402.573 240.275 403.781 239.905C405.259 239.428 407.007 238.987 408.079 240.832C408.927 242.29 408.395 244.218 406.485 245.316C404.646 246.378 403.105 246.297 401.699 245.73H401.708Z" fill="white"/>
<path d="M407.738 233.153L409.433 232.225L414.146 240.886L412.452 241.804L407.738 233.144V233.153Z" fill="white"/>
<path d="M412.875 230.398L418.778 227.373L419.597 228.966L415.389 231.127L416.398 233.099L420.607 230.938L421.426 232.531L417.218 234.692L418.246 236.682L422.454 234.521L423.283 236.132L417.381 239.157L412.875 230.389V230.398Z" fill="white"/>
<path d="M422.123 225.69L423.798 224.898L428.188 227.329L429.206 222.359L430.81 221.603L435.018 230.515L433.333 231.308L430.386 225.051L429.404 229.903L425.132 227.598L428.052 233.793L426.34 234.603L422.132 225.69H422.123Z" fill="white"/>
<path d="M438.394 216.686L440.115 215.966L445.143 227.922L443.422 228.642L438.394 216.686Z" fill="#EC0000"/>
<path d="M448.947 213.996L451.939 212.88C454.877 211.781 457.517 213.078 458.49 215.697C459.472 218.335 458.193 221.072 455.427 222.108L452.398 223.233L448.947 213.996ZM451.371 214.977L453.579 220.892L454.697 220.478C456.571 219.776 457.31 218.029 456.688 216.373C456.057 214.68 454.462 213.825 452.434 214.581L451.371 214.977Z" fill="white"/>
<path d="M462.41 209.143L464.194 208.549L470.872 216.705L469.015 217.327L467.826 215.832L463.915 217.147L463.87 219.055L462.013 219.677L462.41 209.143ZM463.969 215.302L466.672 214.392L464.077 211.133L463.969 215.302Z" fill="white"/>
<path d="M472.037 207.873L469.415 208.674L468.901 206.999L475.921 204.857L476.435 206.531L473.839 207.323L476.209 215.066L474.416 215.615L472.046 207.873H472.037Z" fill="white"/>
<path d="M480.686 203.508L482.497 203.012L488.715 211.529L486.822 212.052L485.723 210.494L481.749 211.592L481.605 213.501L479.712 214.023L480.686 203.525V203.508ZM481.903 209.738L484.651 208.981L482.235 205.578L481.894 209.738H481.903Z" fill="white"/>
<path d="M494.249 200.014L498.043 199.168C500.206 198.681 502.008 199.915 502.441 201.851C502.864 203.759 501.774 205.677 499.602 206.163L497.691 206.586L498.277 209.206L496.403 209.62L494.249 200.005V200.014ZM496.502 201.292L497.304 204.866L499.107 204.461C500.214 204.218 500.783 203.3 500.557 202.274C500.323 201.23 499.422 200.644 498.313 200.896L496.511 201.302L496.502 201.292Z" fill="white"/>
<path d="M505.189 197.628L509.119 196.882C511.353 196.458 512.948 197.638 513.3 199.484C513.534 200.707 513.119 201.923 512.146 202.671L514.732 205.848L512.633 206.244L510.497 203.489L508.316 203.904L508.893 206.955L507.019 207.307L505.18 197.619L505.189 197.628ZM507.388 198.997L507.992 202.193L509.902 201.833C511.137 201.599 511.56 200.717 511.398 199.861C511.218 198.907 510.488 198.412 509.299 198.637L507.388 198.997Z" fill="white"/>
<path d="M516.632 200.508C516.209 197.744 518.083 195.161 520.84 194.738C523.616 194.314 526.193 196.214 526.617 198.969C527.04 201.733 525.166 204.317 522.381 204.739C519.615 205.163 517.056 203.263 516.632 200.499V200.508ZM524.725 199.266C524.463 197.528 522.886 196.313 521.129 196.583C519.38 196.853 518.263 198.482 518.533 200.22C518.795 201.94 520.354 203.164 522.102 202.894C523.878 202.624 524.995 200.985 524.733 199.266H524.725Z" fill="white"/>
<path d="M531.277 195.206L528.555 195.53L528.348 193.783L535.638 192.91L535.845 194.656L533.142 194.98L534.115 203.03L532.25 203.254L531.286 195.206H531.277Z" fill="white"/>
<path d="M539.162 192.56L545.768 191.975L545.93 193.767L541.217 194.19L541.415 196.396L546.128 195.972L546.291 197.764L541.577 198.188L541.776 200.42L546.488 199.997L546.651 201.797L540.045 202.383L539.171 192.569L539.162 192.56Z" fill="white"/>
<path d="M549.47 196.611C549.308 193.739 551.372 191.434 554.237 191.272C556.13 191.164 557.788 192.056 558.752 193.478L557.139 194.621C556.553 193.64 555.589 193.054 554.363 193.126C552.552 193.226 551.308 194.72 551.408 196.503C551.507 198.24 552.894 199.6 554.688 199.5C556.039 199.428 556.958 198.618 557.382 197.52L559.176 198.348C558.427 200.041 556.877 201.265 554.814 201.382C551.84 201.553 549.641 199.402 549.479 196.611H549.47Z" fill="white"/>
<path d="M564.276 192.749L561.536 192.821L561.491 191.065L568.827 190.884L568.872 192.641L566.159 192.703L566.357 200.805L564.484 200.851L564.285 192.749H564.276Z" fill="white"/>
<path d="M572.486 190.858L574.423 190.885L574.306 200.743L572.378 200.716L572.494 190.858H572.486Z" fill="white"/>
<path d="M577.868 195.782C577.941 192.983 580.247 190.777 583.041 190.849C585.853 190.921 588.051 193.253 587.979 196.044C587.907 198.843 585.6 201.049 582.78 200.977C579.977 200.905 577.796 198.574 577.868 195.782ZM586.06 195.998C586.105 194.243 584.78 192.766 582.996 192.713C581.23 192.667 579.833 194.072 579.788 195.837C579.743 197.583 581.059 199.06 582.825 199.104C584.627 199.15 586.015 197.746 586.06 195.998Z" fill="white"/>
<path d="M591.672 191.299L593.708 191.425L597.61 198.394L598.033 191.696L599.872 191.812L599.25 201.653L597.358 201.535L593.338 194.342L592.906 201.257L591.059 201.139L591.681 191.299H591.672Z" fill="white"/>
<path d="M608.894 191.146L610.75 191.335L609.425 204.228L607.569 204.038L608.894 191.146Z" fill="#EC0000"/>
<path d="M619.426 193.838L625.996 194.765L625.744 196.548L621.058 195.891L620.751 198.087L625.437 198.754L625.185 200.536L620.499 199.879L620.184 202.102L624.87 202.769L624.617 204.56L618.048 203.633L619.426 193.865V193.838Z" fill="white"/>
<path d="M632.095 202.274L629.482 205.317L627.383 204.956L631.294 200.509L629.239 195.269L631.303 195.629L632.663 199.159L635.123 196.296L637.205 196.656L633.466 200.905L635.655 206.397L633.519 206.028L632.095 202.283V202.274Z" fill="white"/>
<path d="M640.485 197.277L644.296 198.06C646.468 198.511 647.604 200.365 647.198 202.31C646.802 204.227 645.018 205.524 642.828 205.073L640.909 204.677L640.368 207.306L638.484 206.919L640.476 197.259L640.485 197.277ZM642.017 199.375L641.278 202.958L643.089 203.336C644.198 203.561 645.099 202.967 645.315 201.931C645.532 200.887 644.946 199.978 643.837 199.753L642.026 199.375H642.017Z" fill="white"/>
<path d="M650.01 204.318C650.677 201.599 653.398 199.933 656.111 200.599C658.842 201.266 660.499 204.012 659.833 206.721C659.166 209.441 656.444 211.106 653.705 210.439C650.983 209.774 649.343 207.036 650.01 204.326V204.318ZM657.976 206.263C658.391 204.561 657.409 202.832 655.678 202.4C653.957 201.977 652.299 203.066 651.884 204.768C651.47 206.46 652.443 208.189 654.156 208.603C655.904 209.026 657.562 207.946 657.976 206.253V206.263Z" fill="white"/>
<path d="M661.454 210.294L663.41 209.476C663.752 210.637 664.455 211.384 665.59 211.699C666.618 211.987 667.294 211.645 667.483 210.952C667.735 210.069 666.87 209.628 665.645 208.962C664.311 208.26 662.851 207.359 663.392 205.433C663.833 203.876 665.573 203.02 667.555 203.579C669.231 204.047 670.124 204.929 670.781 206.27L668.952 207.018C668.663 206.153 668.149 205.514 667.059 205.208C666.032 204.92 665.446 205.298 665.266 205.928C665.05 206.694 665.96 207.107 667.068 207.711C668.438 208.431 669.988 209.376 669.402 211.429C668.943 213.05 667.194 214.021 665.077 213.428C663.031 212.851 662.013 211.69 661.437 210.294H661.454Z" fill="white"/>
<path d="M672.718 211.538L674.548 205.757L676.404 206.342L674.557 212.159C674.187 213.32 674.683 214.355 675.791 214.706C676.9 215.057 677.918 214.499 678.278 213.337L680.126 207.522L681.982 208.107L680.153 213.887C679.414 216.227 677.467 217.164 675.242 216.453C673.016 215.75 671.97 213.878 672.718 211.528V211.538Z" fill="white"/>
<path d="M685.591 209.323L689.357 210.655C691.493 211.411 692.286 213.239 691.655 215.003C691.24 216.174 690.267 217.02 689.051 217.173L689.681 221.215L687.672 220.504L687.221 217.047L685.131 216.309L684.094 219.234L682.301 218.596L685.591 209.304V209.323ZM686.798 211.609L685.707 214.679L687.546 215.327C688.735 215.741 689.537 215.201 689.835 214.373C690.159 213.455 689.78 212.663 688.636 212.258L686.798 211.609Z" fill="white"/>
<path d="M696.106 213.096L702.297 215.499L701.647 217.173L697.232 215.454L696.43 217.516L700.837 219.235L700.188 220.91L695.772 219.19L694.961 221.279L699.368 222.998L698.71 224.682L692.52 222.278L696.106 213.086V213.096Z" fill="white"/>
<path d="M710.533 218.921L712.228 219.677L713.237 224.583L717.67 222.117L719.283 222.837L715.246 231.83L713.543 231.065L716.373 224.755L712.047 227.167L711.02 222.432L708.217 228.679L706.487 227.906L710.524 218.911L710.533 218.921Z" fill="white"/>
<path d="M725.491 225.815L727.176 226.643L726.167 237.132L724.41 236.267L724.617 234.368L720.922 232.549L719.544 233.873L717.787 233.008L725.491 225.806V225.815ZM722.256 231.289L724.815 232.549L725.275 228.408L722.256 231.289Z" fill="white"/>
<path d="M733.343 229.758L735.146 230.722L735.786 238.672L738.957 232.757L740.58 233.621L735.921 242.309L734.253 241.417L733.595 233.207L730.325 239.311L728.693 238.437L733.352 229.75L733.343 229.758Z" fill="white"/>
<path d="M746.561 237.025L748.183 237.97L746.453 248.368L744.759 247.387L745.102 245.505L741.533 243.435L740.064 244.659L738.37 243.678L746.552 237.025H746.561ZM742.957 242.255L745.426 243.687L746.174 239.591L742.966 242.255H742.957Z" fill="white"/>
<path d="M750.705 245.172C752.219 242.769 755.202 242.012 757.716 243.597C759.293 244.587 760.077 246.018 760.194 247.576L758.239 247.666C758.221 246.63 757.734 245.73 756.761 245.127C755.22 244.155 753.292 244.65 752.327 246.189C751.345 247.747 751.742 249.637 753.328 250.637C754.598 251.438 755.878 251.249 756.842 250.322L754.183 248.656L755.129 247.144L759.527 249.908L759.086 250.601C757.68 252.834 754.869 253.779 752.363 252.203C749.741 250.556 749.245 247.495 750.705 245.181V245.172Z" fill="white"/>
<path d="M764.761 248.279L770.258 251.997L769.249 253.482L765.329 250.835L764.086 252.672L768.006 255.319L766.996 256.804L763.076 254.157L761.815 256.012L765.735 258.668L764.717 260.171L759.22 256.453L764.753 248.288L764.761 248.279Z" fill="white"/>
<path d="M773.334 254.129L774.829 255.219L774.802 260.224L779.659 258.73L781.092 259.774L775.289 267.742L773.784 266.643L777.858 261.053L773.127 262.52L773.099 257.676L769.071 263.213L767.539 262.097L773.343 254.129H773.334Z" fill="white"/>
<path d="M784.16 262.115L789.388 266.202L788.279 267.615L784.548 264.708L783.178 266.454L786.909 269.362L785.8 270.776L782.07 267.867L780.691 269.632L784.422 272.54L783.305 273.963L778.078 269.876L784.16 262.106V262.115Z" fill="white"/>
<path d="M792.286 268.525L793.854 269.83L792.863 277.753L797.171 272.603L798.585 273.782L792.25 281.354L790.799 280.138L791.826 271.964L787.375 277.284L785.951 276.096L792.286 268.525Z" fill="white"/>
<path d="M802.144 279.247L800.099 277.419L801.27 276.105L806.75 280.994L805.578 282.308L803.55 280.498L798.152 286.548L796.747 285.297L802.144 279.247Z" fill="white"/>
<path d="M814.093 285.847L815.435 287.143L806.433 296.479L805.091 295.183L814.093 285.847Z" fill="#EC0000"/>
<path d="M820.759 294.526L822.112 295.912L815.046 302.79L813.694 301.404L820.759 294.526Z" fill="white"/>
<path d="M825.194 301.691L823.329 299.683L824.618 298.486L829.61 303.861L828.322 305.058L826.474 303.069L820.535 308.587L819.256 307.21L825.194 301.691Z" fill="white"/>
<path d="M837.416 312.747L838.633 314.178L833.515 323.379L832.253 321.884L833.208 320.228L830.55 317.086L828.757 317.752L827.495 316.258L837.434 312.738L837.416 312.747ZM832.262 316.465L834.1 318.644L836.173 315.034L832.253 316.465H832.262Z" fill="white"/>
<path d="M837.917 322.804L842.675 319.041L843.883 320.562L839.098 324.352C838.143 325.108 837.972 326.243 838.692 327.152C839.413 328.061 840.567 328.169 841.522 327.413L846.307 323.623L847.514 325.144L842.756 328.907C840.828 330.438 838.702 330.123 837.25 328.286C835.8 326.449 835.989 324.325 837.917 322.794V322.804Z" fill="white"/>
<path d="M849.867 331.177L848.237 328.971L849.651 327.926L854.022 333.814L852.606 334.858L850.985 332.68L844.469 337.506L843.352 336.002L849.867 331.177Z" fill="white"/>
<path d="M851.419 338.613C853.717 337.019 856.862 337.578 858.457 339.873C860.061 342.187 859.475 345.329 857.178 346.923C854.879 348.516 851.734 347.957 850.121 345.644C848.527 343.348 849.121 340.206 851.419 338.622V338.613ZM856.078 345.347C857.52 344.348 857.934 342.403 856.916 340.935C855.906 339.477 853.951 339.189 852.5 340.189C851.067 341.178 850.644 343.115 851.653 344.573C852.672 346.049 854.636 346.338 856.069 345.347H856.078Z" fill="white"/>
<path d="M863.212 347.102L864.203 348.659L862.346 353.314L867.411 353.692L868.357 355.186L860.03 360.48L859.03 358.904L864.869 355.195L859.922 354.826L861.671 350.307L855.886 353.98L854.867 352.386L863.193 347.093L863.212 347.102Z" fill="white"/>
<path d="M871.891 361.082L872.846 362.703L866.223 370.905L865.232 369.212L866.457 367.744L864.366 364.189L862.492 364.54L861.501 362.847L871.9 361.074L871.891 361.082ZM866.178 363.873L867.62 366.331L870.278 363.127L866.168 363.873H866.178Z" fill="white"/>
<path d="M875.106 370.247L873.781 367.844L875.322 366.998L878.864 373.426L877.323 374.272L876.016 371.895L868.906 375.803L868.005 374.155L875.115 370.247H875.106Z" fill="white"/>
<path d="M880.533 376.622L881.423 378.333L872.673 382.871L871.782 381.16L880.533 376.622Z" fill="white"/>
<path d="M878.659 383.689C881.185 382.474 884.198 383.5 885.417 386.021C886.644 388.551 885.578 391.567 883.056 392.783C880.533 393.998 877.515 392.972 876.289 390.424C875.073 387.903 876.136 384.905 878.659 383.68V383.689ZM882.228 391.063C883.815 390.298 884.52 388.443 883.746 386.841C882.964 385.247 881.085 384.662 879.497 385.427C877.93 386.183 877.217 388.029 877.983 389.622C878.768 391.243 880.664 391.828 882.228 391.063Z" fill="white"/>
<path d="M888.982 393.889L889.802 395.753L885.386 402.406L891.543 399.705L892.279 401.389L883.247 405.349L882.488 403.621L887.05 396.752L880.694 399.534L879.943 397.842L888.982 393.88V393.889Z" fill="white"/>
<path d="M897.032 409.105L897.707 410.842L885.624 415.568L884.949 413.831L897.032 409.105Z" fill="#EC0000"/>
<path d="M899.462 419.745L900.106 421.564L890.807 424.867L890.163 423.049L899.462 419.745Z" fill="white"/>
<path d="M901.402 425.246L902.031 427.181L896.986 433.375L903.372 431.296L903.94 433.042L894.563 436.103L893.973 434.303L899.186 427.91L892.585 430.062L892.01 428.307L901.394 425.246H901.402Z" fill="white"/>
<path d="M904.07 439.579L903.303 436.95L904.99 436.464L907.037 443.504L905.35 443.99L904.591 441.389L896.809 443.648L896.288 441.847L904.07 439.588V439.579Z" fill="white"/>
<path d="M907.972 446.926L909.628 453.344L907.888 453.794L906.707 449.221L904.568 449.77L905.749 454.344L904.008 454.794L902.828 450.221L900.658 450.778L901.839 455.352L900.075 455.802L898.419 449.383L907.972 446.926Z" fill="white"/>
<path d="M910.502 456.972L910.924 458.845L903.104 460.609L904.108 465.047L902.306 465.453L900.88 459.142L910.502 456.972Z" fill="white"/>
<path d="M912.656 466.712L913.024 468.594L905.158 470.133L906.032 474.598L904.215 474.958L902.966 468.612L912.656 466.712Z" fill="white"/>
<path d="M914.519 476.579L914.842 478.488L905.112 480.154L904.791 478.254L914.519 476.589V476.579Z" fill="white"/>
<path d="M910.587 482.775C913.401 482.37 915.908 484.152 916.329 487.096C916.59 488.941 916 490.454 914.896 491.562L913.554 490.13C914.328 489.445 914.696 488.491 914.535 487.357C914.275 485.557 912.649 484.404 910.855 484.665C909.038 484.926 907.85 486.448 908.118 488.303C908.333 489.788 909.299 490.643 910.633 490.778L910.188 487.672L911.959 487.42L912.695 492.552L911.875 492.668C909.261 493.038 906.723 491.507 906.309 488.581C905.864 485.521 907.873 483.162 910.595 482.766L910.587 482.775Z" fill="white"/>
<path d="M917.303 495.468L918.023 502.058L916.237 502.255L915.723 497.556L913.515 497.799L914.029 502.498L912.25 502.697L911.737 497.997L909.498 498.24L910.012 502.939L908.21 503.138L907.489 496.548L917.303 495.485V495.468Z" fill="white"/>
<path d="M918.383 505.794L918.537 507.828L912.166 512.645L918.866 512.141L919.004 513.969L909.168 514.716L909.022 512.825L915.6 507.856L908.677 508.378L908.532 506.532L918.376 505.785L918.383 505.794Z" fill="white"/>
<path d="M914.289 517.723C917.164 517.606 919.449 519.703 919.564 522.557C919.641 524.448 918.728 526.096 917.279 527.032L916.168 525.403C917.157 524.835 917.755 523.881 917.701 522.648C917.624 520.838 916.145 519.578 914.374 519.65C912.633 519.722 911.253 521.09 911.33 522.882C911.384 524.232 912.173 525.159 913.262 525.6L912.411 527.383C910.724 526.617 909.521 525.043 909.444 522.981C909.314 520.01 911.506 517.84 914.297 517.732L914.289 517.723Z" fill="white"/>
<path d="M919.626 530.39L919.764 537.016L917.962 537.052L917.862 532.326L915.647 532.371L915.739 537.098L913.952 537.134L913.853 532.407L911.606 532.452L911.706 537.179L909.897 537.215L909.759 530.589L919.626 530.382V530.39Z" fill="white"/>
<path d="M536.633 309.109L538.462 308.685L544.319 317.454L542.41 317.895L541.373 316.292L537.354 317.22L537.129 319.119L535.218 319.561L536.633 309.117V309.109ZM537.588 315.383L540.363 314.744L538.093 311.251L537.579 315.392L537.588 315.383Z" fill="white"/>
<path d="M545.176 307.326L547.077 306.993L548.781 316.698L546.879 317.031L545.176 307.317V307.326Z" fill="white"/>
<path d="M556.523 305.634L558.559 305.463L563.425 311.792L562.867 305.103L564.696 304.949L565.516 314.772L563.633 314.934L558.614 308.398L559.19 315.303L557.343 315.456L556.523 305.634Z" fill="white"/>
<path d="M570.822 304.778L572.696 304.751L576.553 314.555L574.598 314.582L573.922 312.8L569.803 312.853L569.182 314.654L567.227 314.681L570.822 304.778ZM570.417 311.107L573.264 311.071L571.795 307.172L570.417 311.107Z" fill="white"/>
<path d="M580.016 306.623L577.277 306.497L577.358 304.742L584.684 305.066L584.603 306.821L581.891 306.704L581.53 314.798L579.656 314.717L580.016 306.623Z" fill="white"/>
<path d="M588.285 305.398L590.205 305.588L589.259 315.392L587.339 315.202L588.285 305.398Z" fill="white"/>
<path d="M593.251 305.849L595.243 306.155L596.765 313.789L600.514 306.956L602.497 307.253L597.324 316.445L595.468 316.166L593.26 305.858L593.251 305.849Z" fill="white"/>
<path d="M604.991 307.767L611.47 309.189L611.083 310.944L606.46 309.936L605.982 312.097L610.605 313.105L610.217 314.861L605.595 313.853L605.118 316.04L609.74 317.049L609.353 318.813L602.874 317.39L604.982 307.757L604.991 307.767Z" fill="white"/>
<path d="M480.355 91.5385C479.697 88.2345 481.706 85.2185 485.005 84.5613C487.177 84.1292 489.258 84.8944 490.601 86.3799L488.916 87.9734C488.078 86.9291 486.862 86.4159 485.446 86.695C483.365 87.1091 482.166 89.0447 482.572 91.0884C482.968 93.087 484.807 94.4374 486.871 94.0233C488.42 93.7172 489.349 92.6279 489.664 91.2864L491.881 91.9617C491.295 94.0503 489.691 95.7248 487.312 96.193C483.897 96.8772 480.977 94.7435 480.337 91.5295L480.355 91.5385Z" fill="white"/>
<path d="M505.596 87.9738L500.983 88.721L501.739 93.3755L499.514 93.7355L497.666 82.329L499.892 81.9689L500.631 86.5603L505.244 85.8131L504.497 81.2216L506.705 80.8616L508.552 92.2681L506.344 92.6282L505.587 87.9738H505.596Z" fill="white"/>
<path d="M518.312 79.2767L520.502 79.0066L526.251 89.945L523.971 90.2241L522.962 88.2255L518.168 88.8106L517.672 90.9893L515.392 91.2684L518.321 79.2587L518.312 79.2767ZM518.654 86.722L521.971 86.3169L519.754 81.9595L518.646 86.722H518.654Z" fill="white"/>
<path d="M532.152 77.7457L536.829 77.3495C539.478 77.1245 541.209 78.7 541.389 80.8967C541.514 82.3461 540.875 83.7235 539.649 84.4707L542.28 88.495L539.784 88.702L537.63 85.227L535.044 85.4431L535.35 89.0712L533.125 89.2603L532.161 77.7457H532.152ZM534.548 79.6092L534.874 83.4084L537.144 83.2194C538.613 83.0934 539.217 82.121 539.126 81.0947C539.027 79.9603 538.244 79.2941 536.819 79.4112L534.54 79.6003L534.548 79.6092Z" fill="white"/>
<path d="M548.824 76.4952L551.076 76.3872L551.536 85.7682L556.871 85.5071L556.979 87.6767L549.391 88.0458L548.833 76.5042L548.824 76.4952Z" fill="white"/>
<path d="M563.098 81.6803C563.061 78.4033 565.657 75.7114 568.936 75.6754C572.235 75.6394 574.911 78.2682 574.947 81.5452C574.983 84.8222 572.388 87.5141 569.071 87.5501C565.792 87.5861 563.134 84.9573 563.098 81.6803ZM572.695 81.5632C572.667 79.5016 571.054 77.8271 568.955 77.8541C566.882 77.8811 565.314 79.5916 565.341 81.6442C565.368 83.6879 566.972 85.3624 569.045 85.3354C571.154 85.3084 572.722 83.5979 572.695 81.5542V81.5632Z" fill="white"/>
<path d="M584.591 77.9794L581.374 77.8983L581.428 75.8367L590.034 76.0618L589.98 78.1234L586.799 78.0424L586.555 87.5404L584.356 87.4863L584.6 77.9884L584.591 77.9794Z" fill="white"/>
<path d="M600.485 78.6379L597.276 78.4398L597.403 76.3872L605.99 76.9184L605.865 78.971L602.684 78.7729L602.097 88.2529L599.898 88.1179L600.485 78.6379Z" fill="white"/>
<path d="M613.778 77.5479L621.519 78.3041L621.311 80.4018L615.797 79.8616L615.544 82.4454L621.059 82.9856L620.852 85.0832L615.337 84.543L615.076 87.1629L620.591 87.703L620.384 89.8097L612.643 89.0534L613.769 77.5569L613.778 77.5479Z" fill="white"/>
<path d="M642.693 81.0949L644.865 81.437L647.379 93.5278L645.108 93.1676L644.685 90.971L639.908 90.2148L638.827 92.1774L636.556 91.8172L642.684 81.0859L642.693 81.0949ZM640.972 88.3422L644.27 88.8643L643.341 84.0748L640.962 88.3422H640.972Z" fill="white"/>
<path d="M656.469 83.4541L658.695 83.8772L656.532 95.2297L654.306 94.8066L656.469 83.4541Z" fill="white"/>
<path d="M408.877 317.941L413.04 315.024L413.869 316.212L410.968 318.247L412.022 319.741L414.924 317.706L415.743 318.877L412.842 320.912L414.671 323.523L413.419 324.404L408.886 317.95L408.877 317.941Z" fill="white"/>
<path d="M418.608 315.932C417.374 314.06 417.878 311.557 419.744 310.333C421.627 309.1 424.132 309.622 425.367 311.485C426.602 313.358 426.097 315.86 424.213 317.103C422.339 318.337 419.843 317.805 418.608 315.932ZM424.088 312.332C423.313 311.161 421.762 310.792 420.572 311.575C419.393 312.349 419.122 313.916 419.897 315.086C420.663 316.248 422.204 316.626 423.393 315.843C424.592 315.05 424.862 313.493 424.096 312.323L424.088 312.332Z" fill="white"/>
<path d="M428.944 310.333L426.429 306.174L427.763 305.373L430.286 309.559C430.791 310.397 431.674 310.64 432.467 310.162C433.26 309.685 433.467 308.776 432.963 307.947L430.44 303.762L431.773 302.96L434.288 307.119C435.306 308.803 434.837 310.46 433.233 311.432C431.629 312.395 429.953 312.035 428.935 310.342L428.944 310.333Z" fill="white"/>
<path d="M435.363 300.882L436.796 300.089L442.428 303.114L439.823 298.415L441.112 297.703L444.942 304.609L443.617 305.338L437.805 302.214L440.49 307.067L439.192 307.787L435.363 300.882Z" fill="white"/>
<path d="M444.778 295.776L447.058 294.633C449.302 293.507 451.5 294.299 452.51 296.298C453.519 298.306 452.745 300.592 450.636 301.655L448.329 302.816L444.778 295.776ZM446.788 296.352L449.059 300.853L449.906 300.421C451.329 299.701 451.762 298.252 451.122 296.992C450.474 295.695 449.131 295.164 447.59 295.938L446.779 296.343L446.788 296.352Z" fill="white"/>
<path d="M454.293 291.076L457.204 289.744C458.853 288.988 460.322 289.591 460.952 290.959C461.367 291.86 461.277 292.886 460.673 293.66L463.295 295.632L461.746 296.343L459.555 294.614L457.942 295.353L458.979 297.613L457.591 298.252L454.293 291.086V291.076ZM456.266 291.716L457.357 294.083L458.772 293.435C459.691 293.012 459.844 292.256 459.555 291.616C459.231 290.915 458.573 290.671 457.69 291.076L456.276 291.724L456.266 291.716Z" fill="white"/>
<path d="M466.968 290.437L462.732 287.268L464.273 286.62L467.13 288.825L467.572 285.252L469.103 284.613L468.391 289.888L469.662 292.931L468.247 293.525L466.968 290.455V290.437Z" fill="white"/>
<path d="M478.365 281.083L479.771 280.579L483.276 290.338L481.871 290.843L478.365 281.083Z" fill="white"/>
<path d="M489.709 277.247L494.567 275.771L494.99 277.158L491.593 278.184L492.125 279.931L495.513 278.904L495.928 280.264L492.539 281.29L493.467 284.341L491.998 284.792L489.701 277.247H489.709Z" fill="white"/>
<path d="M499.721 279.337L498.469 274.647L499.974 274.241L501.226 278.959C501.479 279.895 502.254 280.382 503.155 280.147C504.056 279.905 504.498 279.094 504.246 278.158L502.993 273.44L504.498 273.044L505.75 277.735C506.255 279.634 505.345 281.093 503.543 281.579C501.731 282.056 500.226 281.237 499.721 279.337Z" fill="white"/>
<path d="M509.344 278.409L510.407 277.087C511.092 277.771 511.876 278.023 512.795 277.816C513.624 277.627 513.967 277.131 513.84 276.574C513.679 275.862 512.904 275.88 511.786 275.88C510.578 275.898 509.209 275.826 508.857 274.268C508.569 273.008 509.47 271.739 511.065 271.37C512.426 271.063 513.39 271.342 514.363 272.027L513.372 273.251C512.841 272.756 512.236 272.504 511.353 272.702C510.525 272.891 510.254 273.387 510.371 273.89C510.515 274.512 511.308 274.449 512.318 274.457C513.552 274.44 515.003 274.512 515.381 276.177C515.679 277.491 514.822 278.842 513.11 279.229C511.452 279.607 510.299 279.184 509.353 278.419L509.344 278.409Z" fill="white"/>
<path d="M518.354 269.92L519.868 269.623L521.4 277.366L519.886 277.663L518.354 269.929V269.92Z" fill="white"/>
<path d="M524.659 272.712C524.298 270.506 525.776 268.426 527.984 268.057C530.2 267.688 532.282 269.192 532.643 271.397C533.003 273.603 531.525 275.683 529.299 276.051C527.091 276.412 525.019 274.908 524.659 272.703V272.712ZM531.129 271.649C530.903 270.263 529.633 269.3 528.227 269.525C526.83 269.75 525.947 271.073 526.172 272.46C526.398 273.837 527.65 274.8 529.047 274.575C530.471 274.341 531.345 273.027 531.119 271.649H531.129Z" fill="white"/>
<path d="M535.793 266.976L537.415 266.778L541.507 271.685L540.849 266.355L542.309 266.175L543.273 274.007L541.768 274.187L537.551 269.119L538.226 274.62L536.757 274.8L535.793 266.967V266.976Z" fill="white"/>
<path d="M552.654 265.229L554.14 265.121L554.889 275.466L553.402 275.574L552.654 265.229Z" fill="white"/>
<path d="M564.329 268.534C564.283 266.265 565.95 264.456 568.329 264.411C569.826 264.383 570.969 264.996 571.735 265.986L570.465 266.904C569.996 266.22 569.276 265.833 568.357 265.85C566.897 265.878 565.824 267.057 565.851 268.507C565.878 269.974 566.969 271.063 568.474 271.037C569.672 271.009 570.447 270.325 570.69 269.29L568.185 269.335L568.158 267.912L572.313 267.831V268.488C572.366 270.595 570.897 272.459 568.528 272.504C566.05 272.549 564.373 270.721 564.329 268.534Z" fill="white"/>
<path d="M576.181 264.474L581.489 264.573L581.462 266.004L577.677 265.932L577.641 267.706L581.426 267.778L581.399 269.218L577.614 269.146L577.578 270.938L581.363 271.01L581.335 272.46L576.028 272.36L576.181 264.483V264.474Z" fill="white"/>
<path d="M585.619 264.716L587.25 264.806L590.413 270.352L590.71 264.995L592.179 265.076L591.747 272.944L590.233 272.863L586.971 267.138L586.664 272.675L585.187 272.594L585.619 264.725V264.716Z" fill="white"/>
<path d="M596.407 265.392L601.697 265.87L601.57 267.301L597.804 266.959L597.641 268.724L601.409 269.066L601.282 270.497L597.515 270.155L597.353 271.937L601.119 272.28L600.985 273.72L595.695 273.242L596.407 265.383V265.392Z" fill="white"/>
<path d="M605.841 266.309L609.022 266.705C610.825 266.93 611.753 268.227 611.564 269.712C611.437 270.703 610.825 271.522 609.896 271.855L611.086 274.916L609.392 274.7L608.446 272.08L606.689 271.855L606.382 274.322L604.868 274.133L605.851 266.309H605.841ZM607.184 267.894L606.859 270.478L608.41 270.667C609.409 270.793 609.951 270.226 610.031 269.532C610.131 268.758 609.698 268.209 608.734 268.083L607.193 267.894H607.184Z" fill="white"/>
<path d="M618.241 268.048L619.727 268.291L621.395 276.555L619.845 276.303L619.566 274.8L616.312 274.269L615.564 275.601L614.014 275.349L618.241 268.048ZM617.033 272.981L619.286 273.35L618.673 270.073L617.033 272.981Z" fill="white"/>
<path d="M626.838 270.991L624.685 270.568L624.955 269.191L630.714 270.325L630.443 271.702L628.307 271.279L627.054 277.635L625.577 277.347L626.83 270.991H626.838Z" fill="white"/>
<path d="M635.004 271.252L636.509 271.594L634.769 279.292L633.264 278.949L635.004 271.252Z" fill="white"/>
<path d="M640.41 272.487L641.969 272.891L642.554 279.094L646.096 273.953L647.646 274.359L642.78 281.255L641.32 280.877L640.401 272.487H640.41Z" fill="white"/>
<path d="M651.195 275.359L656.287 276.861L655.881 278.239L652.249 277.168L651.745 278.87L655.377 279.94L654.971 281.318L651.339 280.247L650.826 281.966L654.457 283.038L654.043 284.424L648.951 282.921L651.195 275.359Z" fill="white"/>
<path d="M665.314 279.76L666.783 280.3L666.251 285.953L669.685 281.362L671.063 281.866L670.703 287.592L673.992 282.938L675.434 283.468L670.604 290.104L669.189 289.59L669.558 283.802L666.089 288.456L664.647 287.925L665.296 279.76H665.314Z" fill="white"/>
<path d="M676.581 288.177C677.446 286.115 679.798 285.125 681.862 285.981C683.935 286.845 684.908 289.213 684.043 291.274C683.186 293.336 680.825 294.326 678.744 293.462C676.68 292.598 675.716 290.239 676.581 288.177ZM682.628 290.698C683.168 289.402 682.601 287.916 681.285 287.367C679.978 286.827 678.537 287.475 677.996 288.772C677.464 290.059 678.014 291.544 679.32 292.084C680.645 292.634 682.096 291.986 682.628 290.698Z" fill="white"/>
<path d="M689.088 289.212L691.999 290.554C693.648 291.319 694.144 292.832 693.513 294.191C693.099 295.091 692.261 295.694 691.279 295.73L691.476 299.008L689.926 298.288L689.818 295.496L688.205 294.749L687.16 297.009L685.772 296.37L689.088 289.204V289.212ZM689.882 291.121L688.791 293.489L690.206 294.146C691.116 294.569 691.801 294.191 692.098 293.561C692.423 292.849 692.18 292.192 691.296 291.787L689.882 291.13V291.121Z" fill="white"/>
<path d="M698.911 298.333L697.1 299.134L696.027 301.249L694.658 300.556L698.226 293.517L699.596 294.21L697.938 297.477L702.237 295.551L703.858 296.37L700.38 297.901V303.446L698.866 302.681L698.911 298.333Z" fill="white"/>
<path d="M707.208 298.161L711.66 300.61L710.957 301.879L707.849 300.169L706.965 301.771L710.074 303.482L709.39 304.733L706.28 303.023L704.739 305.814L703.396 305.075L707.208 298.17V298.161Z" fill="white"/>
<path d="M715.319 302.718L716.635 303.501L713.346 309.002L716.473 310.866L715.715 312.135L711.264 309.488L715.31 302.709L715.319 302.718Z" fill="white"/>
<path d="M720.377 310.343C721.584 308.461 724.08 307.912 725.963 309.127C727.856 310.343 728.388 312.845 727.171 314.727C725.955 316.609 723.468 317.158 721.566 315.933C719.683 314.718 719.16 312.224 720.377 310.343ZM725.874 313.899C726.64 312.719 726.342 311.153 725.144 310.388C723.954 309.622 722.422 310.009 721.656 311.189C720.9 312.359 721.179 313.916 722.368 314.682C723.576 315.465 725.108 315.078 725.864 313.907L725.874 313.899Z" fill="white"/>
<path d="M731.667 312.971L732.946 313.88L730.955 319.192L735.469 315.663L736.668 316.509L734.821 321.938L739.209 318.31L740.462 319.201L734.064 324.341L732.838 323.477L734.722 317.986L730.152 321.569L728.9 320.677L731.676 312.971H731.667Z" fill="white"/>
<mask id="mask1_4006_20455" style="mask-type:alpha" maskUnits="userSpaceOnUse" x="113" y="56" width="920" height="595">
<path d="M1033 56.6882H113V650.284H1033V56.6882Z" fill="#D9D9D9"/>
</mask>
<g mask="url(#mask1_4006_20455)">
<path d="M1024.62 512.005C1024.62 262.405 822.086 60.064 572.246 60.064C322.405 60.064 119.87 262.405 119.87 512.005C119.87 554.577 125.762 595.775 136.776 634.829H134.903C123.934 595.765 118.067 554.57 118.067 512.005C118.067 261.41 321.41 58.2634 572.246 58.2634C823.081 58.2634 1026.42 261.41 1026.42 512.005C1026.42 554.57 1020.56 595.765 1009.59 634.829H1007.72C1018.73 595.775 1024.62 554.577 1024.62 512.005Z" fill="url(#paint2_linear_4006_20455)"/>
<path d="M282.566 626.157C272.618 595.993 267.235 563.756 267.235 530.264C267.235 361.162 404.451 224.078 573.715 224.078C742.98 224.078 880.196 361.162 880.196 530.264C880.196 563.756 874.813 595.993 864.864 626.157" stroke="url(#paint3_linear_4006_20455)" stroke-width="4.72" stroke-miterlimit="10"/>
<path d="M401.446 635.731C383.085 605.411 372.517 569.853 372.517 531.829C372.517 420.817 462.597 330.824 573.717 330.824C684.836 330.824 774.915 420.817 774.915 531.829C774.915 569.853 764.347 605.411 745.986 635.731" stroke="url(#paint4_linear_4006_20455)" stroke-width="1.57" stroke-miterlimit="10"/>
<path d="M349.143 631.135C335.938 601.058 328.61 567.821 328.61 532.874C328.61 397.638 438.347 288.006 573.713 288.006C709.08 288.006 818.817 397.638 818.817 532.874C818.817 567.821 811.488 601.058 798.284 631.135" stroke="url(#paint5_linear_4006_20455)" stroke-width="1.85" stroke-miterlimit="10"/>
<path d="M979.97 628.455C988.38 595.366 992.857 560.703 992.857 524.997C992.857 293.734 805.2 106.258 573.715 106.258C342.229 106.258 154.574 293.734 154.574 524.997C154.574 560.703 159.047 595.366 167.464 628.455" stroke="url(#paint6_linear_4006_20455)" stroke-width="3.15" stroke-miterlimit="10"/>
<path d="M924.624 622.327C933.218 591.348 937.811 558.707 937.811 524.996C937.811 324.108 774.799 161.256 573.718 161.256C372.636 161.256 209.627 324.108 209.627 524.996C209.627 558.707 214.218 591.348 222.808 622.327" stroke="url(#paint7_linear_4006_20455)" stroke-width="3.15" stroke-miterlimit="10"/>
</g>
</g>
</g>
<defs>
<linearGradient id="paint0_linear_4006_20455" x1="573.767" y1="447.39" x2="573.767" y2="622.022" gradientUnits="userSpaceOnUse">
<stop stop-color="#A61616"/>
<stop offset="1" stop-color="#630707"/>
</linearGradient>
<linearGradient id="paint1_linear_4006_20455" x1="573.767" y1="397.605" x2="573.767" y2="671.808" gradientUnits="userSpaceOnUse">
<stop offset="0.449318" stop-opacity="0"/>
<stop offset="0.795" stop-color="#0F0F0F"/>
</linearGradient>
<linearGradient id="paint2_linear_4006_20455" x1="572.246" y1="58.2634" x2="572.246" y2="634.828" gradientUnits="userSpaceOnUse">
<stop offset="0.764913" stop-color="#FF0000"/>
<stop offset="1" stop-color="#990000" stop-opacity="0"/>
</linearGradient>
<linearGradient id="paint3_linear_4006_20455" x1="573.715" y1="224.078" x2="573.715" y2="836.452" gradientUnits="userSpaceOnUse">
<stop offset="0.45" stop-color="#FF0000"/>
<stop offset="0.67" stop-color="#990000" stop-opacity="0"/>
</linearGradient>
<linearGradient id="paint4_linear_4006_20455" x1="573.716" y1="330.824" x2="573.716" y2="732.835" gradientUnits="userSpaceOnUse">
<stop offset="0.45" stop-color="#FF0000"/>
<stop offset="0.76" stop-color="#990000" stop-opacity="0"/>
</linearGradient>
<linearGradient id="paint5_linear_4006_20455" x1="573.713" y1="288.006" x2="573.713" y2="777.741" gradientUnits="userSpaceOnUse">
<stop offset="0.45" stop-color="#FF0000"/>
<stop offset="0.71" stop-color="#990000" stop-opacity="0"/>
</linearGradient>
<linearGradient id="paint6_linear_4006_20455" x1="573.715" y1="106.258" x2="573.715" y2="628.455" gradientUnits="userSpaceOnUse">
<stop offset="0.780153" stop-color="#FF0000"/>
<stop offset="1" stop-color="#990000" stop-opacity="0"/>
</linearGradient>
<linearGradient id="paint7_linear_4006_20455" x1="573.718" y1="161.256" x2="573.718" y2="888.734" gradientUnits="userSpaceOnUse">
<stop offset="0.47" stop-color="#FF0000"/>
<stop offset="0.648725" stop-color="#990000" stop-opacity="0"/>
</linearGradient>
<clipPath id="clip0_4006_20455">
<rect width="1146" height="620" rx="23" fill="white"/>
</clipPath>
<clipPath id="clip1_4006_20455">
<rect width="920" height="589" fill="white" transform="translate(113 56)"/>
</clipPath>
</defs>
</svg>
