<svg width="139" height="32" viewBox="0 0 139 32" fill="none" xmlns="http://www.w3.org/2000/svg">
<mask id="mask0_4004_19912" style="mask-type:luminance" maskUnits="userSpaceOnUse" x="0" y="0" width="139" height="32">
<path d="M138.33 0H0.669434V31.1634H138.33V0Z" fill="white"/>
</mask>
<g mask="url(#mask0_4004_19912)">
<path d="M39.6898 12.8039C38.7172 12.152 36.1621 11.8738 34.3047 12.3722C34.205 10.5304 33.2503 8.97817 31.5048 7.6237L30.8592 7.19223L30.4286 7.83986C29.5821 9.11841 29.2254 10.8228 29.3515 12.3722C29.4512 13.3269 29.7843 14.3995 30.4286 15.178C28.0109 16.5741 25.7818 16.2571 15.9118 16.2571H0.673294C0.629071 18.4759 0.987082 22.743 3.71323 26.2169C4.01463 26.6011 4.34434 26.9719 4.70292 27.3294C6.91949 29.5389 10.2684 31.1591 15.2761 31.1634C22.9159 31.1705 29.4611 27.0595 33.4432 17.1209C34.7532 17.1418 38.2118 17.3546 39.9045 14.0989C39.9459 14.0442 40.3351 13.2359 40.3351 13.2359L39.6898 12.8045V12.8039ZM10.6183 10.7752H6.33333V15.0406H10.6183V10.7752ZM16.1538 10.7752H11.8688V15.0406H16.1538V10.7752ZM21.6898 10.7752H17.4048V15.0406H21.6898V10.7752ZM27.2258 10.7752H22.9409V15.0406H27.2258V10.7752ZM5.08226 10.7752H0.797155V15.0406H5.08226V10.7752ZM10.6183 5.38787H6.33333V9.65329H10.6183V5.38787ZM16.1538 5.38787H11.8688V9.65329H16.1538V5.38787ZM21.6898 5.38787H17.4048V9.65329H21.6898V5.38787ZM21.6898 0H17.4048V4.26542H21.6898V0Z" fill="#31373D"/>
<path d="M138.065 24.6176C138.065 25.7296 137.188 26.6028 136.047 26.6028C134.906 26.6028 134.017 25.7296 134.017 24.6176C134.017 23.5057 134.918 22.6566 136.047 22.6566C137.176 22.6566 138.065 23.5298 138.065 24.6176ZM134.522 24.6176C134.522 25.4908 135.171 26.184 136.059 26.184C136.948 26.184 137.561 25.4908 137.561 24.6298C137.561 23.7691 136.924 23.0513 136.048 23.0513C135.172 23.0513 134.522 23.757 134.522 24.6176H134.522ZM135.735 25.6463H135.279V23.6853C135.458 23.6496 135.711 23.6255 136.035 23.6255C136.408 23.6255 136.575 23.6853 136.72 23.7691C136.828 23.8527 136.912 24.0083 136.912 24.1995C136.912 24.4151 136.744 24.5825 136.505 24.6539V24.678C136.696 24.7491 136.804 24.893 136.864 25.1559C136.924 25.4548 136.96 25.5746 137.009 25.6463H136.516C136.456 25.5746 136.42 25.3956 136.36 25.1678C136.324 24.9528 136.204 24.857 135.951 24.857H135.735V25.6469V25.6463ZM135.747 24.5343H135.963C136.215 24.5343 136.419 24.4508 136.419 24.2476C136.419 24.068 136.288 23.9476 135.999 23.9476C135.879 23.9476 135.794 23.9601 135.747 23.9728V24.5343Z" fill="#31373D"/>
<path d="M60.6638 4.77202C60.381 4.4975 60.0419 4.35754 59.6357 4.35754C59.2291 4.35754 58.8801 4.4975 58.6081 4.77202C58.3356 5.04682 58.2024 5.39925 58.2024 5.81911V12.8292C56.8046 11.679 55.1912 11.0988 53.3565 11.0988C51.2235 11.0988 49.3999 11.8657 47.8888 13.4046C46.3776 14.9381 45.6274 16.7932 45.6274 18.9692C45.6274 21.145 46.383 22.995 47.8888 24.5339C49.3999 26.0674 51.219 26.8394 53.3565 26.8394C55.4938 26.8394 57.2928 26.0725 58.824 24.5339C60.3351 23.0156 61.0853 21.1608 61.0853 18.9692V5.81911C61.0853 5.39925 60.9468 5.04682 60.6638 4.77202ZM57.822 20.8656V20.8761C57.5701 21.4719 57.2256 21.9952 56.789 22.4408C56.3527 22.8915 55.8383 23.244 55.2527 23.508C54.6617 23.7723 54.0348 23.9021 53.3616 23.9021C52.6888 23.9021 52.0465 23.7723 51.4553 23.508C50.8643 23.244 50.3555 22.8915 49.9243 22.4459C49.4926 22.0003 49.1486 21.4773 48.8968 20.8812C48.6449 20.2801 48.5163 19.6432 48.5163 18.9692C48.5163 18.2952 48.6449 17.6581 48.8968 17.0569C49.1486 16.4557 49.4931 15.9379 49.9243 15.4922C50.3561 15.0466 50.8697 14.6944 51.4553 14.4301C52.0465 14.1661 52.6786 14.0363 53.3616 14.0363C54.0447 14.0363 54.6617 14.1661 55.2527 14.4301C55.8436 14.6944 56.3527 15.0466 56.789 15.4976C57.2256 15.9483 57.5701 16.4716 57.822 17.0623C58.0738 17.6581 58.2024 18.2904 58.2024 18.9638C58.2024 19.6372 58.0738 20.275 57.822 20.8656Z" fill="#31373D"/>
<path d="M124.518 15.9483C124.143 15.0154 123.571 14.1711 122.822 13.4144L122.812 13.409C121.285 11.8755 119.46 11.1035 117.344 11.1035C115.228 11.1035 113.387 11.8701 111.876 13.409C110.365 14.9426 109.615 16.7979 109.615 18.9737C109.615 21.1495 110.371 22.9994 111.876 24.5383C113.387 26.0719 115.207 26.8439 117.344 26.8439C119.286 26.8439 120.966 26.207 122.395 24.9324C122.672 24.6423 122.812 24.2902 122.812 23.8802C122.812 23.4706 122.678 23.1082 122.405 22.8334C122.134 22.5586 121.789 22.4189 121.378 22.4189C121.019 22.4294 120.699 22.5487 120.428 22.787C119.996 23.1598 119.528 23.4451 119.02 23.6318C118.511 23.8185 117.956 23.912 117.35 23.912C116.815 23.912 116.301 23.8292 115.814 23.6584C115.325 23.4876 114.868 23.2538 114.462 22.9484C114.05 22.6425 113.696 22.2804 113.393 21.8501C113.09 21.4248 112.858 20.9534 112.705 20.4355H123.635C124.04 20.4355 124.38 20.2959 124.663 20.0211C124.946 19.7463 125.084 19.3941 125.084 18.9743C125.084 17.8864 124.893 16.8761 124.519 15.9483H124.518ZM112.693 17.513C112.843 16.9999 113.068 16.5285 113.372 16.0987C113.676 15.6735 114.035 15.306 114.446 15.0001C114.862 14.6944 115.314 14.4612 115.812 14.2904C116.31 14.1196 116.819 14.0366 117.344 14.0366C117.87 14.0366 118.377 14.1196 118.869 14.2904C119.363 14.4612 119.816 14.6944 120.221 15.0001C120.633 15.306 120.992 15.6684 121.295 16.0987C121.603 16.5237 121.836 16.9951 121.995 17.513H112.693H112.693Z" fill="#31373D"/>
<path d="M137.951 12.0881C137.694 11.8346 137.37 11.6374 136.979 11.4924C136.589 11.3473 136.162 11.2487 135.695 11.1918C135.232 11.1348 134.795 11.1088 134.39 11.1088C133.469 11.1088 132.606 11.2592 131.795 11.5598C130.983 11.8604 130.232 12.2901 129.543 12.8497V12.5703C129.543 12.1663 129.405 11.8241 129.122 11.5391C128.84 11.2544 128.505 11.1093 128.11 11.1093C127.715 11.1093 127.365 11.2544 127.083 11.5391C126.8 11.8241 126.661 12.1714 126.661 12.5703V25.3839C126.661 25.7879 126.8 26.1301 127.083 26.4148C127.365 26.6998 127.704 26.8446 128.11 26.8446C128.516 26.8446 128.845 26.6998 129.122 26.4148C129.405 26.1301 129.543 25.7825 129.543 25.3839V18.9744C129.543 18.2905 129.672 17.6483 129.924 17.0471C130.176 16.4456 130.52 15.928 130.957 15.4824C131.394 15.0368 131.908 14.6843 132.493 14.4302C133.084 14.1713 133.712 14.0415 134.385 14.0415C135.059 14.0415 135.695 14.1608 136.276 14.3937C136.507 14.4976 136.708 14.5495 136.883 14.5495C137.083 14.5495 137.273 14.5129 137.448 14.4356C137.622 14.358 137.777 14.254 137.905 14.1197C138.034 13.9851 138.136 13.8296 138.213 13.648C138.29 13.4721 138.332 13.28 138.332 13.0729C138.332 12.6689 138.203 12.3426 137.947 12.0881H137.951H137.951Z" fill="#31373D"/>
<path d="M77.6106 15.9537C77.2355 15.0262 76.6751 14.1766 75.9201 13.4099C74.3942 11.8761 72.5701 11.1041 70.4526 11.1041C68.3349 11.1041 66.496 11.871 64.9849 13.4099C63.4737 14.9435 62.7241 16.7985 62.7241 18.9746C62.7241 21.1503 63.4797 23.0003 64.9849 24.5392C66.496 26.0727 68.3151 26.8448 70.4526 26.8448C72.5902 26.8448 74.3889 26.0778 75.9201 24.5392C77.4313 23.0207 78.1814 21.1662 78.1814 18.9746C78.171 17.8864 77.9809 16.8815 77.6111 15.9537H77.6106ZM74.9181 20.8656V20.8761C74.6662 21.4722 74.3217 21.9952 73.8851 22.4408C73.4489 22.8918 72.9344 23.244 72.3488 23.5083C71.7632 23.7723 71.1309 23.9021 70.4577 23.9021C69.7849 23.9021 69.1426 23.7723 68.5517 23.5083C67.9604 23.244 67.4516 22.8918 67.0204 22.4462C66.5887 22.0005 66.2447 21.4773 65.9929 20.8815C65.741 20.2803 65.6124 19.6432 65.6124 18.9692C65.6124 18.2952 65.741 17.6581 65.9929 17.0569C66.2447 16.4557 66.5892 15.9379 67.0204 15.4922C67.4522 15.0466 67.9658 14.6944 68.5517 14.4301C69.1426 14.1661 69.7747 14.0363 70.4577 14.0363C71.1408 14.0363 71.7578 14.1661 72.3488 14.4301C72.9398 14.6944 73.4489 15.0466 73.8851 15.4976C74.3217 15.9486 74.6662 16.4716 74.9181 17.0623C75.1699 17.6581 75.2985 18.2904 75.2985 18.9638C75.2985 19.6372 75.1699 20.2749 74.9181 20.8656Z" fill="#31373D"/>
<path d="M108.525 12.5649C108.525 12.3682 108.484 12.1816 108.407 12.0053C108.33 11.8291 108.227 11.6691 108.099 11.5339C107.97 11.3994 107.816 11.2903 107.642 11.218C107.467 11.1458 107.277 11.1042 107.077 11.1042C106.789 11.1042 106.532 11.177 106.306 11.3274L98.053 16.794V5.8296C98.053 5.41513 97.9145 5.06808 97.6318 4.7828C97.3493 4.49808 97.0156 4.35303 96.6198 4.35303C96.224 4.35303 95.8747 4.49808 95.5917 4.7828C95.3092 5.06752 95.1704 5.41513 95.1704 5.8296V25.3634C95.1704 25.7674 95.3092 26.115 95.5917 26.4048C95.8741 26.6949 96.2132 26.84 96.6198 26.84C97.026 26.84 97.3547 26.6949 97.6318 26.4048C97.9145 26.115 98.053 25.7674 98.053 25.3634V20.2908L99.7387 19.1664L106.116 26.4566C106.373 26.7102 106.697 26.8346 107.082 26.8346C107.282 26.8346 107.472 26.7983 107.647 26.7207C107.822 26.6479 107.976 26.5394 108.104 26.4048C108.233 26.2705 108.335 26.115 108.413 25.9334C108.49 25.7575 108.53 25.5654 108.53 25.3739C108.53 24.9906 108.397 24.6483 108.13 24.3483L102.194 17.5453L107.975 13.7216C108.345 13.4678 108.524 13.0793 108.524 12.5555V12.566L108.525 12.5649Z" fill="#31373D"/>
<path d="M84.0911 15.4823C84.5328 15.0366 85.0473 14.6842 85.6383 14.4301C86.2292 14.1712 86.8562 14.0414 87.529 14.0414C88.1356 14.0414 88.6959 14.1454 89.215 14.3522C89.7286 14.5593 90.2224 14.8652 90.6893 15.2639C90.9666 15.4862 91.2805 15.6001 91.6296 15.6001C92.046 15.6001 92.3851 15.4605 92.6577 15.1806C92.9302 14.9004 93.0634 14.5482 93.0634 14.1284C93.0634 13.7085 92.8988 13.3198 92.565 13.0198C91.1465 11.7452 89.4668 11.1078 87.529 11.1078C85.3963 11.1078 83.5727 11.8744 82.0615 13.4133C80.5504 14.9468 79.8008 16.8022 79.8008 18.978C79.8008 21.1537 80.5564 23.0037 82.0615 24.5426C83.5727 26.0761 85.3918 26.8481 87.529 26.8481C89.4614 26.8481 91.1417 26.2113 92.565 24.9358C92.8682 24.6253 93.0228 24.2678 93.0228 23.8533C93.0228 23.4389 92.8888 23.0813 92.6169 22.8065C92.3443 22.5317 92.0007 22.3921 91.5893 22.3921C91.2403 22.4025 90.9366 22.5059 90.6799 22.7026C90.2176 23.1065 89.7345 23.4071 89.2155 23.6091C88.7016 23.8111 88.1415 23.9097 87.5299 23.9097C86.8567 23.9097 86.2298 23.78 85.6388 23.521C85.0479 23.2621 84.5339 22.9099 84.0917 22.4694C83.65 22.0291 83.3002 21.5008 83.0483 20.9047C82.7964 20.3035 82.6678 19.6613 82.6678 18.9774C82.6678 18.2932 82.7964 17.651 83.0483 17.0498C83.3002 16.4486 83.6492 15.9307 84.0917 15.4851V15.48L84.0911 15.4823Z" fill="#31373D"/>
</g>
</svg>
