<svg width="192" height="22" viewBox="0 0 192 22" fill="none" xmlns="http://www.w3.org/2000/svg">
<path d="M110.241 4.74024V0.0567164H115.513V21.9432H110.241V4.74024ZM86.9856 0.0567164H107.346V4.75665H97.8037V21.9432H92.5323V4.75665H86.9816V0.0567164H86.9856ZM192 0.0567164V4.75665H182.457V21.9432H177.186V4.75665H171.635V0.0567164H191.996H192ZM0 0.0567164H22.8304V4.75665H5.27136V9.43607H20.2474V14.136H5.27136V21.9391H0V0.0526123V0.0567164ZM147.493 0.0567164H168.744V4.75665H152.764V8.64796H165.878V13.3479H152.764V17.2392H169.032V21.9391H147.493V0.0526123V0.0567164ZM143.42 6.24257V21.9432H138.149V6.24257C138.149 5.42162 137.493 4.76076 136.687 4.76076H124.857V21.9432H119.586V0.0567164H137.319C140.687 0.0567164 143.42 2.82742 143.42 6.24257ZM78.8721 0.0567164H60.8474V21.9432H66.1188V14.1319H77.9814C78.617 14.1524 79.1272 14.6819 79.1272 15.3346V21.9473H84.3985V15.2771C84.3985 14.1073 83.7669 13.0893 82.8277 12.5516C83.9694 11.4761 84.686 9.94095 84.686 8.23748V5.95524C84.686 2.70018 82.0827 0.0649261 78.8762 0.0649261L78.8721 0.0567164ZM79.4146 8.22106C79.4146 8.89014 78.8802 9.43197 78.2203 9.43197H66.1188V4.75665L78.2203 4.74434C78.8802 4.74434 79.4146 5.28617 79.4146 5.95524V8.22928V8.22106Z" fill="#31373D"/>
<path d="M57.2634 8.16101V13.8431H48.4817V8.16101H57.2634ZM37.2936 21.9473H46.0752V16.2653H37.2936V21.9432V21.9473ZM57.2593 4.81501C57.2593 2.18748 55.1424 0.0526123 52.5279 0.0526123H48.4776V5.73465H57.2552V4.81501H57.2593ZM37.2936 0.0567187V5.73876H46.0752V0.0567187H37.2936ZM26.1055 8.16101V13.8431H34.8871V8.16101H26.1055ZM48.4817 21.9473H52.532C55.1424 21.9473 57.2634 19.8166 57.2634 17.1849V16.2653H48.4858V21.9473H48.4817ZM26.1055 17.1849C26.1055 19.8125 28.2224 21.9473 30.8369 21.9473H34.8871V16.2694H26.1055V17.1891V17.1849ZM26.1055 4.81501V5.73465H34.8871V0.0526123H30.8369C28.2264 0.0526123 26.1055 2.18338 26.1055 4.81501Z" fill="#31373D"/>
</svg>
