<svg width="156" height="34" viewBox="0 0 156 34" fill="none" xmlns="http://www.w3.org/2000/svg">
<path d="M34.7217 13.2655L34.6748 13.1404L29.9382 0.785026C29.8423 0.542425 29.6717 0.336626 29.4511 0.197419C29.2865 0.0920454 29.0995 0.0267006 28.9051 0.00662085C28.7107 -0.0134589 28.5143 0.0122861 28.3316 0.0817917C28.1489 0.151297 27.9851 0.262631 27.8532 0.406868C27.7213 0.551105 27.6251 0.724234 27.5721 0.912378L24.3749 10.7006H11.4275L8.23029 0.912378C8.17695 0.724515 8.08046 0.551712 7.94851 0.407751C7.81656 0.26379 7.65279 0.152654 7.47027 0.0832048C7.28775 0.0137559 7.09152 -0.0120842 6.89725 0.00774588C6.70297 0.027576 6.51601 0.0925267 6.35129 0.197419C6.13068 0.336626 5.96009 0.542425 5.86422 0.785026L1.12986 13.1426L1.08071 13.2655C0.399099 15.0469 0.315127 17.0016 0.841452 18.8348C1.36778 20.6681 2.47586 22.2806 3.99863 23.4291L4.01651 23.4425L4.05672 23.4738L11.2622 28.8739L14.8369 31.5751L17.0086 33.2173C17.2634 33.4098 17.5741 33.5139 17.8934 33.5139C18.2127 33.5139 18.5233 33.4098 18.7781 33.2173L20.9498 31.5751L24.5246 28.8739L31.7814 23.4425L31.8015 23.4268C33.3242 22.2788 34.4325 20.6668 34.9592 18.834C35.4859 17.0012 35.4025 15.0468 34.7217 13.2655Z" fill="#31373D"/>
<path d="M63.079 12.6264H68.1686C67.3196 7.21509 62.6344 3.44592 56.5371 3.44592C49.3228 3.44592 43.9092 8.75002 43.9092 17.6334C43.9092 26.3581 49.0792 31.7694 56.6846 31.7694C63.5102 31.7694 68.3965 27.3791 68.3965 20.272V16.9609H57.2096V20.8641H63.5638C63.4834 24.7963 60.8582 27.2853 56.7114 27.2853C52.0955 27.2853 48.9318 23.8267 48.9318 17.5797C48.9318 11.373 52.1491 7.92781 56.6042 7.92781C59.9287 7.92781 62.2032 9.70404 63.079 12.6264Z" fill="#31373D"/>
<path d="M71.7612 31.3919H76.6341V10.7252H71.7612V31.3919ZM74.2189 7.44083C75.7672 7.44083 77.0318 6.25445 77.0318 4.80219C77.0318 3.34994 75.7672 2.15015 74.2189 2.15015C72.6706 2.15015 71.3926 3.3343 71.3926 4.80219C71.3926 6.27009 72.6482 7.44083 74.21 7.44083H74.2189Z" fill="#31373D"/>
<path d="M91.226 10.7251H87.1463V5.76062H82.2734V10.7251H79.3398V14.4943H82.2734V25.9917C82.2466 29.8815 85.0751 31.8007 88.7348 31.6868C89.7098 31.6674 90.6765 31.504 91.6036 31.2019L90.7814 27.3903C90.3157 27.5112 89.837 27.5749 89.356 27.5802C88.1294 27.5802 87.1463 27.149 87.1463 25.1829V14.4831H91.226V10.7251Z" fill="#31373D"/>
<path d="M94.9971 31.3918H112.134V27.2049H99.9928V3.82129H94.9971V31.3918Z" fill="#31373D"/>
<path d="M121.469 31.8098C124.713 31.8098 126.65 30.2882 127.539 28.5522H127.7V31.3919H132.392V17.553C132.392 12.0881 127.937 10.4459 123.991 10.4459C119.643 10.4459 116.305 12.383 115.228 16.1522L119.78 16.8001C120.262 15.3858 121.636 14.1749 124.025 14.1749C126.288 14.1749 127.526 15.3322 127.526 17.3654V17.4458C127.526 18.8444 126.058 18.9137 122.409 19.3025C118.399 19.7337 114.563 20.9312 114.563 25.5896C114.549 29.6559 117.523 31.8098 121.469 31.8098ZM123.071 28.235C121.037 28.235 119.583 27.3055 119.583 25.5159C119.583 23.6436 121.212 22.8638 123.381 22.5533C124.661 22.379 127.22 22.055 127.85 21.5456V23.981C127.863 26.2755 126.004 28.2283 123.071 28.2283V28.235Z" fill="#31373D"/>
<path d="M135.98 31.3918H140.772V28.1343H141.054C141.823 29.6424 143.424 31.756 146.979 31.756C151.852 31.756 155.501 27.8908 155.501 21.0808C155.501 14.1882 151.745 10.4458 146.966 10.4458C143.317 10.4458 141.796 12.6398 141.054 14.1346H140.848V3.82129H135.98V31.3918ZM140.759 21.054C140.759 17.0324 142.482 14.4429 145.618 14.4429C148.863 14.4429 150.534 17.2022 150.534 21.054C150.534 24.9058 148.838 27.7567 145.618 27.7567C142.508 27.7567 140.759 25.0645 140.759 21.054Z" fill="#31373D"/>
</svg>
