<svg width="1252" height="732" viewBox="0 0 1252 732" fill="none" xmlns="http://www.w3.org/2000/svg">
<g clip-path="url(#clip0_4009_22595)">
<path d="M37.4488 64H36.2285V732H37.4488V64Z" fill="#D0D5DF" fill-opacity="0.5"/>
<path d="M127.705 64H126.485V732H127.705V64Z" fill="#D0D5DF" fill-opacity="0.5"/>
<path d="M217.963 64H216.743V732H217.963V64Z" fill="#D0D5DF" fill-opacity="0.5"/>
<path d="M308.22 64H307V732H308.22V64Z" fill="#D0D5DF" fill-opacity="0.5"/>
<path d="M398.477 64H397.257V732H398.477V64Z" fill="#D0D5DF" fill-opacity="0.5"/>
<path d="M488.735 64H487.515V732H488.735V64Z" fill="#D0D5DF" fill-opacity="0.5"/>
<path d="M578.991 64H577.771V732H578.991V64Z" fill="#D0D5DF" fill-opacity="0.5"/>
<path d="M669.248 64H668.028V732H669.248V64Z" fill="#D0D5DF" fill-opacity="0.5"/>
<path d="M759.506 64H758.286V732H759.506V64Z" fill="#D0D5DF" fill-opacity="0.5"/>
<path d="M849.763 64H848.543V732H849.763V64Z" fill="#D0D5DF" fill-opacity="0.5"/>
<path d="M940.02 64H938.8V732H940.02V64Z" fill="#D0D5DF" fill-opacity="0.5"/>
<path d="M1030.28 64H1029.06V732H1030.28V64Z" fill="#D0D5DF" fill-opacity="0.5"/>
<path d="M1120.53 64H1119.31V732H1120.53V64Z" fill="#D0D5DF" fill-opacity="0.5"/>
<path d="M1210.79 64H1209.57V732H1210.79V64Z" fill="#D0D5DF" fill-opacity="0.5"/>
<path d="M1252 81.323V80.1848L0 80.1848V81.323L1252 81.323Z" fill="#D0D5DF" fill-opacity="0.5"/>
<path d="M1252 111.537V110.399L0 110.399V111.537L1252 111.537Z" fill="#D0D5DF" fill-opacity="0.5"/>
<path d="M1252 141.751V140.613L0 140.613V141.751L1252 141.751Z" fill="#D0D5DF" fill-opacity="0.5"/>
<path d="M1252 171.965V170.827L0 170.827V171.965L1252 171.965Z" fill="#D0D5DF" fill-opacity="0.5"/>
<path d="M1252 202.178V201.04L0 201.04V202.178L1252 202.178Z" fill="#D0D5DF" fill-opacity="0.5"/>
<path d="M1252 232.392V231.254L0 231.254V232.392L1252 232.392Z" fill="#D0D5DF" fill-opacity="0.5"/>
<path d="M1252 262.606V261.468L0 261.468V262.606L1252 262.606Z" fill="#D0D5DF" fill-opacity="0.5"/>
<path d="M1252 292.82V291.682L0 291.682V292.82L1252 292.82Z" fill="#D0D5DF" fill-opacity="0.5"/>
<path d="M1252 323.034V321.896L0 321.896V323.034L1252 323.034Z" fill="#D0D5DF" fill-opacity="0.5"/>
<path d="M1252 353.248V352.11L0 352.11V353.248L1252 353.248Z" fill="#D0D5DF" fill-opacity="0.5"/>
<path d="M1252 383.462V382.324L0 382.324V383.462L1252 383.462Z" fill="#D0D5DF" fill-opacity="0.5"/>
<path d="M1252 413.676V412.538L0 412.538V413.676L1252 413.676Z" fill="#D0D5DF" fill-opacity="0.5"/>
<path d="M1252 443.889V442.751L0 442.751V443.889L1252 443.889Z" fill="#D0D5DF" fill-opacity="0.5"/>
<path d="M1252 474.103V472.965L0 472.965V474.103L1252 474.103Z" fill="#D0D5DF" fill-opacity="0.5"/>
<path d="M1252 504.317V503.179L0 503.179V504.317L1252 504.317Z" fill="#D0D5DF" fill-opacity="0.5"/>
<path d="M1252 534.531V533.393L0 533.393V534.531L1252 534.531Z" fill="#D0D5DF" fill-opacity="0.5"/>
<path d="M1252 564.745V563.607L0 563.607V564.745L1252 564.745Z" fill="#D0D5DF" fill-opacity="0.5"/>
<path d="M1252 594.959V593.821L0 593.821V594.959L1252 594.959Z" fill="#D0D5DF" fill-opacity="0.5"/>
<path d="M1252 625.172V624.034L0 624.034V625.172L1252 625.172Z" fill="#D0D5DF" fill-opacity="0.5"/>
<path d="M1252 655.386V654.248L0 654.248V655.386L1252 655.386Z" fill="#D0D5DF" fill-opacity="0.5"/>
<path d="M1252 685.6V684.462L0 684.462V685.6L1252 685.6Z" fill="#D0D5DF" fill-opacity="0.5"/>
<path d="M1252 715.814V714.676L0 714.676V715.814L1252 715.814Z" fill="#D0D5DF" fill-opacity="0.5"/>
<g filter="url(#filter0_f_4009_22595)">
<path d="M1003.14 64H249.135C207.161 64 173.135 98.0264 173.135 140V634C173.135 675.974 207.161 710 249.135 710H1003.14C1045.11 710 1079.14 675.974 1079.14 634V140C1079.14 98.0264 1045.11 64 1003.14 64Z" fill="#F7F8FA"/>
</g>
<g clip-path="url(#clip1_4009_22595)">
<path fill-rule="evenodd" clip-rule="evenodd" d="M1345.79 -58.6198C1345.79 -58.6235 1345.79 -58.6262 1345.02 -59.0935C1344.24 -59.5608 1344.24 -59.5599 1344.24 -59.5563L1344.23 -59.5418L1344.19 -59.4829C1344.16 -59.4295 1344.11 -59.3498 1344.05 -59.2448C1343.92 -59.0328 1343.73 -58.7176 1343.47 -58.3001C1342.95 -57.4651 1342.18 -56.2252 1341.14 -54.6058C1339.08 -51.3689 1336 -46.6186 1331.91 -40.5705C1323.74 -28.475 1311.55 -11.1909 1295.51 9.55286C1263.43 51.0406 1215.94 106.357 1154.3 161.673C1031.02 272.311 851.228 382.881 625.02 382.881V384.692C851.843 384.692 1032.05 273.822 1155.51 163.02C1217.25 107.616 1264.81 52.2134 1296.94 10.6605C1313.01 -10.1159 1325.22 -27.4317 1333.41 -39.5561C1337.51 -45.6187 1340.6 -50.3826 1342.67 -53.6331C1343.71 -55.2579 1344.49 -56.5051 1345.01 -57.3464C1345.27 -57.7667 1345.46 -58.0855 1345.59 -58.3001C1345.66 -58.4079 1345.71 -58.4885 1345.74 -58.5428L1345.78 -58.6044L1345.79 -58.6198ZM1345.7 74.6336C1345.71 74.6309 1345.71 74.63 1345.02 74.0422C1344.33 73.4553 1344.33 73.4563 1344.33 73.4581L1344.32 73.468L1344.28 73.5097L1344.22 73.583L1344.14 73.6772C1344.08 73.7415 1344.01 73.8185 1343.94 73.9091L1343.81 74.054C1343.73 74.1419 1343.65 74.2388 1343.56 74.3447C1343.04 74.9343 1342.27 75.811 1341.24 76.9558C1339.18 79.2445 1336.09 82.6046 1332.01 86.8821C1323.83 95.4372 1311.65 107.664 1295.61 122.338C1263.54 151.687 1216.05 190.824 1154.42 229.961C1031.15 308.237 851.321 386.503 625.02 386.503V388.315C851.752 388.315 1031.92 309.898 1155.39 231.49C1217.13 192.287 1264.7 153.081 1296.84 123.674C1312.91 108.97 1325.12 96.7151 1333.32 88.1329C1337.41 83.8417 1340.51 80.469 1342.58 78.1676C1343.62 77.0165 1344.4 76.1335 1344.92 75.5375C1345.18 75.2395 1345.38 75.0131 1345.51 74.861C1345.57 74.7849 1345.62 74.7278 1345.66 74.6889L1345.69 74.6454L1345.7 74.6336ZM1345.02 166.422C1345.6 167.115 1345.6 167.117 1345.6 167.119L1345.59 167.127L1345.55 167.158L1345.45 167.24L1345.4 167.282C1345.27 167.391 1345.07 167.553 1344.81 167.767C1344.29 168.195 1343.51 168.828 1342.47 169.654C1340.4 171.304 1337.3 173.722 1333.2 176.798C1325.01 182.95 1312.79 191.735 1296.72 202.275C1264.58 223.354 1217.01 251.454 1155.28 279.551C1031.82 335.747 851.688 391.938 625.02 391.938V390.126C851.384 390.126 1031.26 334.012 1154.53 277.903C1216.17 249.848 1263.66 221.795 1295.73 200.76C1311.76 190.242 1323.95 181.48 1332.12 175.349C1336.2 172.284 1339.28 169.876 1341.34 168.236C1342.37 167.417 1343.15 166.788 1343.66 166.366C1343.77 166.275 1343.87 166.194 1343.96 166.122C1344.08 166.027 1344.17 165.949 1344.24 165.888C1344.31 165.835 1344.36 165.794 1344.39 165.768L1344.42 165.738L1344.43 165.731C1344.43 165.731 1344.43 165.73 1344.45 165.751C1344.46 165.761 1344.47 165.775 1344.49 165.797C1344.52 165.837 1344.58 165.9 1344.66 166.003L1345.02 166.422ZM1345.4 267.772C1345.4 267.772 1345.4 267.772 1345.4 267.77C1345.4 267.768 1345.4 267.765 1345.4 267.756C1345.39 267.741 1345.38 267.71 1345.35 267.647C1345.3 267.538 1345.2 267.334 1345.02 266.953C1344.84 266.584 1344.74 266.382 1344.69 266.271C1344.67 266.219 1344.65 266.188 1344.64 266.168C1344.63 266.149 1344.63 266.142 1344.63 266.139C1344.62 266.137 1344.62 266.137 1344.62 266.137L1344.62 266.142L1344.58 266.159L1344.44 266.227C1344.31 266.287 1344.11 266.378 1343.86 266.498C1343.34 266.738 1342.56 267.096 1341.53 267.563C1339.47 268.495 1336.39 269.864 1332.31 271.607C1324.13 275.094 1311.95 280.077 1295.91 286.058C1263.83 298.02 1216.33 313.973 1154.68 329.927C1031.37 361.835 851.451 393.749 625.02 393.749V395.56C851.621 395.56 1031.7 363.623 1155.13 331.681C1216.85 315.71 1264.41 299.737 1296.54 287.755C1312.61 281.764 1324.82 276.771 1333.02 273.274C1337.12 271.525 1340.21 270.15 1342.28 269.213C1343.32 268.744 1344.1 268.383 1344.62 268.14C1344.88 268.019 1345.08 267.927 1345.21 267.865L1345.36 267.794L1345.39 267.776L1345.4 267.772ZM1345.02 347.559C1345.14 348.207 1345.17 348.383 1345.18 348.431C1345.18 348.449 1345.18 348.449 1345.18 348.449L1345.17 348.451L1345.14 348.458L1344.99 348.486C1344.86 348.511 1344.66 348.547 1344.4 348.595L1344.16 348.64L1343.86 348.696C1343.69 348.726 1343.51 348.759 1343.31 348.794C1342.95 348.861 1342.54 348.936 1342.07 349.02C1340 349.392 1336.91 349.937 1332.81 350.631C1324.62 352.02 1312.42 354.001 1296.36 356.38C1264.24 361.136 1216.7 367.478 1155 373.819C1031.6 386.502 851.57 399.183 625.02 399.183V397.372C851.503 397.372 1031.47 384.694 1154.81 372.017C1216.48 365.679 1264 359.341 1296.09 354.588C1312.14 352.212 1324.33 350.232 1332.51 348.845C1336.6 348.152 1339.69 347.608 1341.75 347.238C1342.78 347.052 1343.56 346.91 1344.07 346.814C1344.33 346.767 1344.53 346.73 1344.66 346.706L1344.8 346.679L1344.84 346.671L1344.85 346.67C1344.85 346.67 1344.85 346.67 1344.85 346.687C1344.85 346.704 1344.86 346.737 1344.87 346.801L1344.9 346.944C1344.93 347.075 1344.96 347.271 1345.02 347.559ZM1345.01 396.466C1345.01 396.466 1345.01 396.466 1345.02 397.372C1345.02 398.277 1345.02 398.277 1345.02 398.277H1345.01H1345L1344.98 398.278H1344.95H1344.91H1344.87L1344.83 398.279H1344.78L1344.72 398.28H1344.66L1344.59 398.281H1344.51L1344.43 398.282L1344.34 398.283L1344.24 398.284H1344.14L1344.04 398.285L1343.93 398.286L1343.81 398.286L1343.68 398.287L1343.55 398.288L1343.42 398.29L1343.27 398.291L1343.12 398.292L1342.97 398.293L1342.81 398.295L1342.64 398.295L1342.47 398.296L1342.29 398.298L1342.11 398.299L1341.92 398.301L1341.72 398.303L1341.52 398.304L1341.31 398.305L1341.09 398.307L1340.87 398.309L1340.65 398.311L1340.41 398.313L1340.17 398.314L1339.93 398.316L1339.68 398.318L1339.42 398.32L1339.16 398.322L1338.89 398.324L1338.62 398.325L1338.34 398.328L1338.05 398.33L1337.76 398.333L1337.46 398.334L1337.16 398.337L1336.85 398.339L1336.53 398.342L1336.21 398.344L1335.88 398.346L1335.55 398.349L1335.21 398.352L1334.86 398.354L1334.51 398.357L1334.16 398.36L1333.79 398.363L1333.42 398.365L1333.05 398.368L1332.67 398.371L1332.28 398.373L1331.89 398.377L1331.49 398.38L1331.09 398.382L1330.68 398.386L1330.26 398.389L1329.84 398.392L1329.41 398.395L1328.98 398.399L1328.54 398.402L1328.09 398.405L1327.64 398.409L1327.19 398.412L1326.72 398.416L1326.25 398.42L1325.78 398.422L1325.3 398.426L1324.81 398.43L1324.32 398.434L1323.82 398.438L1323.32 398.441L1322.81 398.445L1322.3 398.449L1321.78 398.453L1321.25 398.457L1320.72 398.461L1320.18 398.465L1319.63 398.469L1319.08 398.473L1318.53 398.478L1317.97 398.482L1317.4 398.486L1316.83 398.49L1316.25 398.495L1315.67 398.499L1315.08 398.504L1314.48 398.508L1313.88 398.513L1313.27 398.517L1312.66 398.522L1312.04 398.526L1311.41 398.531L1310.78 398.536L1310.15 398.541L1309.51 398.545L1308.86 398.551L1308.21 398.555L1307.55 398.56L1306.88 398.565L1306.21 398.571L1305.54 398.575L1304.85 398.581L1304.17 398.586L1303.47 398.591L1302.78 398.596L1302.07 398.602L1301.36 398.607L1300.65 398.612L1299.92 398.618L1299.2 398.623L1298.46 398.629L1297.73 398.634L1296.98 398.64L1296.23 398.646L1295.48 398.651L1294.72 398.657L1293.95 398.663L1293.18 398.669L1292.4 398.675L1291.62 398.68L1290.83 398.687L1290.03 398.692L1289.23 398.699L1288.43 398.705L1287.61 398.711L1286.8 398.717L1285.97 398.723L1285.15 398.729L1284.31 398.736L1283.47 398.742L1282.63 398.748L1281.78 398.755L1280.92 398.761L1280.06 398.768L1279.19 398.775L1278.32 398.781L1277.44 398.787L1276.55 398.795L1275.66 398.801L1274.77 398.808L1273.87 398.814L1272.96 398.822L1272.05 398.828L1271.13 398.835L1270.21 398.843L1269.28 398.849L1268.35 398.856L1267.41 398.863L1266.46 398.871L1265.51 398.878L1264.55 398.885L1263.59 398.892L1262.63 398.9L1261.65 398.907L1260.67 398.914L1259.69 398.921L1258.7 398.929L1257.71 398.937L1256.71 398.944L1255.7 398.951L1254.69 398.959L1253.67 398.967L1252.65 398.975L1251.62 398.982L1250.59 398.99L1249.55 398.998L1248.51 399.006L1247.46 399.014L1246.4 399.022L1245.34 399.03L1244.28 399.038L1243.21 399.046L1242.13 399.054L1241.05 399.063L1239.96 399.071L1238.87 399.079L1237.77 399.087L1236.66 399.095L1235.55 399.103L1234.44 399.112L1233.32 399.121L1232.19 399.129L1231.06 399.138L1229.93 399.146L1228.79 399.155L1227.64 399.163L1226.49 399.172L1225.33 399.181L1224.17 399.189L1223 399.198L1221.82 399.208L1220.64 399.217L1219.46 399.226L1218.27 399.234L1217.07 399.243L1215.87 399.252L1214.67 399.261L1213.46 399.271L1212.24 399.28L1211.02 399.289L1209.79 399.298L1208.56 399.307L1207.32 399.317L1206.07 399.326L1204.83 399.335L1203.57 399.345L1202.31 399.354L1201.05 399.364L1199.78 399.374L1198.5 399.383L1197.22 399.393L1195.94 399.403L1194.64 399.412L1193.35 399.422L1192.05 399.432L1190.74 399.442L1189.43 399.452L1188.11 399.462L1186.79 399.472L1185.46 399.482L1184.12 399.492L1182.79 399.502L1181.44 399.512L1180.09 399.523L1178.74 399.533L1177.38 399.543L1176.01 399.553L1174.64 399.563L1173.27 399.573L1171.89 399.584L1170.5 399.594L1169.11 399.605L1167.71 399.616L1166.31 399.626L1164.91 399.637L1163.49 399.648L1162.08 399.659L1160.65 399.669L1159.23 399.679L1157.79 399.69L1156.36 399.701L1154.91 399.712L1153.46 399.723L1152.01 399.735L1150.55 399.745L1149.09 399.756L1147.62 399.767L1146.14 399.778L1144.67 399.79L1143.18 399.801L1141.69 399.813L1140.2 399.823L1138.7 399.835L1137.19 399.846L1135.68 399.858L1134.17 399.869L1132.64 399.88L1131.12 399.892L1129.59 399.903L1128.05 399.915L1126.51 399.927L1124.97 399.938L1123.41 399.95L1121.86 399.962L1120.3 399.974L1118.73 399.985L1117.16 399.997L1115.58 400.009L1114 400.021L1112.41 400.033L1110.82 400.045L1109.22 400.057L1107.62 400.069L1106.01 400.082L1104.4 400.093L1102.78 400.106L1101.16 400.118L1099.53 400.13L1097.9 400.142L1096.26 400.155L1094.62 400.168L1092.97 400.18L1091.32 400.192L1089.66 400.205L1088 400.217L1086.33 400.23L1084.66 400.243L1082.98 400.255L1081.3 400.268L1079.61 400.281L1077.92 400.293L1076.22 400.306L1074.52 400.319L1072.81 400.332L1071.1 400.345L1069.38 400.358L1067.65 400.371L1065.93 400.384L1064.19 400.397L1062.46 400.41L1060.71 400.423L1058.97 400.437L1057.21 400.45L1055.46 400.463L1053.69 400.476L1051.92 400.49L1050.15 400.503L1048.37 400.516L1046.59 400.53L1044.8 400.543L1043.01 400.557L1041.22 400.571L1039.41 400.584L1037.61 400.598L1035.79 400.611L1033.98 400.625L1032.15 400.638L1030.33 400.653L1028.5 400.667L1026.66 400.68L1024.82 400.695L1022.97 400.708L1021.12 400.722L1019.26 400.736L1017.4 400.75L1015.54 400.764L1013.67 400.778L1011.79 400.792L1009.91 400.807L1008.02 400.821L1006.13 400.835L1004.24 400.85L1002.34 400.864L1000.43 400.879L998.523 400.893L996.608 400.907L994.688 400.922L992.763 400.936L990.834 400.951L988.901 400.965L986.962 400.98L985.018 400.994L983.069 401.009L981.116 401.024L979.158 401.039L977.195 401.053L975.227 401.069L973.255 401.083L971.278 401.099L969.295 401.113L967.308 401.128L965.317 401.143L963.32 401.158L961.318 401.174L959.312 401.188L957.302 401.204L955.286 401.219L953.265 401.234L951.24 401.25L949.21 401.265L947.175 401.281L945.136 401.296L943.092 401.311L941.042 401.327L938.989 401.342L936.931 401.358L934.867 401.373L932.799 401.388L930.727 401.405L928.649 401.42L926.567 401.436L924.481 401.452L922.388 401.467L920.293 401.484L918.192 401.499L916.086 401.515L913.976 401.531L911.86 401.547L909.741 401.563L907.616 401.579L905.487 401.595L903.353 401.611L901.215 401.628L899.072 401.643L896.924 401.659L894.771 401.676L892.614 401.692L890.452 401.708L888.286 401.724L886.115 401.741L883.94 401.757L881.759 401.774L879.573 401.791L877.384 401.807L875.19 401.823L872.99 401.84L870.787 401.857L868.579 401.874L866.366 401.89L864.148 401.906L861.927 401.924L859.7 401.94L857.468 401.957L855.233 401.974L852.992 401.991L850.747 402.008L848.498 402.025L846.243 402.042L843.985 402.059L841.721 402.076L839.453 402.093L837.181 402.11L834.903 402.127L832.622 402.145L830.336 402.162L828.044 402.179L825.749 402.196L823.449 402.214L821.144 402.232L818.836 402.249L816.522 402.266L814.204 402.284L811.881 402.301L809.554 402.319L807.222 402.337L804.886 402.354L802.546 402.372L800.2 402.389L797.851 402.407L795.496 402.425L793.138 402.443L790.774 402.461L788.406 402.479L786.034 402.496L783.657 402.514L781.276 402.532L778.89 402.55L776.5 402.569L774.105 402.587L771.706 402.605L769.302 402.623L766.894 402.641L764.482 402.659L762.064 402.677L759.644 402.695L757.217 402.714L754.787 402.732L752.352 402.751L749.913 402.769L747.469 402.788L745.021 402.806L742.568 402.825L740.111 402.843L737.651 402.862L735.185 402.88L732.714 402.899L730.24 402.917L727.761 402.936L725.277 402.955L722.789 402.973L720.297 402.992L717.8 403.011L715.299 403.03L712.794 403.049L710.284 403.068L707.77 403.087L705.252 403.106L702.729 403.126L700.201 403.145L697.67 403.164L695.134 403.183L692.593 403.202L690.048 403.221L687.499 403.241L684.946 403.26L682.388 403.279L679.826 403.298L677.26 403.318L674.689 403.337L672.114 403.356L669.534 403.375L666.951 403.395L664.363 403.414L661.77 403.434L659.174 403.454L656.573 403.473L653.968 403.493L651.358 403.513L648.744 403.532L646.126 403.552L643.503 403.572L640.877 403.592L638.246 403.612L635.61 403.632L632.971 403.652L630.327 403.672L627.678 403.692L625.027 403.711L625.013 401.9L627.665 401.88L630.313 401.86L632.958 401.84L635.597 401.82L638.232 401.801L640.863 401.781L643.489 401.761L646.112 401.741L648.731 401.722L651.344 401.702L653.953 401.682L656.559 401.662L659.16 401.643L661.757 401.623L664.349 401.603L666.937 401.584L669.521 401.564L672.1 401.545L674.676 401.525L677.246 401.506L679.813 401.487L682.375 401.467L684.932 401.448L687.485 401.429L690.035 401.409L692.58 401.39L695.12 401.371L697.656 401.352L700.187 401.333L702.715 401.314L705.238 401.295L707.757 401.276L710.271 401.257L712.78 401.238L715.285 401.219L717.787 401.2L720.284 401.181L722.775 401.162L725.263 401.144L727.746 401.125L730.226 401.106L732.7 401.088L735.171 401.069L737.636 401.051L740.098 401.032L742.555 401.013L745.007 400.994L747.455 400.976L749.9 400.957L752.339 400.939L754.773 400.921L757.204 400.903L759.63 400.884L762.051 400.866L764.468 400.848L766.881 400.83L769.289 400.811L771.693 400.793L774.092 400.775L776.486 400.757L778.876 400.739L781.263 400.721L783.644 400.703L786.02 400.685L788.393 400.667L790.76 400.649L793.124 400.631L795.482 400.614L797.837 400.596L800.186 400.578L802.532 400.561L804.872 400.543L807.209 400.525L809.54 400.507L811.867 400.49L814.19 400.473L816.508 400.455L818.822 400.437L821.13 400.42L823.435 400.403L825.735 400.385L828.031 400.368L830.321 400.35L832.608 400.333L834.889 400.316L837.167 400.299L839.439 400.282L841.707 400.264L843.97 400.248L846.23 400.231L848.484 400.214L850.734 400.197L852.979 400.179L855.219 400.163L857.455 400.146L859.686 400.13L861.913 400.112L864.135 400.095L866.353 400.079L868.565 400.062L870.773 400.045L872.977 400.029L875.176 400.012L877.37 399.995L879.56 399.979L881.745 399.963L883.925 399.947L886.101 399.929L888.272 399.913L890.439 399.897L892.6 399.88L894.758 399.864L896.91 399.848L899.058 399.832L901.201 399.816L903.34 399.8L905.473 399.784L907.603 399.767L909.727 399.752L911.847 399.736L913.962 399.719L916.072 399.704L918.178 399.688L920.279 399.672L922.375 399.656L924.467 399.64L926.554 399.624L928.636 399.609L930.713 399.593L932.785 399.577L934.854 399.562L936.917 399.546L938.976 399.531L941.029 399.515L943.078 399.5L945.122 399.485L947.162 399.469L949.197 399.454L951.226 399.438L953.251 399.423L955.272 399.408L957.288 399.392L959.299 399.377L961.305 399.362L963.306 399.347L965.303 399.332L967.295 399.317L969.282 399.302L971.263 399.287L973.241 399.272L975.214 399.257L977.182 399.242L979.144 399.227L981.102 399.213L983.056 399.198L985.005 399.183L986.948 399.169L988.887 399.154L990.821 399.14L992.75 399.125L994.674 399.111L996.594 399.096L998.509 399.082L1000.42 399.067L1002.32 399.053L1004.22 399.038L1006.12 399.024L1008.01 399.01L1009.89 398.996L1011.78 398.981L1013.65 398.968L1015.52 398.953L1017.39 398.939L1019.25 398.925L1021.11 398.91L1022.96 398.897L1024.8 398.883L1026.64 398.869L1028.48 398.855L1030.31 398.842L1032.14 398.827L1033.96 398.814L1035.78 398.8L1037.59 398.786L1039.4 398.773L1041.2 398.759L1043 398.746L1044.79 398.732L1046.58 398.718L1048.36 398.705L1050.14 398.691L1051.91 398.679L1053.68 398.665L1055.44 398.651L1057.2 398.639L1058.95 398.625L1060.7 398.612L1062.44 398.599L1064.18 398.585L1065.91 398.573L1067.64 398.56L1069.36 398.546L1071.08 398.534L1072.8 398.521L1074.5 398.507L1076.21 398.495L1077.9 398.482L1079.6 398.469L1081.29 398.457L1082.97 398.444L1084.65 398.431L1086.32 398.419L1087.99 398.406L1089.65 398.393L1091.31 398.381L1092.96 398.369L1094.61 398.356L1096.25 398.343L1097.89 398.332L1099.52 398.319L1101.15 398.306L1102.77 398.295L1104.39 398.282L1106 398.27L1107.61 398.258L1109.21 398.246L1110.81 398.234L1112.4 398.222L1113.99 398.209L1115.57 398.198L1117.14 398.186L1118.72 398.174L1120.28 398.162L1121.84 398.151L1123.4 398.139L1124.95 398.127L1126.5 398.115L1128.04 398.104L1129.57 398.092L1131.11 398.081L1132.63 398.069L1134.15 398.057L1135.67 398.046L1137.18 398.035L1138.68 398.024L1140.18 398.012L1141.68 398.001L1143.17 397.989L1144.65 397.979L1146.13 397.968L1147.61 397.956L1149.07 397.945L1150.54 397.934L1152 397.923L1153.45 397.912L1154.9 397.901L1156.34 397.89L1157.78 397.879L1159.21 397.868L1160.64 397.858L1162.06 397.847L1163.48 397.836L1164.89 397.825L1166.3 397.815L1167.7 397.805L1169.1 397.794L1170.49 397.784L1171.87 397.773L1173.25 397.762L1174.63 397.752L1176 397.742L1177.36 397.731L1178.72 397.721L1180.08 397.711L1181.43 397.7L1182.77 397.69L1184.11 397.681L1185.44 397.671L1186.77 397.661L1188.1 397.651L1189.41 397.641L1190.73 397.631L1192.03 397.621L1193.33 397.611L1194.63 397.601L1195.92 397.592L1197.21 397.582L1198.49 397.572L1199.76 397.563L1201.03 397.553L1202.3 397.543L1203.56 397.534L1204.81 397.525L1206.06 397.515L1207.3 397.506L1208.54 397.496L1209.78 397.487L1211 397.478L1212.23 397.469L1213.44 397.46L1214.65 397.45L1215.86 397.441L1217.06 397.431L1218.26 397.422L1219.45 397.414L1220.63 397.405L1221.81 397.396L1222.98 397.387L1224.15 397.378L1225.32 397.37L1226.47 397.361L1227.63 397.352L1228.77 397.344L1229.91 397.335L1231.05 397.326L1232.18 397.317L1233.31 397.309L1234.43 397.301L1235.54 397.292L1236.65 397.284L1237.75 397.276L1238.85 397.268L1239.95 397.259L1241.03 397.251L1242.12 397.243L1243.19 397.235L1244.26 397.227L1245.33 397.219L1246.39 397.21L1247.44 397.202L1248.49 397.194L1249.54 397.187L1250.58 397.179L1251.61 397.172L1252.64 397.163L1253.66 397.155L1254.68 397.148L1255.69 397.141L1256.69 397.133L1257.69 397.125L1258.69 397.118L1259.68 397.11L1260.66 397.103L1261.64 397.095L1262.61 397.088L1263.58 397.081L1264.54 397.074L1265.5 397.066L1266.45 397.059L1267.39 397.052L1268.33 397.045L1269.27 397.038L1270.2 397.031L1271.12 397.024L1272.04 397.017L1272.95 397.01L1273.85 397.003L1274.76 396.997L1275.65 396.989L1276.54 396.983L1277.42 396.976L1278.3 396.97L1279.18 396.963L1280.04 396.957L1280.91 396.95L1281.76 396.943L1282.61 396.937L1283.46 396.931L1284.3 396.924L1285.13 396.918L1285.96 396.912L1286.78 396.905L1287.6 396.9L1288.41 396.893L1289.22 396.887L1290.02 396.881L1290.81 396.875L1291.6 396.869L1292.39 396.864L1293.16 396.857L1293.94 396.852L1294.7 396.845L1295.46 396.84L1296.22 396.835L1296.97 396.829L1297.71 396.823L1298.45 396.817L1299.18 396.812L1299.91 396.807L1300.63 396.801L1301.35 396.796L1302.06 396.79L1302.76 396.785L1303.46 396.779L1304.15 396.775L1304.84 396.769L1305.52 396.764L1306.2 396.759L1306.87 396.754L1307.53 396.749L1308.19 396.744L1308.85 396.74L1309.49 396.734L1310.13 396.73L1310.77 396.725L1311.4 396.72L1312.02 396.715L1312.64 396.711L1313.26 396.706L1313.86 396.701L1314.47 396.697L1315.06 396.692L1315.65 396.688L1316.24 396.683L1316.81 396.679L1317.39 396.674L1317.95 396.671L1318.52 396.666L1319.07 396.662L1319.62 396.658L1320.16 396.653L1320.7 396.65L1321.24 396.645L1321.76 396.642L1322.28 396.638L1322.8 396.634L1323.31 396.63L1323.81 396.626L1324.31 396.623L1324.8 396.619L1325.29 396.615L1325.77 396.612L1326.24 396.608L1326.71 396.605L1327.17 396.601L1327.63 396.597L1328.08 396.594L1328.52 396.591L1328.96 396.587L1329.4 396.584L1329.83 396.581L1330.25 396.577L1330.66 396.575L1331.07 396.571L1331.48 396.568L1331.88 396.566L1332.27 396.562L1332.65 396.559L1333.04 396.557L1333.41 396.554L1333.78 396.551L1334.14 396.548L1334.5 396.546L1334.85 396.543L1335.2 396.54L1335.54 396.538L1335.87 396.535L1336.2 396.533L1336.52 396.53L1336.83 396.528L1337.14 396.526L1337.45 396.523L1337.75 396.521L1338.04 396.519L1338.32 396.517L1338.6 396.515L1338.88 396.512L1339.15 396.51L1339.41 396.509L1339.67 396.507L1339.92 396.505L1340.16 396.503L1340.4 396.501L1340.63 396.5L1340.86 396.498L1341.08 396.496L1341.29 396.494L1341.5 396.492L1341.7 396.491L1341.9 396.49L1342.09 396.489L1342.28 396.487L1342.46 396.485L1342.63 396.484L1342.8 396.483L1342.96 396.481L1343.11 396.48L1343.26 396.48L1343.4 396.479L1343.54 396.477L1343.67 396.476L1343.79 396.475L1343.91 396.474L1344.02 396.473H1344.13L1344.23 396.472L1344.32 396.471L1344.41 396.471L1344.5 396.47H1344.57L1344.64 396.469H1344.71L1344.76 396.468H1344.82L1344.86 396.467H1344.9H1344.93H1344.96L1344.98 396.466H1345H1345.01ZM1345.02 640.095C1345.6 639.402 1345.6 639.401 1345.6 639.4L1345.59 639.392L1345.55 639.36L1345.54 639.352L1345.46 639.286L1345.4 639.236L1345.29 639.143L1345.16 639.039C1345.06 638.957 1344.95 638.861 1344.81 638.75C1344.29 638.323 1343.51 637.69 1342.47 636.865C1340.4 635.214 1337.3 632.796 1333.2 629.72C1325.01 623.567 1312.79 614.782 1296.72 604.243C1264.58 583.163 1217.01 555.064 1155.28 526.966C1031.82 470.77 851.688 414.58 625.02 414.58V416.391C851.384 416.391 1031.26 472.505 1154.53 528.614C1216.17 556.67 1263.66 584.723 1295.73 605.757C1311.76 616.275 1323.95 625.037 1332.12 631.169C1336.2 634.234 1339.28 636.642 1341.34 638.281C1342.37 639.102 1343.15 639.729 1343.66 640.151C1343.92 640.363 1344.12 640.523 1344.24 640.63C1344.3 640.672 1344.34 640.707 1344.37 640.732L1344.39 640.749L1344.42 640.779L1344.43 640.786C1344.43 640.786 1344.43 640.787 1344.48 640.736C1344.54 640.666 1344.68 640.497 1345.02 640.095ZM1345.4 537.84C1345.41 537.841 1345.41 537.842 1345.02 538.659C1344.63 539.475 1344.63 539.475 1344.62 539.475L1344.62 539.47L1344.58 539.454L1344.44 539.385C1344.31 539.324 1344.11 539.234 1343.86 539.113C1343.64 539.014 1343.39 538.897 1343.09 538.759C1342.91 538.675 1342.71 538.583 1342.49 538.486C1342.2 538.353 1341.88 538.207 1341.53 538.05C1339.47 537.117 1336.39 535.748 1332.31 534.004C1324.13 530.518 1311.95 525.535 1295.91 519.554C1263.83 507.592 1216.33 491.639 1154.68 475.684C1031.37 443.776 851.451 411.863 625.02 411.863V410.051C851.621 410.051 1031.7 441.988 1155.13 473.931C1216.85 489.902 1264.41 505.875 1296.54 517.857C1312.61 523.848 1324.82 528.841 1333.02 532.339C1337.12 534.087 1340.21 535.461 1342.28 536.4C1343.32 536.868 1344.1 537.228 1344.62 537.471C1344.77 537.54 1344.89 537.599 1345 537.649C1345.08 537.687 1345.15 537.72 1345.21 537.747L1345.36 537.817L1345.39 537.835L1345.4 537.84ZM1345.02 457.147C1345.19 456.258 1345.19 456.257 1345.18 456.257L1345.17 456.255L1345.14 456.248L1344.99 456.22C1344.86 456.196 1344.66 456.159 1344.4 456.111C1343.88 456.015 1343.1 455.872 1342.07 455.686C1340 455.314 1336.91 454.769 1332.81 454.075C1324.62 452.687 1312.42 450.705 1296.36 448.326C1264.24 443.57 1216.7 437.228 1155 430.887C1031.6 418.204 851.57 405.523 625.02 405.523V407.334C851.503 407.334 1031.47 420.012 1154.81 432.689C1216.48 439.027 1264 445.365 1296.09 450.118C1312.14 452.494 1324.33 454.475 1332.51 455.861C1336.6 456.554 1339.69 457.098 1341.75 457.468C1342.37 457.581 1342.9 457.677 1343.34 457.756C1343.62 457.809 1343.87 457.854 1344.07 457.892C1344.33 457.94 1344.53 457.977 1344.66 458L1344.8 458.028L1344.84 458.034L1344.85 458.036C1344.85 458.036 1344.85 458.037 1345.02 457.147Z" fill="url(#paint0_linear_4009_22595)"/>
<path fill-rule="evenodd" clip-rule="evenodd" d="M-93.9968 -58.6198C-93.9991 -58.6235 -94.0003 -58.6262 -93.2247 -59.0935C-92.449 -59.5608 -92.4482 -59.5599 -92.4463 -59.5563L-92.4375 -59.5418L-92.4016 -59.4829C-92.3695 -59.4295 -92.3212 -59.3498 -92.2566 -59.2448C-92.1275 -59.0328 -91.9336 -58.7176 -91.675 -58.3001C-91.1581 -57.4651 -90.3829 -56.2252 -89.352 -54.6058C-87.2903 -51.3689 -84.2059 -46.6186 -80.1184 -40.5705C-71.9433 -28.475 -59.7566 -11.1909 -43.7163 9.55286C-11.6349 51.0406 35.8561 106.357 97.4915 161.673C220.771 272.311 400.564 382.881 626.773 382.881V384.692C399.949 384.692 219.743 273.822 96.2815 163.02C34.5474 107.616 -13.0175 52.2134 -45.1492 10.6605C-61.2155 -10.1159 -73.4249 -27.4317 -81.6191 -39.5561C-85.7161 -45.6187 -88.8097 -50.3826 -90.8798 -53.6331C-91.9149 -55.2579 -92.6941 -56.5051 -93.215 -57.3464C-93.4754 -57.7667 -93.6713 -58.0855 -93.8023 -58.3001C-93.8678 -58.4079 -93.917 -58.4885 -93.95 -58.5428L-93.9873 -58.6044L-93.9968 -58.6198ZM-93.9106 74.6336C-93.9129 74.6309 -93.9141 74.63 -93.2247 74.0422C-92.5353 73.4553 -92.5346 73.4563 -92.5327 73.4581L-92.5241 73.468L-92.4885 73.5097L-92.4255 73.583L-92.344 73.6772C-92.289 73.7415 -92.2221 73.8185 -92.1434 73.9091L-92.0176 74.054C-91.9413 74.1419 -91.8566 74.2388 -91.7636 74.3447C-91.2474 74.9343 -90.4729 75.811 -89.4428 76.9558C-87.3826 79.2445 -84.2998 82.6046 -80.2139 86.8821C-72.042 95.4372 -59.8585 107.664 -43.8215 122.338C-11.7468 151.687 35.7392 190.824 97.3719 229.961C220.639 308.237 400.472 386.503 626.773 386.503V388.315C400.041 388.315 219.875 309.898 96.4011 231.49C34.6642 192.287 -12.9057 153.081 -45.0442 123.674C-61.1137 108.97 -73.3262 96.7151 -81.5237 88.1329C-85.6224 83.8417 -88.7174 80.469 -90.7891 78.1676C-91.8249 77.0165 -92.6049 76.1335 -93.1265 75.5375C-93.3874 75.2395 -93.5836 75.0131 -93.715 74.861C-93.7807 74.7849 -93.8301 74.7278 -93.8633 74.6889L-93.9009 74.6454L-93.9106 74.6336ZM-93.2247 166.422C-93.8077 167.115 -93.8065 167.117 -93.8041 167.119L-93.7944 167.127L-93.7567 167.158L-93.6588 167.24L-93.6079 167.282C-93.4764 167.391 -93.2799 167.553 -93.0188 167.767C-92.4968 168.195 -91.7164 168.828 -90.68 169.654C-88.6076 171.304 -85.5117 173.722 -81.4123 176.798C-73.2134 182.95 -60.9998 191.735 -44.9295 202.275C-12.7892 223.354 34.7793 251.454 96.5116 279.551C219.977 335.747 400.104 391.938 626.773 391.938V390.126C400.408 390.126 220.537 334.012 97.2624 277.903C35.6242 249.848 -11.8633 221.795 -43.9362 200.76C-59.9725 190.242 -72.1549 181.48 -80.3252 175.349C-84.4104 172.284 -87.4925 169.876 -89.5519 168.236C-90.5815 167.417 -91.3555 166.788 -91.8713 166.366C-91.9819 166.275 -92.0807 166.194 -92.1676 166.122C-92.2832 166.027 -92.3776 165.949 -92.451 165.888C-92.5153 165.835 -92.5634 165.794 -92.5951 165.768L-92.6306 165.738L-92.6392 165.731C-92.6392 165.731 -92.6402 165.73 -92.6581 165.751C-92.6666 165.761 -92.6791 165.775 -92.6975 165.797C-92.7314 165.837 -92.7853 165.9 -92.8714 166.003L-93.2247 166.422ZM-93.6119 267.772C-93.6119 267.772 -93.6125 267.772 -93.6119 267.77C-93.6114 267.768 -93.6099 267.765 -93.6066 267.756C-93.5999 267.741 -93.5855 267.71 -93.5554 267.647C-93.5042 267.538 -93.4072 267.334 -93.2247 266.953C-93.0481 266.584 -92.9512 266.382 -92.8977 266.271C-92.8728 266.219 -92.8574 266.188 -92.8477 266.168C-92.8384 266.149 -92.8346 266.142 -92.8329 266.139C-92.8318 266.137 -92.8313 266.137 -92.8313 266.137L-92.8227 266.142L-92.7872 266.159L-92.6429 266.227C-92.5143 266.287 -92.3208 266.378 -92.0628 266.498C-91.5468 266.738 -90.7724 267.096 -89.7424 267.563C-87.6824 268.495 -84.5995 269.864 -80.5134 271.607C-72.3412 275.094 -60.1561 280.077 -44.1164 286.058C-12.0371 298.02 35.4612 313.973 97.1138 329.927C220.419 361.835 400.341 393.749 626.773 393.749V395.56C400.171 395.56 220.095 363.623 96.6601 331.681C34.9423 315.71 -12.6155 299.737 -44.7492 287.755C-60.8161 281.764 -73.0271 276.771 -81.2242 273.274C-85.3226 271.525 -88.4176 270.15 -90.4895 269.213C-91.5254 268.744 -92.3055 268.383 -92.8274 268.14C-93.0882 268.019 -93.2845 267.927 -93.416 267.865L-93.5646 267.794L-93.6022 267.776L-93.6119 267.772ZM-93.2247 347.559C-93.3477 348.207 -93.3806 348.383 -93.3885 348.431C-93.3915 348.449 -93.3904 348.449 -93.3904 348.449L-93.381 348.451L-93.3439 348.458L-93.1963 348.486C-93.0655 348.511 -92.8699 348.547 -92.6097 348.595L-92.3659 348.64L-92.0658 348.696C-91.9002 348.726 -91.7189 348.759 -91.5223 348.794C-91.1593 348.861 -90.7439 348.936 -90.2762 349.02C-88.2074 349.392 -85.1153 349.937 -81.0201 350.631C-72.8294 352.02 -60.6251 354.001 -44.5656 356.38C-12.4462 361.136 35.0953 367.478 96.7941 373.819C220.193 386.502 400.223 399.183 626.773 399.183V397.372C400.29 397.372 220.322 384.694 96.9798 372.017C35.3082 365.679 -12.2062 359.341 -44.3002 354.588C-60.3471 352.212 -72.5389 350.232 -80.7175 348.845C-84.8068 348.152 -87.8928 347.608 -89.9557 347.238C-90.9872 347.052 -91.7629 346.91 -92.2803 346.814C-92.5391 346.767 -92.7333 346.73 -92.8627 346.706L-93.0079 346.679L-93.044 346.671L-93.0529 346.67C-93.0529 346.67 -93.0539 346.67 -93.0576 346.687C-93.0611 346.704 -93.0676 346.737 -93.08 346.801L-93.1076 346.944C-93.1327 347.075 -93.17 347.271 -93.2247 347.559ZM-93.2148 396.466C-93.2169 396.466 -93.2179 396.466 -93.2247 397.372C-93.2316 398.277 -93.2305 398.277 -93.2285 398.277H-93.2193H-93.2041L-93.1827 398.278H-93.1552H-93.1217H-93.082L-93.0363 398.279H-92.9845L-92.9266 398.28H-92.8627L-92.7927 398.281H-92.7165L-92.6344 398.282L-92.5461 398.283L-92.4519 398.284H-92.3515L-92.2452 398.285L-92.1328 398.286L-92.0143 398.286L-91.8897 398.287L-91.7592 398.288L-91.6227 398.29L-91.4801 398.291L-91.3315 398.292L-91.1769 398.293L-91.0161 398.295L-90.8495 398.295L-90.6768 398.296L-90.4982 398.298L-90.3135 398.299L-90.1228 398.301L-89.9261 398.303L-89.7235 398.304L-89.5148 398.305L-89.3002 398.307L-89.0796 398.309L-88.853 398.311L-88.6204 398.313L-88.3819 398.314L-88.1373 398.316L-87.8869 398.318L-87.6304 398.32L-87.3681 398.322L-87.0997 398.324L-86.8255 398.325L-86.5453 398.328L-86.2591 398.33L-85.967 398.333L-85.669 398.334L-85.365 398.337L-85.0551 398.339L-84.7393 398.342L-84.4176 398.344L-84.09 398.346L-83.7564 398.349L-83.417 398.352L-83.0716 398.354L-82.7203 398.357L-82.3632 398.36L-82.0001 398.363L-81.6311 398.365L-81.2563 398.368L-80.8756 398.371L-80.489 398.373L-80.0966 398.377L-79.6982 398.38L-79.294 398.382L-78.8839 398.386L-78.4679 398.389L-78.0462 398.392L-77.6185 398.395L-77.1851 398.399L-76.7457 398.402L-76.3005 398.405L-75.8495 398.409L-75.3926 398.412L-74.93 398.416L-74.4614 398.42L-73.9871 398.422L-73.5069 398.426L-73.0209 398.43L-72.5292 398.434L-72.0315 398.438L-71.5281 398.441L-71.0189 398.445L-70.5038 398.449L-69.9831 398.453L-69.4565 398.457L-68.924 398.461L-68.3859 398.465L-67.8419 398.469L-67.2922 398.473L-66.7367 398.478L-66.1753 398.482L-65.6083 398.486L-65.0355 398.49L-64.457 398.495L-63.8726 398.499L-63.2826 398.504L-62.6868 398.508L-62.0851 398.513L-61.4779 398.517L-60.8648 398.522L-60.246 398.526L-59.6216 398.531L-58.9912 398.536L-58.3553 398.541L-57.7136 398.545L-57.0662 398.551L-56.4131 398.555L-55.7543 398.56L-55.0897 398.565L-54.4196 398.571L-53.7436 398.575L-53.062 398.581L-52.3747 398.586L-51.6817 398.591L-50.983 398.596L-50.2786 398.602L-49.5686 398.607L-48.8529 398.612L-48.1316 398.618L-47.4045 398.623L-46.6718 398.629L-45.9334 398.634L-45.1894 398.64L-44.4397 398.646L-43.6844 398.651L-42.9234 398.657L-42.1568 398.663L-41.3845 398.669L-40.6067 398.675L-39.8232 398.68L-39.0341 398.687L-38.2393 398.692L-37.4389 398.699L-36.6329 398.705L-35.8213 398.711L-35.0042 398.717L-34.1814 398.723L-33.3529 398.729L-32.5189 398.736L-31.6793 398.742L-30.8341 398.748L-29.9834 398.755L-29.127 398.761L-28.2651 398.768L-27.3976 398.775L-26.5244 398.781L-25.6458 398.787L-24.7616 398.795L-23.8718 398.801L-22.9765 398.808L-22.0756 398.814L-21.1692 398.822L-20.2572 398.828L-19.3396 398.835L-18.4166 398.843L-17.488 398.849L-16.5538 398.856L-15.6142 398.863L-14.669 398.871L-13.7183 398.878L-12.7621 398.885L-11.8004 398.892L-10.8332 398.9L-9.86041 398.907L-8.88212 398.914L-7.89839 398.921L-6.90914 398.929L-5.91437 398.937L-4.91416 398.944L-3.90843 398.951L-2.89699 398.959L-1.88084 398.967L-0.858351 398.975L0.169565 398.982L1.20201 398.99L2.24081 398.998L3.28503 399.006L4.33468 399.014L5.38887 399.022L6.4494 399.03L7.51535 399.038L8.58675 399.046L9.66357 399.054L10.7458 399.063L11.8326 399.071L12.9257 399.079L14.0243 399.087L15.1283 399.095L16.2377 399.103L17.3517 399.112L18.472 399.121L19.5977 399.129L20.7289 399.138L21.8646 399.146L23.0066 399.155L24.1532 399.163L25.3061 399.172L26.4635 399.181L27.6273 399.189L28.7956 399.198L29.9693 399.208L31.1485 399.217L32.3331 399.226L33.5231 399.234L34.7186 399.243L35.9195 399.252L37.1258 399.261L38.3367 399.271L39.5539 399.28L40.7756 399.289L42.0037 399.298L43.2363 399.307L44.4743 399.317L45.7178 399.326L46.9667 399.335L48.221 399.345L49.4799 399.354L50.7451 399.364L52.0148 399.374L53.29 399.383L54.5706 399.393L55.8566 399.403L57.1481 399.412L58.445 399.422L59.7464 399.432L61.0533 399.442L62.3656 399.452L63.6833 399.462L65.0065 399.472L66.3342 399.482L67.6682 399.492L69.0068 399.502L70.3508 399.512L71.7002 399.523L73.0541 399.533L74.4144 399.543L75.7793 399.553L77.1495 399.563L78.5243 399.573L79.9054 399.584L81.2911 399.594L82.6822 399.605L84.0787 399.616L85.4798 399.626L86.8871 399.637L88.2991 399.648L89.7164 399.659L91.1383 399.669L92.5656 399.679L93.9984 399.69L95.4366 399.701L96.8802 399.712L98.3283 399.723L99.7819 399.735L101.241 399.745L102.704 399.756L104.173 399.767L105.648 399.778L107.127 399.79L108.611 399.801L110.101 399.813L111.596 399.823L113.096 399.835L114.601 399.846L116.112 399.858L117.627 399.869L119.148 399.88L120.673 399.892L122.204 399.903L123.739 399.915L125.281 399.927L126.827 399.938L128.378 399.95L129.935 399.962L131.496 399.974L133.063 399.985L134.634 399.997L136.211 400.009L137.793 400.021L139.38 400.033L140.972 400.045L142.569 400.057L144.171 400.069L145.778 400.082L147.39 400.093L149.008 400.106L150.631 400.118L152.258 400.13L153.89 400.142L155.529 400.155L157.171 400.168L158.819 400.18L160.472 400.192L162.129 400.205L163.792 400.217L165.46 400.23L167.133 400.243L168.811 400.255L170.494 400.268L172.182 400.281L173.875 400.293L175.573 400.306L177.275 400.319L178.983 400.332L180.696 400.345L182.414 400.358L184.138 400.371L185.866 400.384L187.598 400.397L189.336 400.41L191.078 400.423L192.826 400.437L194.58 400.45L196.337 400.463L198.1 400.476L199.868 400.49L201.64 400.503L203.418 400.516L205.2 400.53L206.988 400.543L208.78 400.557L210.577 400.571L212.38 400.584L214.187 400.598L215.999 400.611L217.816 400.625L219.638 400.638L221.465 400.653L223.296 400.667L225.133 400.68L226.975 400.695L228.822 400.708L230.673 400.722L232.53 400.736L234.391 400.75L236.256 400.764L238.127 400.778L240.003 400.792L241.884 400.807L243.77 400.821L245.66 400.835L247.555 400.85L249.455 400.864L251.36 400.879L253.27 400.893L255.185 400.907L257.105 400.922L259.029 400.936L260.958 400.951L262.892 400.965L264.831 400.98L266.774 400.994L268.723 401.009L270.677 401.024L272.635 401.039L274.597 401.053L276.565 401.069L278.538 401.083L280.515 401.099L282.497 401.113L284.484 401.128L286.476 401.143L288.473 401.158L290.474 401.174L292.48 401.188L294.491 401.204L296.507 401.219L298.527 401.234L300.553 401.25L302.582 401.265L304.617 401.281L306.657 401.296L308.701 401.311L310.75 401.327L312.803 401.342L314.862 401.358L316.925 401.373L318.994 401.388L321.066 401.405L323.143 401.42L325.225 401.436L327.312 401.452L329.404 401.467L331.5 401.484L333.601 401.499L335.707 401.515L337.817 401.531L339.932 401.547L342.052 401.563L344.176 401.579L346.305 401.595L348.439 401.611L350.577 401.628L352.72 401.643L354.868 401.659L357.021 401.676L359.178 401.692L361.34 401.708L363.507 401.724L365.677 401.741L367.853 401.757L370.034 401.774L372.219 401.791L374.409 401.807L376.602 401.823L378.802 401.84L381.006 401.857L383.214 401.874L385.426 401.89L387.644 401.906L389.866 401.924L392.093 401.94L394.324 401.957L396.559 401.974L398.8 401.991L401.045 402.008L403.295 402.025L405.549 402.042L407.808 402.059L410.072 402.076L412.34 402.093L414.612 402.11L416.89 402.127L419.171 402.145L421.457 402.162L423.748 402.179L426.043 402.196L428.344 402.214L430.648 402.232L432.957 402.249L435.271 402.266L437.588 402.284L439.911 402.301L442.238 402.319L444.57 402.337L446.907 402.354L449.247 402.372L451.593 402.389L453.942 402.407L456.297 402.425L458.655 402.443L461.019 402.461L463.386 402.479L465.759 402.496L468.135 402.514L470.516 402.532L472.903 402.55L475.293 402.569L477.687 402.587L480.086 402.605L482.49 402.623L484.898 402.641L487.311 402.659L489.728 402.677L492.149 402.695L494.575 402.714L497.006 402.732L499.44 402.751L501.879 402.769L504.324 402.788L506.772 402.806L509.224 402.825L511.681 402.843L514.142 402.862L516.608 402.88L519.079 402.899L521.553 402.917L524.032 402.936L526.516 402.955L529.004 402.973L531.495 402.992L533.992 403.011L536.493 403.03L538.998 403.049L541.508 403.068L544.022 403.087L546.541 403.106L549.064 403.126L551.592 403.145L554.123 403.164L556.659 403.183L559.199 403.202L561.744 403.221L564.294 403.241L566.847 403.26L569.404 403.279L571.966 403.298L574.533 403.318L577.103 403.337L579.679 403.356L582.258 403.375L584.842 403.395L587.429 403.414L590.022 403.434L592.619 403.454L595.22 403.473L597.825 403.493L600.435 403.513L603.048 403.532L605.667 403.552L608.289 403.572L610.916 403.592L613.547 403.612L616.182 403.632L618.821 403.652L621.466 403.672L624.114 403.692L626.766 403.711L626.779 401.9L624.128 401.88L621.479 401.86L618.835 401.84L616.196 401.82L613.56 401.801L610.929 401.781L608.303 401.761L605.68 401.741L603.062 401.722L600.448 401.702L597.839 401.682L595.233 401.662L592.632 401.643L590.036 401.623L587.443 401.603L584.856 401.584L582.272 401.564L579.692 401.545L577.117 401.525L574.546 401.506L571.98 401.487L569.418 401.467L566.86 401.448L564.307 401.429L561.758 401.409L559.213 401.39L556.672 401.371L554.137 401.352L551.605 401.333L549.078 401.314L546.554 401.295L544.036 401.276L541.522 401.257L539.012 401.238L536.507 401.219L534.006 401.2L531.509 401.181L529.017 401.162L526.529 401.144L524.046 401.125L521.566 401.106L519.092 401.088L516.622 401.069L514.156 401.051L511.695 401.032L509.238 401.013L506.785 400.994L504.337 400.976L501.893 400.957L499.454 400.939L497.019 400.921L494.589 400.903L492.162 400.884L489.742 400.866L487.324 400.848L484.912 400.83L482.504 400.811L480.1 400.793L477.701 400.775L475.306 400.757L472.916 400.739L470.53 400.721L468.149 400.703L465.772 400.685L463.4 400.667L461.032 400.649L458.668 400.631L456.31 400.614L453.955 400.596L451.606 400.578L449.261 400.561L446.92 400.543L444.584 400.525L442.253 400.507L439.925 400.49L437.602 400.473L435.284 400.455L432.97 400.437L430.662 400.42L428.357 400.403L426.058 400.385L423.762 400.368L421.471 400.35L419.185 400.333L416.903 400.316L414.625 400.299L412.353 400.282L410.085 400.264L407.822 400.248L405.563 400.231L403.308 400.214L401.059 400.197L398.814 400.179L396.574 400.163L394.338 400.146L392.106 400.13L389.879 400.112L387.658 400.095L385.44 400.079L383.227 400.062L381.019 400.045L378.816 400.029L376.617 400.012L374.422 399.995L372.233 399.979L370.047 399.963L367.867 399.947L365.691 399.929L363.52 399.913L361.354 399.897L359.192 399.88L357.035 399.864L354.882 399.848L352.735 399.832L350.591 399.816L348.453 399.8L346.319 399.784L344.19 399.767L342.065 399.752L339.946 399.736L337.83 399.719L335.72 399.704L333.614 399.688L331.513 399.672L329.418 399.656L327.326 399.64L325.239 399.624L323.157 399.609L321.079 399.593L319.007 399.577L316.939 399.562L314.875 399.546L312.817 399.531L310.764 399.515L308.714 399.5L306.67 399.485L304.631 399.469L302.596 399.454L300.566 399.438L298.541 399.423L296.521 399.408L294.505 399.392L292.494 399.377L290.488 399.362L288.486 399.347L286.489 399.332L284.498 399.317L282.511 399.302L280.529 399.287L278.551 399.272L276.579 399.257L274.611 399.242L272.648 399.227L270.69 399.213L268.737 399.198L266.788 399.183L264.844 399.169L262.905 399.154L260.972 399.14L259.043 399.125L257.118 399.111L255.198 399.096L253.284 399.082L251.374 399.067L249.469 399.053L247.569 399.038L245.673 399.024L243.783 399.01L241.898 398.996L240.017 398.981L238.141 398.968L236.27 398.953L234.404 398.939L232.543 398.925L230.686 398.91L228.835 398.897L226.989 398.883L225.147 398.869L223.311 398.855L221.479 398.842L219.652 398.827L217.83 398.814L216.013 398.8L214.201 398.786L212.393 398.773L210.591 398.759L208.794 398.746L207.002 398.732L205.214 398.718L203.432 398.705L201.654 398.691L199.881 398.679L198.114 398.665L196.351 398.651L194.593 398.639L192.84 398.625L191.092 398.612L189.35 398.599L187.612 398.585L185.879 398.573L184.151 398.56L182.428 398.546L180.71 398.534L178.997 398.521L177.289 398.507L175.586 398.495L173.888 398.482L172.196 398.469L170.507 398.457L168.825 398.444L167.146 398.431L165.474 398.419L163.806 398.406L162.143 398.393L160.485 398.381L158.833 398.369L157.185 398.356L155.542 398.343L153.905 398.332L152.272 398.319L150.645 398.306L149.022 398.295L147.404 398.282L145.792 398.27L144.185 398.258L142.582 398.246L140.986 398.234L139.394 398.222L137.807 398.209L136.225 398.198L134.648 398.186L133.077 398.174L131.51 398.162L129.948 398.151L128.392 398.139L126.84 398.127L125.294 398.115L123.754 398.104L122.218 398.092L120.686 398.081L119.161 398.069L117.641 398.057L116.125 398.046L114.615 398.035L113.11 398.024L111.61 398.012L110.115 398.001L108.625 397.989L107.14 397.979L105.661 397.968L104.187 397.956L102.718 397.945L101.254 397.934L99.7955 397.923L98.3419 397.912L96.8938 397.901L95.4501 397.89L94.0129 397.879L92.5801 397.868L91.1519 397.858L89.73 397.847L88.3127 397.836L86.9007 397.825L85.4943 397.815L84.0923 397.805L82.6958 397.794L81.3047 397.784L79.919 397.773L78.5379 397.762L77.1631 397.752L75.7928 397.742L74.428 397.731L73.0677 397.721L71.7138 397.711L70.3643 397.7L69.0203 397.69L67.6818 397.681L66.3487 397.671L65.0201 397.661L63.6969 397.651L62.3792 397.641L61.0669 397.631L59.76 397.621L58.4586 397.611L57.1617 397.601L55.8702 397.592L54.5842 397.582L53.3036 397.572L52.0284 397.563L50.7587 397.553L49.4935 397.543L48.2346 397.534L46.9803 397.525L45.7314 397.515L44.4879 397.506L43.2499 397.496L42.0173 397.487L40.7901 397.478L39.5675 397.469L38.3512 397.46L37.1394 397.45L35.9331 397.441L34.7322 397.431L33.5367 397.422L32.3467 397.414L31.1621 397.405L29.9829 397.396L28.8092 397.387L27.6409 397.378L26.4771 397.37L25.3197 397.361L24.1668 397.352L23.0202 397.344L21.8782 397.335L20.7425 397.326L19.6113 397.317L18.4856 397.309L17.3662 397.301L16.2513 397.292L15.1419 397.284L14.0379 397.276L12.9393 397.268L11.8471 397.259L10.7594 397.251L9.67716 397.243L8.60033 397.235L7.52894 397.227L6.46298 397.219L5.40245 397.21L4.34827 397.202L3.29861 397.194L2.25439 397.187L1.2156 397.179L0.183149 397.172L-0.844767 397.163L-1.86726 397.155L-2.8834 397.148L-3.89475 397.141L-4.90048 397.133L-5.90069 397.125L-6.89546 397.118L-7.88471 397.11L-8.86844 397.103L-9.84673 397.095L-10.8194 397.088L-11.7867 397.081L-12.7485 397.074L-13.7046 397.066L-14.6554 397.059L-15.6005 397.052L-16.5402 397.045L-17.4744 397.038L-18.4029 397.031L-19.326 397.024L-20.2435 397.017L-21.1555 397.01L-22.062 397.003L-22.9628 396.997L-23.8582 396.989L-24.748 396.983L-25.6322 396.976L-26.5108 396.97L-27.3839 396.963L-28.2514 396.957L-29.1133 396.95L-29.9697 396.943L-30.8205 396.937L-31.6656 396.931L-32.5053 396.924L-33.3393 396.918L-34.1676 396.912L-34.9904 396.905L-35.8077 396.9L-36.6193 396.893L-37.4253 396.887L-38.2256 396.881L-39.0203 396.875L-39.8095 396.869L-40.5931 396.864L-41.3708 396.857L-42.1431 396.852L-42.9097 396.845L-43.6707 396.84L-44.426 396.835L-45.1757 396.829L-45.9198 396.823L-46.6581 396.817L-47.3908 396.812L-48.1178 396.807L-48.8393 396.801L-49.5549 396.796L-50.2649 396.79L-50.9693 396.785L-51.668 396.779L-52.361 396.775L-53.0483 396.769L-53.73 396.764L-54.4059 396.759L-55.0761 396.754L-55.7406 396.749L-56.3994 396.744L-57.0526 396.74L-57.6999 396.734L-58.3417 396.73L-58.9776 396.725L-59.6078 396.72L-60.2323 396.715L-60.8512 396.711L-61.4642 396.706L-62.0715 396.701L-62.6731 396.697L-63.2689 396.692L-63.859 396.688L-64.4433 396.683L-65.0219 396.679L-65.5947 396.674L-66.1618 396.671L-66.723 396.666L-67.2785 396.662L-67.8283 396.658L-68.3722 396.653L-68.9104 396.65L-69.4429 396.645L-69.9694 396.642L-70.4903 396.638L-71.0052 396.634L-71.5145 396.63L-72.0178 396.626L-72.5155 396.623L-73.0073 396.619L-73.4932 396.615L-73.9734 396.612L-74.4478 396.608L-74.9163 396.605L-75.379 396.601L-75.8358 396.597L-76.2868 396.594L-76.7321 396.591L-77.1714 396.587L-77.6048 396.584L-78.0326 396.581L-78.4543 396.577L-78.8702 396.575L-79.2803 396.571L-79.6846 396.568L-80.0829 396.566L-80.4753 396.562L-80.8619 396.559L-81.2427 396.557L-81.6174 396.554L-81.9864 396.551L-82.3495 396.548L-82.7067 396.546L-83.0579 396.543L-83.4033 396.54L-83.7427 396.538L-84.0763 396.535L-84.404 396.533L-84.7257 396.53L-85.0414 396.528L-85.3513 396.526L-85.6553 396.523L-85.9533 396.521L-86.2454 396.519L-86.5316 396.517L-86.8118 396.515L-87.0861 396.512L-87.3544 396.51L-87.6168 396.509L-87.8731 396.507L-88.1237 396.505L-88.3682 396.503L-88.6067 396.501L-88.8393 396.5L-89.0659 396.498L-89.2865 396.496L-89.5012 396.494L-89.7098 396.492L-89.9125 396.491L-90.1091 396.49L-90.2998 396.489L-90.4845 396.487L-90.6632 396.485L-90.8358 396.484L-91.0026 396.483L-91.1631 396.481L-91.3178 396.48L-91.4664 396.48L-91.609 396.479L-91.7456 396.477L-91.8762 396.476L-92.0006 396.475L-92.1191 396.474L-92.2315 396.473H-92.3379L-92.4382 396.472L-92.5325 396.471L-92.6207 396.471L-92.7029 396.47H-92.779L-92.849 396.469H-92.9129L-92.9708 396.468H-93.0227L-93.0684 396.467H-93.108H-93.1415H-93.1691L-93.1903 396.466H-93.2057H-93.2148ZM-93.2247 640.095C-93.8077 639.402 -93.8065 639.401 -93.8041 639.4L-93.7944 639.392L-93.7567 639.36L-93.7478 639.352L-93.668 639.286L-93.6079 639.236L-93.4969 639.143L-93.3708 639.039C-93.2707 638.957 -93.1533 638.861 -93.0188 638.75C-92.4968 638.323 -91.7164 637.69 -90.68 636.865C-88.6076 635.214 -85.5118 632.796 -81.4123 629.72C-73.2134 623.567 -60.9998 614.782 -44.9295 604.243C-12.7892 583.163 34.7793 555.064 96.5116 526.966C219.977 470.77 400.104 414.58 626.773 414.58V416.391C400.408 416.391 220.537 472.505 97.2624 528.614C35.6242 556.67 -11.8633 584.723 -43.9362 605.757C-59.9725 616.275 -72.1549 625.037 -80.3252 631.169C-84.4104 634.234 -87.4925 636.642 -89.5519 638.281C-90.5815 639.102 -91.3555 639.729 -91.8713 640.151C-92.1292 640.363 -92.3226 640.523 -92.451 640.63C-92.5026 640.672 -92.5437 640.707 -92.5743 640.732L-92.5951 640.749L-92.6306 640.779L-92.6392 640.786C-92.6392 640.786 -92.6404 640.787 -92.6839 640.736C-92.744 640.666 -92.8863 640.497 -93.2247 640.095ZM-93.6119 537.84C-93.6143 537.841 -93.6156 537.842 -93.2247 538.659C-92.8339 539.475 -92.8332 539.475 -92.8313 539.475L-92.8227 539.47L-92.7872 539.454L-92.6429 539.385C-92.5143 539.324 -92.3208 539.234 -92.0628 539.113C-91.851 539.014 -91.5957 538.897 -91.297 538.759C-91.1145 538.675 -90.9158 538.583 -90.701 538.486C-90.4109 538.353 -90.0914 538.207 -89.7424 538.05C-87.6824 537.117 -84.5995 535.748 -80.5134 534.004C-72.3412 530.518 -60.1561 525.535 -44.1164 519.554C-12.0371 507.592 35.4612 491.639 97.1138 475.684C220.419 443.776 400.341 411.863 626.773 411.863V410.051C400.171 410.051 220.095 441.988 96.6601 473.931C34.9423 489.902 -12.6155 505.875 -44.7492 517.857C-60.8161 523.848 -73.0271 528.841 -81.2242 532.339C-85.3226 534.087 -88.4176 535.461 -90.4895 536.4C-91.5254 536.868 -92.3055 537.228 -92.8274 537.471C-92.9742 537.54 -93.1005 537.599 -93.2064 537.649C-93.2887 537.687 -93.3585 537.72 -93.416 537.747L-93.5646 537.817L-93.6022 537.835L-93.6119 537.84ZM-93.2247 457.147C-93.3938 456.258 -93.3926 456.257 -93.3904 456.257L-93.381 456.255L-93.3439 456.248L-93.1963 456.22C-93.0655 456.196 -92.8699 456.159 -92.6097 456.111C-92.0893 456.015 -91.3107 455.872 -90.2762 455.686C-88.2074 455.314 -85.1153 454.769 -81.0201 454.075C-72.8294 452.687 -60.6251 450.705 -44.5656 448.326C-12.4462 443.57 35.0953 437.228 96.7941 430.887C220.193 418.204 400.223 405.523 626.773 405.523V407.334C400.29 407.334 220.322 420.012 96.9798 432.689C35.3082 439.027 -12.2062 445.365 -44.3002 450.118C-60.3471 452.494 -72.5389 454.475 -80.7175 455.861C-84.8068 456.554 -87.8928 457.098 -89.9557 457.468C-90.5787 457.581 -91.1084 457.677 -91.5443 457.756C-91.83 457.809 -92.0755 457.854 -92.2803 457.892C-92.5391 457.94 -92.7333 457.977 -92.8627 458L-93.0079 458.028L-93.044 458.034L-93.0529 458.036C-93.0548 458.036 -93.0557 458.037 -93.2247 457.147Z" fill="url(#paint1_linear_4009_22595)"/>
<rect x="548" y="360" width="149" height="75" rx="14" fill="url(#paint2_linear_4009_22595)"/>
</g>
<rect x="149" y="194" width="65" height="65" rx="15" fill="#262626"/>
<path d="M177.662 229.464H183.456V242.964C183.456 244.952 185.931 245.889 187.244 244.389L201.437 228.264C202.675 226.858 201.681 224.664 199.806 224.664H194.012V211.164C194.012 209.177 191.537 208.239 190.225 209.739L176.031 225.864C174.812 227.27 175.806 229.464 177.662 229.464Z" stroke="white" stroke-width="3" stroke-miterlimit="10" stroke-linecap="round" stroke-linejoin="round"/>
<path d="M176.125 212.064H163" stroke="white" stroke-width="3" stroke-miterlimit="10" stroke-linecap="round" stroke-linejoin="round"/>
<path d="M174.25 242.064H163" stroke="white" stroke-width="3" stroke-miterlimit="10" stroke-linecap="round" stroke-linejoin="round"/>
<path d="M168.625 227.064H163" stroke="white" stroke-width="3" stroke-miterlimit="10" stroke-linecap="round" stroke-linejoin="round"/>
<rect x="939" y="430" width="65" height="65" rx="15" fill="#9B182A"/>
<path d="M968.669 444.181L959.313 447.706C957.156 448.513 955.394 451.063 955.394 453.35V467.281C955.394 469.494 956.856 472.4 958.638 473.731L966.7 479.75C969.344 481.738 973.694 481.738 976.338 479.75L984.4 473.731C986.181 472.4 987.644 469.494 987.644 467.281V453.35C987.644 451.044 985.881 448.494 983.725 447.688L974.369 444.181C972.775 443.6 970.225 443.6 968.669 444.181Z" stroke="white" stroke-width="3" stroke-linecap="round" stroke-linejoin="round"/>
<path d="M971.5 463.438C973.571 463.438 975.25 461.759 975.25 459.688C975.25 457.616 973.571 455.938 971.5 455.938C969.429 455.938 967.75 457.616 967.75 459.688C967.75 461.759 969.429 463.438 971.5 463.438Z" stroke="white" stroke-width="3" stroke-miterlimit="10" stroke-linecap="round" stroke-linejoin="round"/>
<path d="M971.5 463.438V469.062" stroke="white" stroke-width="3" stroke-miterlimit="10" stroke-linecap="round" stroke-linejoin="round"/>
<rect x="293" y="354" width="65" height="65" rx="15" fill="#E24329"/>
<path d="M344.25 392.125C344.25 399.381 338.381 405.25 331.125 405.25L333.094 401.969" stroke="white" stroke-width="3" stroke-linecap="round" stroke-linejoin="round"/>
<path d="M306.75 380.875C306.75 373.619 312.619 367.75 319.875 367.75L317.906 371.031" stroke="white" stroke-width="3" stroke-linecap="round" stroke-linejoin="round"/>
<path d="M328.688 372.344L336.15 376.656L343.537 372.363" stroke="white" stroke-width="3" stroke-linecap="round" stroke-linejoin="round"/>
<path d="M336.15 384.287V376.637" stroke="white" stroke-width="3" stroke-linecap="round" stroke-linejoin="round"/>
<path d="M334.387 368.144L329.887 370.637C328.875 371.2 328.031 372.625 328.031 373.787V378.55C328.031 379.712 328.856 381.137 329.887 381.7L334.387 384.194C335.344 384.737 336.919 384.737 337.894 384.194L342.394 381.7C343.406 381.137 344.25 379.712 344.25 378.55V373.787C344.25 372.625 343.425 371.2 342.394 370.637L337.894 368.144C336.937 367.619 335.362 367.619 334.387 368.144Z" stroke="white" stroke-width="3" stroke-linecap="round" stroke-linejoin="round"/>
<path d="M307.406 392.969L314.85 397.281L322.256 392.988" stroke="white" stroke-width="3" stroke-linecap="round" stroke-linejoin="round"/>
<path d="M314.85 404.912V397.262" stroke="white" stroke-width="3" stroke-linecap="round" stroke-linejoin="round"/>
<path d="M313.106 388.769L308.606 391.262C307.594 391.825 306.75 393.25 306.75 394.412V399.175C306.75 400.337 307.575 401.762 308.606 402.325L313.106 404.819C314.062 405.362 315.637 405.362 316.612 404.819L321.113 402.325C322.125 401.762 322.969 400.337 322.969 399.175V394.412C322.969 393.25 322.144 391.825 321.113 391.262L316.612 388.769C315.637 388.244 314.062 388.244 313.106 388.769Z" stroke="white" stroke-width="3" stroke-linecap="round" stroke-linejoin="round"/>
<rect x="105" y="484" width="65" height="65" rx="15" fill="#100D08"/>
<path d="M151.225 512.75H123.794C121.019 512.75 118.769 510.481 118.769 507.725V502.794C118.769 500.019 121.038 497.769 123.794 497.769H151.225C154 497.769 156.25 500.038 156.25 502.794V507.725C156.25 510.481 153.981 512.75 151.225 512.75Z" stroke="white" stroke-width="3" stroke-linecap="round" stroke-linejoin="round"/>
<path d="M151.225 535.25H123.794C121.019 535.25 118.769 532.981 118.769 530.225V525.294C118.769 522.519 121.038 520.269 123.794 520.269H151.225C154 520.269 156.25 522.538 156.25 525.294V530.225C156.25 532.981 153.981 535.25 151.225 535.25Z" stroke="white" stroke-width="3" stroke-linecap="round" stroke-linejoin="round"/>
<path d="M126.25 503.375V507.125" stroke="white" stroke-width="3" stroke-linecap="round" stroke-linejoin="round"/>
<path d="M133.75 503.375V507.125" stroke="white" stroke-width="3" stroke-linecap="round" stroke-linejoin="round"/>
<path d="M126.25 525.875V529.625" stroke="white" stroke-width="3" stroke-linecap="round" stroke-linejoin="round"/>
<path d="M133.75 525.875V529.625" stroke="white" stroke-width="3" stroke-linecap="round" stroke-linejoin="round"/>
<path d="M141.25 505.25H148.75" stroke="white" stroke-width="3" stroke-linecap="round" stroke-linejoin="round"/>
<path d="M141.25 527.75H148.75" stroke="white" stroke-width="3" stroke-linecap="round" stroke-linejoin="round"/>
<g clip-path="url(#clip2_4009_22595)">
<g filter="url(#filter1_d_4009_22595)">
<rect x="1004" y="293" width="65" height="65" rx="15" fill="white"/>
</g>
<path d="M1024.58 324.219C1015.81 324.837 1015.81 337.606 1024.58 338.225H1028.18" stroke="#99172B" stroke-width="3" stroke-miterlimit="10" stroke-linecap="round" stroke-linejoin="round"/>
<path d="M1024.68 324.219C1018.66 307.475 1044.04 300.781 1046.95 318.369C1055.07 319.4 1058.35 330.219 1052.2 335.6C1050.33 337.306 1047.91 338.244 1045.38 338.225H1045.21" stroke="#99172B" stroke-width="3" stroke-miterlimit="10" stroke-linecap="round" stroke-linejoin="round"/>
<path d="M1046.07 334.362C1046.07 335.75 1045.77 337.062 1045.21 338.225C1045.06 338.562 1044.89 338.881 1044.7 339.181C1043.09 341.9 1040.11 343.737 1036.69 343.737C1033.28 343.737 1030.3 341.9 1028.69 339.181C1028.5 338.881 1028.33 338.562 1028.18 338.225C1027.62 337.062 1027.32 335.75 1027.32 334.362C1027.32 329.187 1031.52 324.987 1036.69 324.987C1041.87 324.987 1046.07 329.187 1046.07 334.362Z" stroke="#99172B" stroke-width="3" stroke-miterlimit="10" stroke-linecap="round" stroke-linejoin="round"/>
<path d="M1033.77 334.362L1035.63 336.219L1039.62 332.525" stroke="#99172B" stroke-width="3" stroke-linecap="round" stroke-linejoin="round"/>
</g>
<g filter="url(#filter2_d_4009_22595)">
<rect x="1177" y="153" width="65" height="65" rx="15" fill="#100D08"/>
</g>
<path d="M1197.26 179.875C1200.88 179.875 1203.82 176.937 1203.82 173.312C1203.82 169.688 1200.88 166.75 1197.26 166.75C1193.63 166.75 1190.69 169.688 1190.69 173.312C1190.69 176.937 1193.63 179.875 1197.26 179.875Z" stroke="white" stroke-width="3"/>
<path d="M1218.82 191.125H1224.44C1226.51 191.125 1228.19 192.812 1228.19 194.875V200.5C1228.19 202.563 1226.51 204.25 1224.44 204.25H1218.82C1216.76 204.25 1215.07 202.563 1215.07 200.5V194.875C1215.07 192.812 1216.76 191.125 1218.82 191.125Z" stroke="white" stroke-width="3"/>
<path d="M1209.5 172.375H1214.53C1217.99 172.375 1219.61 176.669 1217 178.956L1202.02 192.062C1199.41 194.331 1201.03 198.625 1204.48 198.625H1209.5" stroke="white" stroke-width="3" stroke-linecap="round" stroke-linejoin="round"/>
<path d="M1197.29 173.312H1197.31" stroke="white" stroke-width="3" stroke-linecap="round" stroke-linejoin="round"/>
<path d="M1221.66 197.688H1221.68" stroke="white" stroke-width="3" stroke-linecap="round" stroke-linejoin="round"/>
<path d="M594.042 412.957H588.964C588.526 412.957 588.176 412.616 588.176 412.19V404.387C588.176 404.131 588.044 403.875 587.781 403.747L583.184 401.274C583.097 401.188 582.965 401.188 582.834 401.188C582.703 401.188 582.571 401.188 582.44 401.274L570.049 408.096C569.83 408.267 569.655 408.523 569.655 408.779V412.19C569.655 412.616 569.305 412.957 568.911 412.957H563.788C563.35 412.957 563 412.616 563 412.19V387.714C563 384.644 565.583 382.128 568.692 382.043H589.139C592.247 382.128 594.787 384.644 594.787 387.714V390.571C594.787 394.153 593.123 395.304 590.365 396.839C590.102 396.967 589.971 397.223 589.971 397.479C589.971 397.735 590.102 397.99 590.365 398.161L591.678 398.886C594.612 400.805 594.787 402.851 594.787 404.6V412.19C594.787 412.616 594.437 412.957 594.042 412.957ZM570.443 400.805C570.575 400.805 570.706 400.762 570.837 400.677L587.781 391.296C588.044 391.168 588.176 390.912 588.176 390.613V389.249C588.176 388.823 587.825 388.481 587.387 388.481H570.443C570.005 388.481 569.655 388.823 569.655 389.249V400.037C569.655 400.464 570.005 400.805 570.443 400.805Z" fill="white"/>
<path d="M641.85 387.671V390.4C641.893 392.106 641.718 394.153 638.741 396.072C638.697 396.114 638.653 396.114 638.61 396.157L627.445 402.254C626.701 402.681 625.737 402.468 625.256 401.743L623.592 399.44C623.067 398.673 623.285 397.564 624.161 397.095L634.406 391.509C634.932 391.21 635.282 390.656 635.282 390.059C635.282 389.164 634.538 388.396 633.575 388.396H618.425C617.462 388.396 616.718 389.164 616.718 390.059V405.197C616.718 406.092 617.462 406.817 618.425 406.817H637.515C638.435 406.817 639.223 407.542 639.223 408.48V411.294C639.223 412.19 638.435 412.915 637.515 412.915H615.886C612.69 412.915 610.107 410.356 610.107 407.286V387.671C610.107 384.601 612.646 382.043 615.755 382C615.798 382 615.842 382 615.886 382H636.07C636.114 382 636.158 382 636.245 382C639.354 382.043 641.85 384.601 641.85 387.671Z" fill="white"/>
<path d="M662.205 413H658.965C658.001 413 657.257 412.275 657.257 411.38V404.77H657.213V383.748C657.213 382.81 657.958 382.085 658.921 382.085H683.221C686.373 382.085 689 384.601 689 387.757V390.486C689 392.191 688.825 394.238 685.935 396.157L674.551 402.34C674.289 402.468 674.026 402.553 673.763 402.553C673.238 402.553 672.669 402.297 672.362 401.828L670.742 399.525C670.567 399.27 670.48 398.928 670.48 398.63C670.48 398.076 670.786 397.479 671.311 397.18L681.557 391.594C682.126 391.296 682.432 390.741 682.432 390.144C682.432 389.249 681.688 388.481 680.769 388.481H665.576C664.656 388.481 663.868 389.249 663.868 390.144V411.38C663.868 412.275 663.124 413 662.205 413Z" fill="white"/>
</g>
<defs>
<filter id="filter0_f_4009_22595" x="109.135" y="0" width="1034" height="774" filterUnits="userSpaceOnUse" color-interpolation-filters="sRGB">
<feFlood flood-opacity="0" result="BackgroundImageFix"/>
<feBlend mode="normal" in="SourceGraphic" in2="BackgroundImageFix" result="shape"/>
<feGaussianBlur stdDeviation="32" result="effect1_foregroundBlur_4009_22595"/>
</filter>
<filter id="filter1_d_4009_22595" x="996.8" y="287.8" width="87.4" height="87.4" filterUnits="userSpaceOnUse" color-interpolation-filters="sRGB">
<feFlood flood-opacity="0" result="BackgroundImageFix"/>
<feColorMatrix in="SourceAlpha" type="matrix" values="0 0 0 0 0 0 0 0 0 0 0 0 0 0 0 0 0 0 127 0" result="hardAlpha"/>
<feMorphology radius="2" operator="erode" in="SourceAlpha" result="effect1_dropShadow_4009_22595"/>
<feOffset dx="4" dy="6"/>
<feGaussianBlur stdDeviation="6.6"/>
<feComposite in2="hardAlpha" operator="out"/>
<feColorMatrix type="matrix" values="0 0 0 0 0 0 0 0 0 0 0 0 0 0 0 0 0 0 0.25 0"/>
<feBlend mode="normal" in2="BackgroundImageFix" result="effect1_dropShadow_4009_22595"/>
<feBlend mode="normal" in="SourceGraphic" in2="effect1_dropShadow_4009_22595" result="shape"/>
</filter>
<filter id="filter2_d_4009_22595" x="1176.4" y="153" width="76.2" height="76.6" filterUnits="userSpaceOnUse" color-interpolation-filters="sRGB">
<feFlood flood-opacity="0" result="BackgroundImageFix"/>
<feColorMatrix in="SourceAlpha" type="matrix" values="0 0 0 0 0 0 0 0 0 0 0 0 0 0 0 0 0 0 127 0" result="hardAlpha"/>
<feOffset dx="5" dy="6"/>
<feGaussianBlur stdDeviation="2.8"/>
<feComposite in2="hardAlpha" operator="out"/>
<feColorMatrix type="matrix" values="0 0 0 0 0 0 0 0 0 0 0 0 0 0 0 0 0 0 0.25 0"/>
<feBlend mode="normal" in2="BackgroundImageFix" result="effect1_dropShadow_4009_22595"/>
<feBlend mode="normal" in="SourceGraphic" in2="effect1_dropShadow_4009_22595" result="shape"/>
</filter>
<linearGradient id="paint0_linear_4009_22595" x1="635.886" y1="281.43" x2="1331.81" y2="281.43" gradientUnits="userSpaceOnUse">
<stop offset="0.0182341" stop-color="#FD4B28" stop-opacity="0"/>
<stop offset="0.127609" stop-color="#FD4B28"/>
<stop offset="0.563305" stop-color="#FD4C28" stop-opacity="0.65"/>
<stop offset="0.943305" stop-color="#FD4C28" stop-opacity="0"/>
</linearGradient>
<linearGradient id="paint1_linear_4009_22595" x1="615.906" y1="281.43" x2="-80.0197" y2="281.43" gradientUnits="userSpaceOnUse">
<stop offset="0.0182341" stop-color="#FD4B28" stop-opacity="0"/>
<stop offset="0.127609" stop-color="#FD4B28"/>
<stop offset="0.563305" stop-color="#FD4C28" stop-opacity="0.65"/>
<stop offset="0.943305" stop-color="#FD4C28" stop-opacity="0"/>
</linearGradient>
<linearGradient id="paint2_linear_4009_22595" x1="634.983" y1="466.216" x2="574.743" y2="346.539" gradientUnits="userSpaceOnUse">
<stop stop-color="#94122C"/>
<stop offset="1" stop-color="#CA3F16"/>
</linearGradient>
<clipPath id="clip0_4009_22595">
<rect width="1252" height="732" fill="white"/>
</clipPath>
<clipPath id="clip1_4009_22595">
<rect width="1440" height="701" fill="white" transform="translate(-94 -76)"/>
</clipPath>
<clipPath id="clip2_4009_22595">
<rect width="88" height="88" fill="white" transform="translate(993 293)"/>
</clipPath>
</defs>
</svg>
