<svg width="164" height="29" viewBox="0 0 164 29" fill="none" xmlns="http://www.w3.org/2000/svg">
<path d="M6.68637 15.8911C7.12599 15.3965 7.5756 14.8813 8.03521 14.3455C8.51479 13.8097 8.9744 13.2842 9.41403 12.769C9.85364 12.2332 10.2633 11.7283 10.643 11.2543C11.0426 10.7803 11.3823 10.3681 11.6621 10.0178H16.9675C15.9084 11.2749 14.8693 12.4805 13.8502 13.6345C12.8511 14.7679 11.752 15.9426 10.553 17.1584C11.1525 17.7149 11.772 18.3846 12.4115 19.1677C13.0509 19.9302 13.6704 20.7236 14.2699 21.5479C14.8693 22.3723 15.4188 23.1966 15.9184 24.0209C16.418 24.8452 16.8376 25.5974 17.1774 26.2775H12.0518C11.732 25.7417 11.3623 25.1543 10.9427 24.5155C10.543 23.856 10.1134 23.2069 9.65382 22.568C9.19421 21.9086 8.70463 21.2801 8.18509 20.6824C7.68551 20.0848 7.18594 19.5799 6.68637 19.1677V26.2775H2.22021V3.03169L6.68637 2.28979V15.8911Z" fill="#31373D"/>
<path d="M32.7147 25.7211C31.9554 25.9478 30.9762 26.1539 29.7773 26.3393C28.5783 26.5454 27.3194 26.6485 26.0005 26.6485C24.6617 26.6485 23.5426 26.463 22.6434 26.092C21.7642 25.7211 21.0648 25.2059 20.5452 24.5464C20.0257 23.8664 19.656 23.0627 19.4362 22.1353C19.2163 21.208 19.1064 20.1879 19.1064 19.075V10.0178H23.5726V18.5186C23.5726 20.0024 23.7624 21.074 24.1421 21.7335C24.5218 22.3929 25.2312 22.7226 26.2703 22.7226C26.59 22.7226 26.9297 22.7123 27.2894 22.6917C27.6491 22.6505 27.9688 22.6093 28.2486 22.5681V10.0178H32.7147V25.7211Z" fill="#31373D"/>
<path d="M47.0378 18.024C47.0378 15.0564 45.9787 13.5727 43.8606 13.5727C43.401 13.5727 42.9414 13.6345 42.4818 13.7581C42.0421 13.8818 41.6824 14.0364 41.4027 14.2218V22.599C41.6225 22.6402 41.9022 22.6814 42.242 22.7226C42.5817 22.7432 42.9513 22.7535 43.351 22.7535C44.57 22.7535 45.4892 22.3208 46.1086 21.4552C46.7281 20.5897 47.0378 19.4459 47.0378 18.024ZM51.5939 18.1476C51.5939 19.4459 51.4041 20.6206 51.0244 21.6716C50.6647 22.7226 50.1352 23.6191 49.4358 24.3609C48.7364 25.1028 47.8771 25.6798 46.858 26.092C45.8389 26.4836 44.6799 26.6793 43.381 26.6793C42.8414 26.6793 42.2719 26.6484 41.6725 26.5866C41.0929 26.5454 40.5134 26.4836 39.9339 26.4011C39.3744 26.3187 38.8349 26.226 38.3153 26.1229C37.7958 25.9993 37.3362 25.8756 36.9365 25.752V3.03169L41.4027 2.28979V10.3887C41.9022 10.1621 42.4218 9.98689 42.9613 9.86323C43.5009 9.7396 44.0804 9.67777 44.6998 9.67776C45.8189 9.67777 46.808 9.88385 47.6673 10.296C48.5265 10.6876 49.2459 11.2543 49.8254 11.9962C50.4049 12.7381 50.8446 13.6345 51.1443 14.6855C51.444 15.7159 51.5939 16.8699 51.5939 18.1476Z" fill="#31373D"/>
<path d="M54.2769 18.2712C54.2769 16.8287 54.4867 15.5716 54.9063 14.5C55.3459 13.4078 55.9154 12.501 56.6148 11.7797C57.3142 11.0584 58.1136 10.5123 59.0128 10.1414C59.932 9.77045 60.8712 9.58498 61.8304 9.58496C64.0684 9.58498 65.8369 10.296 67.1358 11.7179C68.4347 13.1192 69.0841 15.1903 69.0841 17.9312C69.0841 18.1991 69.0741 18.4979 69.0542 18.8276C69.0341 19.1368 69.0142 19.415 68.9942 19.6623H58.8629C58.9628 20.6102 59.3925 21.3624 60.1518 21.9188C60.9111 22.4753 61.9303 22.7535 63.2092 22.7535C64.0285 22.7535 64.8278 22.6813 65.6071 22.5371C66.4064 22.3722 67.0559 22.1764 67.5554 21.9497L68.1549 25.6901C67.9151 25.8137 67.5954 25.9374 67.1958 26.061C66.7961 26.1847 66.3465 26.2877 65.8469 26.3702C65.3673 26.4732 64.8478 26.5556 64.2882 26.6175C63.7287 26.6793 63.1692 26.7102 62.6097 26.7102C61.1909 26.7102 59.952 26.4938 58.8929 26.061C57.8538 25.6283 56.9845 25.0409 56.2851 24.2991C55.6057 23.5366 55.0961 22.6401 54.7564 21.6097C54.4367 20.5793 54.2769 19.4665 54.2769 18.2712ZM64.7678 16.5092C64.7479 16.1177 64.6779 15.7364 64.558 15.3655C64.4581 14.9946 64.2882 14.6648 64.0485 14.3763C63.8286 14.0878 63.5389 13.8508 63.1792 13.6653C62.8395 13.4799 62.4099 13.3871 61.8903 13.3871C61.3907 13.3871 60.9611 13.4799 60.6014 13.6653C60.2417 13.8302 59.942 14.0569 59.7022 14.3454C59.4624 14.6339 59.2726 14.974 59.1327 15.3655C59.0128 15.7364 58.9229 16.1177 58.8629 16.5092H64.7678Z" fill="#31373D"/>
<path d="M82.0326 14.0981C81.6329 13.9951 81.1633 13.8921 80.6238 13.789C80.0843 13.6654 79.5048 13.6036 78.8853 13.6036C78.6055 13.6036 78.2658 13.6345 77.8662 13.6963C77.4865 13.7375 77.1967 13.789 76.9969 13.8509V26.2775H72.5308V10.8833C73.3301 10.5948 74.2693 10.3269 75.3483 10.0796C76.4474 9.8117 77.6663 9.67775 79.0052 9.67773C79.245 9.67775 79.5347 9.69836 79.8744 9.73956C80.2141 9.76019 80.5538 9.8014 80.8936 9.86321C81.2333 9.90444 81.573 9.96626 81.9127 10.0487C82.2524 10.1105 82.5421 10.1929 82.7819 10.296L82.0326 14.0981Z" fill="#31373D"/>
<path d="M85.1763 10.5742C85.9356 10.3475 86.9148 10.1415 88.1137 9.95597C89.3127 9.74991 90.5716 9.64687 91.8905 9.64685C93.2293 9.64687 94.3384 9.83234 95.2176 10.2033C96.1168 10.5536 96.8262 11.0585 97.3458 11.718C97.8653 12.3774 98.235 13.1605 98.4549 14.0673C98.6746 14.974 98.7845 15.9838 98.7846 17.0966V26.2775H94.3184V17.653C94.3184 16.1693 94.1286 15.1183 93.7489 14.5C93.3692 13.8818 92.6598 13.5727 91.6207 13.5727C91.301 13.5727 90.9613 13.5933 90.6016 13.6345C90.2419 13.6551 89.9222 13.686 89.6424 13.7272V26.2775H85.1763V10.5742Z" fill="#31373D"/>
<path d="M102.107 18.2712C102.107 16.8287 102.317 15.5716 102.736 14.5C103.176 13.4078 103.746 12.501 104.445 11.7797C105.144 11.0584 105.944 10.5123 106.843 10.1414C107.762 9.77045 108.701 9.58498 109.66 9.58496C111.899 9.58498 113.667 10.296 114.966 11.7179C116.265 13.1192 116.914 15.1903 116.914 17.9312C116.914 18.1991 116.904 18.4979 116.884 18.8276C116.864 19.1368 116.844 19.415 116.824 19.6623H106.693C106.793 20.6102 107.223 21.3624 107.982 21.9188C108.741 22.4753 109.76 22.7535 111.039 22.7535C111.859 22.7535 112.658 22.6813 113.437 22.5371C114.236 22.3722 114.886 22.1764 115.386 21.9497L115.985 25.6901C115.745 25.8137 115.425 25.9374 115.026 26.061C114.626 26.1847 114.177 26.2877 113.677 26.3702C113.197 26.4732 112.678 26.5556 112.118 26.6175C111.559 26.6793 110.999 26.7102 110.44 26.7102C109.021 26.7102 107.782 26.4938 106.723 26.061C105.684 25.6283 104.815 25.0409 104.115 24.2991C103.436 23.5366 102.926 22.6401 102.587 21.6097C102.267 20.5793 102.107 19.4665 102.107 18.2712ZM112.598 16.5092C112.578 16.1177 112.508 15.7364 112.388 15.3655C112.288 14.9946 112.118 14.6648 111.879 14.3763C111.659 14.0878 111.369 13.8508 111.009 13.6653C110.67 13.4799 110.24 13.3871 109.72 13.3871C109.221 13.3871 108.791 13.4799 108.431 13.6653C108.072 13.8302 107.772 14.0569 107.532 14.3454C107.292 14.6339 107.103 14.974 106.963 15.3655C106.843 15.7364 106.753 16.1177 106.693 16.5092H112.598Z" fill="#31373D"/>
<path d="M120.211 5.96833L124.677 5.22644V10.0178H130.042V13.8509H124.677V19.5696C124.677 20.5382 124.837 21.311 125.157 21.888C125.496 22.465 126.166 22.7535 127.165 22.7535C127.645 22.7535 128.134 22.7123 128.634 22.6299C129.153 22.5268 129.623 22.3929 130.042 22.228L130.672 25.8138C130.132 26.0405 129.533 26.2363 128.873 26.4011C128.214 26.566 127.405 26.6484 126.446 26.6484C125.227 26.6484 124.217 26.4836 123.418 26.1538C122.619 25.8035 121.979 25.3295 121.5 24.7319C121.02 24.1137 120.681 23.3718 120.481 22.5062C120.301 21.6407 120.211 20.6824 120.211 19.6314V5.96833Z" fill="#31373D"/>
<path d="M132.315 18.2712C132.315 16.8287 132.525 15.5716 132.945 14.5C133.385 13.4078 133.954 12.501 134.653 11.7797C135.353 11.0584 136.152 10.5123 137.051 10.1414C137.971 9.77045 138.91 9.58498 139.869 9.58496C142.107 9.58498 143.875 10.296 145.174 11.7179C146.473 13.1192 147.123 15.1903 147.123 17.9312C147.123 18.1991 147.113 18.4979 147.093 18.8276C147.073 19.1368 147.053 19.415 147.033 19.6623H136.901C137.001 20.6102 137.431 21.3624 138.19 21.9188C138.95 22.4753 139.969 22.7535 141.248 22.7535C142.067 22.7535 142.866 22.6813 143.646 22.5371C144.445 22.3722 145.094 22.1764 145.594 21.9497L146.193 25.6901C145.954 25.8137 145.634 25.9374 145.234 26.061C144.835 26.1847 144.385 26.2877 143.885 26.3702C143.406 26.4732 142.886 26.5556 142.327 26.6175C141.767 26.6793 141.208 26.7102 140.648 26.7102C139.229 26.7102 137.991 26.4938 136.931 26.061C135.892 25.6283 135.023 25.0409 134.324 24.2991C133.644 23.5366 133.135 22.6401 132.795 21.6097C132.475 20.5793 132.315 19.4665 132.315 18.2712ZM142.806 16.5092C142.786 16.1177 142.716 15.7364 142.597 15.3655C142.497 14.9946 142.327 14.6648 142.087 14.3763C141.867 14.0878 141.577 13.8508 141.218 13.6653C140.878 13.4799 140.448 13.3871 139.929 13.3871C139.429 13.3871 139 13.4799 138.64 13.6653C138.28 13.8302 137.981 14.0569 137.741 14.3454C137.501 14.6339 137.311 14.974 137.171 15.3655C137.051 15.7364 136.961 16.1177 136.901 16.5092H142.806Z" fill="#31373D"/>
<path d="M155.095 22.9698C155.915 22.9698 156.494 22.8874 156.834 22.7225C157.174 22.5577 157.344 22.2383 157.344 21.7643C157.344 21.3933 157.124 21.0739 156.684 20.806C156.244 20.5175 155.575 20.1981 154.676 19.8477C153.976 19.5798 153.337 19.3016 152.757 19.0131C152.198 18.7246 151.718 18.3846 151.319 17.993C150.919 17.5809 150.609 17.0966 150.389 16.5402C150.17 15.9837 150.06 15.314 150.06 14.5309C150.06 13.0059 150.609 11.8003 151.708 10.9142C152.807 10.028 154.316 9.58498 156.234 9.58496C157.194 9.58498 158.113 9.67771 158.992 9.86317C159.871 10.028 160.571 10.2135 161.09 10.4196L160.311 14.0054C159.791 13.8199 159.222 13.655 158.602 13.5108C158.003 13.3665 157.324 13.2944 156.564 13.2944C155.165 13.2944 154.466 13.6963 154.466 14.5C154.466 14.6854 154.496 14.8503 154.556 14.9946C154.616 15.1388 154.736 15.2831 154.916 15.4273C155.095 15.551 155.335 15.6952 155.635 15.8601C155.955 16.0044 156.354 16.1692 156.834 16.3547C157.813 16.7256 158.622 17.0966 159.262 17.4675C159.901 17.8179 160.401 18.2094 160.761 18.6422C161.14 19.0543 161.4 19.518 161.54 20.0332C161.7 20.5484 161.78 21.146 161.78 21.8261C161.78 23.4335 161.19 24.6494 160.011 25.4737C158.852 26.298 157.204 26.7102 155.065 26.7102C153.667 26.7102 152.498 26.5865 151.558 26.3392C150.639 26.0919 150 25.8859 149.64 25.721L150.389 21.9807C151.149 22.2898 151.928 22.5371 152.727 22.7225C153.527 22.8874 154.316 22.9698 155.095 22.9698Z" fill="#31373D"/>
</svg>
