<svg width="100" height="40" viewBox="0 0 100 40" fill="none" xmlns="http://www.w3.org/2000/svg">
<g clip-path="url(#clip0_4046_15827)">
<mask id="mask0_4046_15827" style="mask-type:luminance" maskUnits="userSpaceOnUse" x="0" y="0" width="100" height="40">
<path d="M100 0H0V40H100V0Z" fill="white"/>
</mask>
<g mask="url(#mask0_4046_15827)">
<path d="M24.8978 31.9672H20.9879C20.6508 31.9672 20.3811 31.7031 20.3811 31.373V25.3317C20.3811 25.1336 20.28 24.9355 20.0778 24.8365L16.5386 22.9218C16.4712 22.8558 16.3701 22.8558 16.269 22.8558C16.1679 22.8558 16.0667 22.8558 15.9656 22.9218L6.42672 28.2038C6.25819 28.3358 6.12336 28.5339 6.12336 28.732V31.373C6.12336 31.7031 5.85371 31.9672 5.55036 31.9672H1.60671C1.26965 31.9672 1 31.7031 1 31.373V12.4239C1 10.047 2.98867 8.09923 5.38182 8.0332H21.1227C23.5158 8.09923 25.4708 10.047 25.4708 12.4239V14.6357C25.4708 17.4087 24.19 18.3001 22.0665 19.4885C21.8642 19.5875 21.7631 19.7856 21.7631 19.9837C21.7631 20.1818 21.8642 20.3798 22.0665 20.5119L23.0777 21.0731C25.336 22.5587 25.4708 24.1433 25.4708 25.4968V31.373C25.4708 31.7031 25.2012 31.9672 24.8978 31.9672ZM6.73008 22.5587C6.8312 22.5587 6.93232 22.5256 7.03344 22.4596L20.0778 15.1969C20.28 15.0979 20.3811 14.8998 20.3811 14.6687V13.6123C20.3811 13.2822 20.1115 13.0181 19.7744 13.0181H6.73008C6.39301 13.0181 6.12336 13.2822 6.12336 13.6123V21.9644C6.12336 22.2946 6.39301 22.5587 6.73008 22.5587Z" fill="#F4F4F5"/>
<path d="M61.7017 12.3906V14.5034C61.7354 15.8239 61.6006 17.4085 59.3085 18.8941C59.2748 18.9271 59.2412 18.9271 59.2075 18.9601L50.6124 23.6809C50.0394 24.011 49.2978 23.8459 48.927 23.2847L47.6462 21.5021C47.2417 20.9078 47.4103 20.0495 48.0844 19.6864L55.9716 15.3618C56.3761 15.1307 56.6457 14.7015 56.6457 14.2393C56.6457 13.5461 56.0727 12.9519 55.3312 12.9519H43.6688C42.9273 12.9519 42.3544 13.5461 42.3544 14.2393V25.9587C42.3544 26.652 42.9273 27.2132 43.6688 27.2132H58.3648C59.0726 27.2132 59.6793 27.7744 59.6793 28.5007V30.6795C59.6793 31.3728 59.0726 31.934 58.3648 31.934H41.7138C39.2533 31.934 37.2646 29.9532 37.2646 27.5763V12.3906C37.2646 10.0138 39.2197 8.03301 41.6128 8C41.6465 8 41.6801 8 41.7138 8H57.2525C57.2862 8 57.3199 8 57.3873 8C59.7804 8.03301 61.7017 10.0138 61.7017 12.3906Z" fill="#F4F4F5"/>
<path d="M77.3718 32.0004H74.8775C74.136 32.0004 73.563 31.4392 73.563 30.7459V25.629H73.5293V9.3539C73.5293 8.62762 74.1023 8.06641 74.8438 8.06641H93.5509C95.9777 8.06641 98.0001 10.0142 98.0001 12.4571V14.5699C98.0001 15.8904 97.8653 17.475 95.6407 18.9605L86.877 23.7473C86.6748 23.8463 86.4725 23.9124 86.2703 23.9124C85.8658 23.9124 85.4276 23.7143 85.1917 23.3512L83.9446 21.5685C83.8097 21.3704 83.7423 21.1063 83.7423 20.8752C83.7423 20.4461 83.9783 19.9839 84.3827 19.7528L92.27 15.4282C92.7082 15.1971 92.9441 14.7679 92.9441 14.3058C92.9441 13.6125 92.3712 13.0183 91.6633 13.0183H79.9672C79.2594 13.0183 78.6527 13.6125 78.6527 14.3058V30.7459C78.6527 31.4392 78.0797 32.0004 77.3718 32.0004Z" fill="#F4F4F5"/>
</g>
</g>
<defs>
<clipPath id="clip0_4046_15827">
<rect width="100" height="40" fill="white"/>
</clipPath>
</defs>
</svg>
