<svg width="100" height="40" viewBox="0 0 100 40" fill="none" xmlns="http://www.w3.org/2000/svg">
<g clip-path="url(#clip0_4013_23402)">
<path d="M24.8978 31.967H20.9879C20.6508 31.967 20.3811 31.7029 20.3811 31.3728V25.3315C20.3811 25.1334 20.28 24.9353 20.0778 24.8363L16.5386 22.9216C16.4712 22.8556 16.3701 22.8556 16.269 22.8556C16.1679 22.8556 16.0667 22.8556 15.9656 22.9216L6.42672 28.2036C6.25819 28.3356 6.12336 28.5337 6.12336 28.7318V31.3728C6.12336 31.7029 5.85371 31.967 5.55036 31.967H1.60671C1.26965 31.967 1 31.7029 1 31.3728V12.4237C1 10.0468 2.98867 8.09904 5.38182 8.03301H21.1227C23.5158 8.09904 25.4708 10.0468 25.4708 12.4237V14.6355C25.4708 17.4085 24.19 18.2999 22.0665 19.4883C21.8642 19.5873 21.7631 19.7854 21.7631 19.9835C21.7631 20.1816 21.8642 20.3796 22.0665 20.5117L23.0777 21.0729C25.336 22.5585 25.4708 24.1431 25.4708 25.4966V31.3728C25.4708 31.7029 25.2012 31.967 24.8978 31.967ZM6.73008 22.5585C6.8312 22.5585 6.93232 22.5254 7.03344 22.4594L20.0778 15.1967C20.28 15.0977 20.3811 14.8996 20.3811 14.6685V13.6121C20.3811 13.282 20.1115 13.0179 19.7744 13.0179H6.73008C6.39301 13.0179 6.12336 13.282 6.12336 13.6121V21.9642C6.12336 22.2944 6.39301 22.5585 6.73008 22.5585Z" fill="#1D1F20"/>
<path d="M61.7017 12.3906V14.5034C61.7354 15.8239 61.6006 17.4085 59.3085 18.8941C59.2748 18.9271 59.2411 18.9271 59.2074 18.9601L50.6123 23.6809C50.0393 24.011 49.2978 23.8459 48.927 23.2847L47.6462 21.5021C47.2417 20.9078 47.4102 20.0495 48.0843 19.6864L55.9716 15.3618C56.3761 15.1307 56.6457 14.7015 56.6457 14.2393C56.6457 13.5461 56.0727 12.9519 55.3312 12.9519H43.6688C42.9273 12.9519 42.3543 13.5461 42.3543 14.2393V25.9587C42.3543 26.652 42.9273 27.2132 43.6688 27.2132H58.3648C59.0726 27.2132 59.6793 27.7744 59.6793 28.5007V30.6795C59.6793 31.3728 59.0726 31.934 58.3648 31.934H41.7138C39.2533 31.934 37.2646 29.9532 37.2646 27.5763V12.3906C37.2646 10.0138 39.2196 8.03301 41.6127 8C41.6464 8 41.6801 8 41.7138 8H57.2525C57.2862 8 57.3199 8 57.3873 8C59.7804 8.03301 61.7017 10.0138 61.7017 12.3906Z" fill="#1D1F20"/>
<path d="M77.3717 32H74.8774C74.1359 32 73.5629 31.4388 73.5629 30.7455V25.6286H73.5292V9.35351C73.5292 8.62723 74.1022 8.06602 74.8437 8.06602H93.5508C95.9776 8.06602 98 10.0138 98 12.4567V14.5695C98 15.89 97.8652 17.4746 95.6406 18.9601L86.8769 23.7469C86.6747 23.8459 86.4724 23.912 86.2702 23.912C85.8657 23.912 85.4275 23.7139 85.1916 23.3508L83.9445 21.5681C83.8096 21.37 83.7422 21.1059 83.7422 20.8748C83.7422 20.4457 83.9782 19.9835 84.3826 19.7524L92.2699 15.4278C92.7081 15.1967 92.944 14.7675 92.944 14.3054C92.944 13.6121 92.3711 13.0179 91.6632 13.0179H79.9671C79.2593 13.0179 78.6526 13.6121 78.6526 14.3054V30.7455C78.6526 31.4388 78.0796 32 77.3717 32Z" fill="#1D1F20"/>
</g>
<defs>
<clipPath id="clip0_4013_23402">
<rect width="100" height="40" fill="white"/>
</clipPath>
</defs>
</svg>
