<svg width="127" height="37" viewBox="0 0 127 37" fill="none" xmlns="http://www.w3.org/2000/svg">
<path d="M12.4847 25.3552C13.787 25.3552 14.9097 24.9597 15.8528 24.2126C16.7959 23.4656 17.4695 22.4549 17.8287 21.2245C18.188 19.9941 18.0982 18.9834 17.6042 18.2364C17.1102 17.4894 16.1671 17.0939 14.8648 17.0939C13.5625 17.0939 12.4398 17.4894 11.4967 18.2364C10.5536 18.9834 9.92492 19.9941 9.56565 21.2245C9.20639 22.4549 9.2513 23.4656 9.79019 24.2126C10.2393 25.0036 11.1374 25.3552 12.4847 25.3552Z" fill="#31373D"/>
<path d="M51.6892 20.4775C51.0155 20.1259 50.3419 19.8623 49.5785 19.6865C48.8151 19.5107 48.1414 19.3789 47.4678 19.2031C46.7942 19.0713 46.2553 18.8955 45.8511 18.7198C45.4469 18.544 45.2224 18.2364 45.2224 17.8409C45.2224 17.3575 45.4469 17.006 45.8511 16.7863C46.2553 16.5666 46.7044 16.4787 47.1085 16.4787C48.366 16.4787 49.3539 16.9181 50.1174 17.8409L53.261 14.7649C52.4975 13.9739 51.5095 13.4027 50.3868 13.0951C49.2641 12.7875 48.1414 12.6117 47.0636 12.6117C46.2104 12.6117 45.3122 12.6996 44.5039 12.9193C43.6506 13.139 42.8872 13.4466 42.2585 13.93C41.5849 14.3694 41.0909 14.9407 40.6867 15.6438C40.2825 16.3468 40.1029 17.1818 40.1029 18.1485C40.1029 19.1592 40.3274 19.9941 40.7316 20.6093C41.1358 21.2245 41.6747 21.7079 42.3483 22.0594C43.0219 22.411 43.6955 22.6307 44.459 22.8065C45.2224 22.9822 45.896 23.1141 46.5696 23.2898C47.2433 23.4217 47.7822 23.5974 48.1863 23.8172C48.5905 24.0369 48.8151 24.3445 48.8151 24.7839C48.8151 25.2233 48.5905 25.5309 48.0965 25.7067C47.6025 25.8825 47.0636 25.9704 46.4798 25.9704C45.7164 25.9704 44.9979 25.8385 44.4141 25.5309C43.8303 25.2233 43.2914 24.7839 42.7974 24.2126L39.6538 27.5963C40.4622 28.4312 41.495 29.0024 42.6626 29.31C43.8752 29.6176 45.0428 29.7934 46.2104 29.7934C47.1085 29.7934 48.0067 29.7055 48.9498 29.5297C49.8479 29.354 50.7012 29.0903 51.4197 28.6509C52.1382 28.2554 52.767 27.6841 53.216 26.9811C53.6651 26.278 53.9346 25.443 53.9346 24.3884C53.9346 23.3777 53.71 22.5428 53.3059 21.9276C52.8568 21.3564 52.3179 20.829 51.6892 20.4775Z" fill="#31373D"/>
<path d="M70.1912 14.9846C69.5176 14.2376 68.7092 13.6663 67.7212 13.2708C66.7333 12.8754 65.6555 12.6556 64.4879 12.6556C63.1855 12.6556 61.973 12.8754 60.8503 13.2708C59.7276 13.6663 58.7396 14.2376 57.8864 14.9846C57.0331 15.7316 56.4044 16.6545 55.9104 17.7091C55.4164 18.7637 55.1919 19.9502 55.1919 21.2245C55.1919 22.5428 55.4164 23.6853 55.9104 24.74C56.4044 25.7946 57.0331 26.7174 57.8864 27.4644C58.7396 28.2115 59.7276 28.7827 60.8503 29.1782C61.973 29.5737 63.1855 29.7934 64.4879 29.7934C65.8351 29.7934 67.1374 29.5298 68.3949 28.9585C69.6523 28.3872 70.6852 27.5963 71.5384 26.5856L67.9458 23.9929C67.4967 24.5642 67.0027 25.0476 66.4189 25.4431C65.8351 25.7946 65.1166 26.0143 64.2633 26.0143C63.2753 26.0143 62.4221 25.7067 61.7036 25.1355C61.0299 24.5642 60.5809 23.7732 60.3563 22.8504H72.3019V21.2685C72.3019 19.9502 72.1222 18.8077 71.763 17.753C71.4037 16.6545 70.8648 15.7316 70.1912 14.9846ZM60.3114 19.3789C60.3563 18.9834 60.4461 18.5879 60.6258 18.2364C60.8054 17.8849 61.0299 17.5333 61.3443 17.2697C61.6587 17.006 62.0179 16.7423 62.467 16.5666C62.9161 16.3908 63.4101 16.3029 63.9939 16.3029C64.9369 16.3029 65.7004 16.6105 66.2842 17.2257C66.868 17.8409 67.1823 18.544 67.1374 19.4229H60.3114V19.3789Z" fill="#31373D"/>
<path d="M89.0525 14.8528C88.6035 14.1497 87.9747 13.6224 87.1664 13.2269C86.358 12.8314 85.3252 12.6556 84.0228 12.6556C83.3941 12.6556 82.8103 12.7435 82.3163 12.8754C81.7774 13.0511 81.3283 13.2269 80.9242 13.4906C80.52 13.7542 80.1607 14.0179 79.8464 14.3255C79.532 14.6331 79.3075 14.9407 79.1728 15.2483H79.038V13.0072H74.0981V29.354H79.2626V21.2685C79.2626 20.7412 79.3075 20.2138 79.3524 19.7305C79.4422 19.2471 79.5769 18.8077 79.8015 18.4122C80.026 18.0167 80.3404 17.7091 80.7445 17.4894C81.1487 17.2697 81.6876 17.1378 82.3612 17.1378C83.0348 17.1378 83.5288 17.2697 83.8881 17.5333C84.2474 17.797 84.5168 18.1485 84.6965 18.5879C84.8761 19.0274 84.9659 19.4668 85.0108 19.9941C85.0557 20.4775 85.0557 21.0048 85.0557 21.4442V29.4419H90.2201V20.3896C90.2201 19.291 90.1303 18.2803 89.9956 17.3136C89.7711 16.3908 89.5016 15.5559 89.0525 14.8528Z" fill="#31373D"/>
<path d="M103.962 20.4775C103.288 20.1259 102.615 19.8623 101.851 19.6865C101.088 19.5107 100.414 19.3789 99.7408 19.2031C99.0671 19.0713 98.5282 18.8955 98.1241 18.7198C97.7199 18.544 97.4954 18.2364 97.4954 17.8409C97.4954 17.3575 97.7199 17.006 98.1241 16.7863C98.5282 16.5666 98.9773 16.4787 99.3815 16.4787C100.639 16.4787 101.627 16.9181 102.39 17.8409L105.534 14.7649C104.77 13.9739 103.782 13.4027 102.66 13.0951C101.537 12.7875 100.414 12.6117 99.3366 12.6117C98.4833 12.6117 97.5852 12.6996 96.7768 12.9193C95.9236 13.139 95.1601 13.4466 94.5314 13.93C93.8578 14.3694 93.3638 14.9407 92.9596 15.6438C92.5555 16.3468 92.3758 17.1818 92.3758 18.1485C92.3758 19.1592 92.6004 19.9941 93.0046 20.6093C93.4087 21.2245 93.9476 21.7079 94.6212 22.0594C95.2949 22.411 95.9685 22.6307 96.7319 22.8065C97.4954 22.9822 98.169 23.1141 98.8426 23.2898C99.5162 23.4217 100.055 23.5974 100.459 23.8172C100.863 24.0369 101.088 24.3445 101.088 24.7839C101.088 25.2233 100.863 25.5309 100.369 25.7067C99.8755 25.8825 99.3366 25.9704 98.7528 25.9704C97.9893 25.9704 97.2708 25.8385 96.687 25.5309C96.1032 25.2233 95.5643 24.7839 95.0703 24.2126L91.9268 27.5963C92.7351 28.4312 93.768 29.0024 94.9356 29.31C96.1481 29.6176 97.3157 29.7934 98.4833 29.7934C99.3815 29.7934 100.28 29.7055 101.223 29.5297C102.121 29.354 102.974 29.0903 103.693 28.6509C104.411 28.2554 105.04 27.6841 105.489 26.9811C105.938 26.278 106.208 25.443 106.208 24.3884C106.208 23.3777 105.983 22.5428 105.579 21.9276C105.13 21.3564 104.591 20.829 103.962 20.4775Z" fill="#31373D"/>
<path d="M124.575 22.8065V20.9609C124.53 19.7744 124.35 18.6758 124.036 17.7091C123.677 16.6545 123.138 15.7316 122.464 14.9846C121.791 14.2376 120.982 13.6663 119.994 13.2708C119.006 12.8754 117.928 12.6556 116.761 12.6556C115.458 12.6556 114.246 12.8754 113.123 13.2708C112.001 13.6663 111.013 14.2376 110.159 14.9846C109.306 15.7316 108.677 16.6545 108.183 17.7091C107.689 18.7637 107.465 19.9502 107.465 21.2245C107.465 22.5428 107.689 23.6853 108.183 24.74C108.677 25.7946 109.306 26.7174 110.159 27.4644C111.013 28.2115 112.001 28.7827 113.123 29.1782C114.246 29.5737 115.458 29.7934 116.761 29.7934C118.108 29.7934 119.41 29.5298 120.668 28.9585C121.925 28.3872 122.958 27.5963 123.811 26.5856L120.219 23.9929C119.77 24.5642 119.276 25.0476 118.692 25.4431C118.108 25.7946 117.39 26.0143 116.536 26.0143C115.548 26.0143 114.695 25.7067 113.977 25.1355C113.303 24.5642 112.854 23.7732 112.629 22.8504H124.575V22.8065ZM112.584 19.3789C112.629 18.9834 112.719 18.5879 112.899 18.2364C113.078 17.8849 113.303 17.5333 113.617 17.2697C113.932 17.006 114.291 16.7423 114.74 16.5666C115.189 16.3908 115.683 16.3029 116.267 16.3029C117.21 16.3029 117.973 16.6105 118.557 17.2257C119.141 17.8409 119.455 18.544 119.41 19.4229H112.584V19.3789Z" fill="#31373D"/>
<path d="M23.6214 17.0938L24.789 13.051H26.8548L27.6631 10.1508C27.9326 9.27192 28.2469 8.39306 28.6511 7.60209C29.0104 6.81111 29.5493 6.10802 30.178 5.49282C30.8067 4.87762 31.615 4.39425 32.5581 4.0427C33.5012 3.69116 34.7137 3.51539 36.1059 3.51539C36.4651 3.51539 36.7795 3.51539 37.1387 3.55933C36.8244 2.28498 35.6568 1.36218 34.3095 1.31824H5.34383C3.72714 1.31824 2.4248 2.63653 2.4248 4.21848V29.4418L7.14015 13.051H11.9004L11.2717 15.2042H11.3615C11.631 14.8966 11.9902 14.633 12.4393 14.3254C12.8884 14.0178 13.3375 13.7541 13.8315 13.4904C14.3254 13.2268 14.8643 13.051 15.4481 12.8752C16.0319 12.6995 16.6158 12.6555 17.1996 12.6555C18.457 12.6555 19.4899 12.8752 20.388 13.2707C21.2862 13.6662 21.9598 14.2814 22.4987 15.0285C22.9478 15.6876 23.2172 16.4786 23.352 17.4014L23.7112 17.1377H23.6214V17.0938Z" fill="#31373D"/>
<path d="M36.8694 7.86584C36.6448 7.8219 36.3754 7.77795 36.061 7.77795C35.2527 7.77795 34.5791 7.95373 34.0402 8.30527C33.5462 8.65681 33.0971 9.3599 32.7827 10.4585L32.0193 13.0511H34.9383L35.6568 15.2922L33.7707 17.0939H30.8517L27.3039 29.3979H22.1844L25.7322 17.0939H23.7562L23.352 17.3575C23.352 17.4454 23.3969 17.5772 23.3969 17.6651C23.4868 18.6758 23.352 19.8183 22.9928 21.0487C22.6784 22.1913 22.1844 23.2898 21.5108 24.3445C20.8372 25.3991 20.0737 26.3219 19.2205 27.1129C18.3223 27.9038 17.3344 28.563 16.2566 29.0464C15.1788 29.5297 14.0561 29.7494 12.8435 29.7494C11.7658 29.7494 10.8227 29.5737 9.96943 29.2661C9.11618 28.9585 8.53237 28.3872 8.17311 27.5962H8.08329L5.83789 35.3742H34.2647C35.8814 35.3742 37.2286 34.0998 37.2286 32.4739V7.99767C37.0939 7.95373 36.9592 7.90978 36.8694 7.86584Z" fill="#31373D"/>
<path d="M124.665 30.101H125.024C125.204 30.101 125.293 30.0571 125.338 30.0131C125.383 29.9692 125.428 29.9252 125.428 29.8373C125.428 29.7934 125.428 29.7495 125.383 29.7055C125.338 29.6616 125.338 29.6176 125.248 29.6176C125.204 29.6176 125.114 29.5737 124.979 29.5737H124.665V30.101ZM124.395 31.0238V29.354H124.979C125.204 29.354 125.338 29.354 125.428 29.3979C125.518 29.4419 125.608 29.4858 125.653 29.5737C125.698 29.6616 125.742 29.7495 125.742 29.8373C125.742 29.9692 125.698 30.0571 125.608 30.1449C125.518 30.2328 125.383 30.2768 125.248 30.2768C125.293 30.3207 125.338 30.3207 125.383 30.3647C125.473 30.4525 125.518 30.5404 125.653 30.7162L125.877 31.0238H125.518L125.383 30.7601C125.248 30.5404 125.159 30.4086 125.114 30.3647C125.069 30.3207 124.979 30.3207 124.889 30.3207H124.71V31.0238H124.395ZM125.114 28.8706C124.889 28.8706 124.665 28.9145 124.44 29.0464C124.216 29.1782 124.081 29.31 123.946 29.5297C123.811 29.7495 123.767 29.9692 123.767 30.1889C123.767 30.4086 123.811 30.6283 123.946 30.848C124.081 31.0677 124.216 31.1996 124.44 31.3314C124.665 31.4632 124.889 31.5072 125.114 31.5072C125.338 31.5072 125.563 31.4632 125.787 31.3314C126.012 31.1996 126.147 31.0677 126.281 30.848C126.416 30.6283 126.461 30.4086 126.461 30.1889C126.461 29.9692 126.416 29.7495 126.281 29.5297C126.147 29.31 126.012 29.1782 125.787 29.0464C125.563 28.9145 125.338 28.8706 125.114 28.8706ZM125.114 28.6069C125.383 28.6069 125.653 28.6948 125.922 28.8266C126.192 28.9585 126.371 29.1343 126.506 29.3979C126.641 29.6616 126.73 29.9252 126.73 30.1889C126.73 30.4525 126.641 30.7162 126.506 30.9799C126.371 31.2435 126.147 31.4193 125.922 31.5511C125.653 31.6829 125.383 31.7708 125.114 31.7708C124.844 31.7708 124.575 31.6829 124.305 31.5511C124.036 31.4193 123.856 31.1996 123.722 30.9799C123.587 30.7162 123.497 30.4525 123.497 30.1889C123.497 29.9252 123.587 29.6616 123.722 29.3979C123.856 29.1343 124.081 28.9585 124.305 28.8266C124.575 28.6509 124.844 28.6069 125.114 28.6069Z" fill="#31373D"/>
</svg>
