<svg width="1200" height="1200" viewBox="0 0 1200 1200" fill="none" xmlns="http://www.w3.org/2000/svg">
<g clip-path="url(#clip0_4045_15811)">
<mask id="mask0_4045_15811" style="mask-type:luminance" maskUnits="userSpaceOnUse" x="0" y="0" width="1200" height="1200">
<path d="M1200 0H0V1200H1200V0Z" fill="white"/>
</mask>
<g mask="url(#mask0_4045_15811)">
<path d="M1197 0H3C1.34315 0 0 1.34315 0 3V1197C0 1198.66 1.34315 1200 3 1200H1197C1198.66 1200 1200 1198.66 1200 1197V3C1200 1.34315 1198.66 0 1197 0Z" fill="#F4F4F5"/>
</g>
<path d="M393.298 699.724H360.527C357.702 699.724 355.442 697.512 355.442 694.747V644.151C355.442 642.492 354.594 640.834 352.899 640.004L323.236 623.968C322.671 623.415 321.824 623.415 320.976 623.415C320.129 623.415 319.281 623.415 318.433 623.968L238.484 668.205C237.071 669.311 235.941 670.97 235.941 672.629V694.747C235.941 697.512 233.681 699.724 231.139 699.724H198.085C195.26 699.724 193 697.512 193 694.747V536.048C193 516.142 209.668 499.829 229.726 499.276H361.657C381.715 499.829 398.101 516.142 398.101 536.048V554.572C398.101 577.796 387.365 585.261 369.567 595.215C367.872 596.044 367.025 597.703 367.025 599.362C367.025 601.021 367.872 602.679 369.567 603.785L378.043 608.486C396.971 620.927 398.101 634.198 398.101 645.534V694.747C398.101 697.512 395.841 699.724 393.298 699.724ZM241.026 620.927C241.874 620.927 242.721 620.651 243.569 620.098L352.899 559.272C354.594 558.443 355.442 556.784 355.442 554.849V546.001C355.442 543.237 353.182 541.025 350.357 541.025H241.026C238.201 541.025 235.941 543.237 235.941 546.001V615.95C235.941 618.715 238.201 620.927 241.026 620.927Z" fill="black"/>
<path d="M701.768 535.772V553.466C702.05 564.525 700.92 577.796 681.71 590.238C681.427 590.514 681.145 590.514 680.862 590.791L608.823 630.327C604.02 633.092 597.805 631.71 594.697 627.01L583.962 612.08C580.572 607.103 581.985 599.915 587.635 596.873L653.741 560.655C657.132 558.719 659.392 555.125 659.392 551.254C659.392 545.448 654.589 540.472 648.374 540.472H550.626C544.411 540.472 539.608 545.448 539.608 551.254V649.404C539.608 655.21 544.411 659.911 550.626 659.911H673.8C679.732 659.911 684.817 664.611 684.817 670.693V688.941C684.817 694.747 679.732 699.447 673.8 699.447H534.241C513.618 699.447 496.95 682.858 496.95 662.952V535.772C496.95 515.865 513.335 499.276 533.393 499C533.676 499 533.958 499 534.241 499H664.477C664.759 499 665.042 499 665.607 499C685.665 499.276 701.768 515.865 701.768 535.772Z" fill="black"/>
<path d="M833.105 700H812.2C805.984 700 801.182 695.3 801.182 689.494V646.64H800.899V510.336C800.899 504.253 805.702 499.553 811.917 499.553H968.709C989.05 499.553 1006 515.865 1006 536.325V554.019C1006 565.078 1004.87 578.349 986.224 590.791L912.772 630.88C911.077 631.71 909.382 632.263 907.687 632.263C904.297 632.263 900.625 630.604 898.647 627.563L888.194 612.633C887.064 610.974 886.499 608.762 886.499 606.827C886.499 603.232 888.477 599.362 891.867 597.426L957.974 561.208C961.646 559.272 963.624 555.678 963.624 551.807C963.624 546.001 958.821 541.025 952.889 541.025H854.858C848.926 541.025 843.841 546.001 843.841 551.807V689.494C843.841 695.3 839.038 700 833.105 700Z" fill="black"/>
</g>
<defs>
<clipPath id="clip0_4045_15811">
<rect width="1200" height="1200" fill="white"/>
</clipPath>
</defs>
</svg>
