<svg width="740" height="362" viewBox="0 0 740 362" fill="none" xmlns="http://www.w3.org/2000/svg">
<mask id="mask0_4040_15782" style="mask-type:luminance" maskUnits="userSpaceOnUse" x="0" y="0" width="740" height="362">
<path d="M740 0H0V362H740V0Z" fill="white"/>
</mask>
<g mask="url(#mask0_4040_15782)">
<path d="M112.881 -2.09277V477.086" stroke="#FF9408" stroke-width="1.0452" stroke-miterlimit="10"/>
<path d="M363.729 242.729H740" stroke="#FF9408" stroke-width="1.0452" stroke-miterlimit="10"/>
<path d="M363.729 326.428H740" stroke="#FF9408" stroke-width="1.0452" stroke-miterlimit="10"/>
<path d="M363.729 284.578H740" stroke="#FF9408" stroke-width="1.0452" stroke-miterlimit="10"/>
<path d="M363.729 200.878H740" stroke="#FF9408" stroke-width="1.0452" stroke-miterlimit="10"/>
<path d="M363.729 200.941V416.405" stroke="#FF9408" stroke-width="1.0452" stroke-miterlimit="10"/>
<path d="M489.152 200.941V416.405" stroke="#FF9408" stroke-width="1.0452" stroke-miterlimit="10"/>
<path d="M614.576 200.941V416.405" stroke="#FF9408" stroke-width="1.0452" stroke-miterlimit="10"/>
<path d="M614.576 -2.09277V200.878" stroke="#FF9408" stroke-width="1.0452" stroke-miterlimit="10"/>
<path d="M306.243 254.759C306.243 195.533 258.044 147.52 198.587 147.52C139.131 147.52 90.9321 195.533 90.9321 254.759C90.9321 313.986 139.131 361.999 198.587 361.999C258.044 361.999 306.243 313.986 306.243 254.759Z" fill="#F3F4F6" stroke="#FF9408" stroke-width="0.836158" stroke-miterlimit="10"/>
<path d="M433.757 338.895H273.842C259.988 338.895 248.757 350.137 248.757 364.004V405.854C248.757 419.722 259.988 430.964 273.842 430.964H433.757C447.611 430.964 458.842 419.722 458.842 405.854V364.004C458.842 350.137 447.611 338.895 433.757 338.895Z" fill="#F3F4F6" stroke="#FF9408" stroke-width="0.836158" stroke-miterlimit="10"/>
<path d="M286.358 30.4607L213.499 58.1153C206.69 60.7002 203.263 68.3217 205.844 75.1383L233.471 148.069C236.054 154.886 243.668 158.317 250.477 155.732L323.336 128.077C330.146 125.492 333.573 117.871 330.99 111.054L303.363 38.1233C300.782 31.3065 293.167 27.8759 286.358 30.4607Z" fill="#F3F4F6" stroke="#FF9408" stroke-width="0.836158" stroke-miterlimit="10"/>
<path d="M705.323 52.7229C710.343 52.7229 714.414 48.6493 714.414 43.6241C714.414 38.599 710.343 34.5254 705.323 34.5254C700.303 34.5254 696.234 38.599 696.234 43.6241C696.234 48.6493 700.303 52.7229 705.323 52.7229Z" fill="#F3F4F6" stroke="#FF9408" stroke-width="0.836158" stroke-miterlimit="10"/>
<path d="M675.468 52.7229C680.489 52.7229 684.559 48.6493 684.559 43.6241C684.559 38.599 680.489 34.5254 675.468 34.5254C670.448 34.5254 666.378 38.599 666.378 43.6241C666.378 48.6493 670.448 52.7229 675.468 52.7229Z" fill="#F3F4F6" stroke="#FF9408" stroke-width="0.836158" stroke-miterlimit="10"/>
<path d="M645.615 52.7229C650.636 52.7229 654.705 48.6493 654.705 43.6241C654.705 38.599 650.636 34.5254 645.615 34.5254C640.595 34.5254 636.525 38.599 636.525 43.6241C636.525 48.6493 640.595 52.7229 645.615 52.7229Z" fill="#F3F4F6" stroke="#FF9408" stroke-width="0.836158" stroke-miterlimit="10"/>
<path d="M581.798 234.702C581.818 231.191 585.268 228.208 589.096 229.398L671.462 255.296C674.367 256.202 675.498 259.108 674.801 261.544L671.764 281.4C671.349 283.987 669.595 286.158 667.163 287.101L654.529 292.008L638.822 298.106C637.765 298.521 636.936 299.314 636.465 300.333L625.791 323.814C623.095 328.722 616.043 328.684 613.384 323.757L582.439 257.636C581.497 255.636 581.063 253.427 581.138 251.218L581.798 234.702Z" fill="#F3F4F6" stroke="#100D08" stroke-width="1.88136" stroke-miterlimit="10" stroke-linejoin="round"/>
<path d="M637.276 277.946L626.866 296.822C624.17 301.73 617.117 301.692 614.459 296.765L582.477 237.42C580.082 232.984 584.287 227.888 589.096 229.398L671.463 255.295C676.102 256.749 676.196 263.298 671.595 264.903L639.633 275.964C638.633 276.304 637.785 277.021 637.257 277.965L637.276 277.946Z" fill="#F3F4F6" stroke="#100D08" stroke-width="1.88136" stroke-miterlimit="10" stroke-linejoin="round"/>
<path d="M637.048 299.407L638.708 276.398" stroke="#100D08" stroke-width="1.0452" stroke-miterlimit="10" stroke-linejoin="round"/>
<path d="M625.81 323.794L629.072 292.688" stroke="#100D08" stroke-width="1.0452" stroke-miterlimit="10" stroke-linejoin="round"/>
<path d="M613.402 323.738L612.667 293.669" stroke="#100D08" stroke-width="1.0452" stroke-miterlimit="10" stroke-linejoin="round"/>
<path d="M628.266 149.756L600.678 193.486C597.769 198.146 592.666 200.984 587.161 200.984H530.315C524.809 200.998 519.706 198.146 516.796 193.486L489.492 149.756C486.254 144.574 486.254 138.017 489.478 132.849L517.065 89.1189C519.989 84.4442 525.077 81.6064 530.568 81.6064H587.429C592.934 81.6064 598.037 84.4442 600.947 89.089L628.251 132.849C631.489 138.017 631.489 144.588 628.266 149.756Z" fill="#F3F4F6" stroke="#100D08" stroke-width="1.88136" stroke-miterlimit="10"/>
<path d="M590.367 97.8406C591.337 96.3023 592.949 96.123 593.591 96.123C594.247 96.123 595.843 96.2873 596.813 97.8406L598.648 100.798V100.738L620.343 135.492C622.551 139.032 622.551 143.603 620.343 147.126L610.152 163.361L596.53 184.957C595.56 186.496 594.068 186.675 593.472 186.661C592.859 186.661 591.353 186.496 590.383 184.943L566.854 147.231C564.645 143.706 564.63 139.152 566.794 135.597L590.367 97.8406Z" fill="#F3F4F6" stroke="#100D08" stroke-width="1.0452" stroke-miterlimit="10"/>
<path d="M247.726 262.143C247.574 258.151 248.639 254.128 250.832 250.608L382.73 39.2989C386.504 33.2497 393.111 29.5928 400.235 29.5928H473.879C481.003 29.5928 487.624 33.2649 491.399 39.2989L494.17 43.7481L495.159 45.3328L509.133 67.701L526.775 95.9508C528.86 99.303 529.911 103.097 529.911 106.907C529.911 110.7 528.86 114.51 526.775 117.862L415.899 295.467L397.693 324.631L397.632 324.738L394.892 329.156C391.117 335.191 384.496 338.862 377.372 338.862H303.712C296.588 338.862 289.967 335.175 286.192 329.156L267.179 298.697L250.832 272.489C248.852 269.32 247.802 265.755 247.726 262.143Z" fill="#F3F4F6" stroke="#100D08" stroke-width="1.88136" stroke-linejoin="round"/>
<path d="M387.692 317.836C386.885 317.836 384.861 317.607 383.567 315.55L367.676 290.089L355.559 271.118L353.306 267.522C351.906 265.282 351.129 262.707 351.068 260.117C350.976 257.146 351.753 254.281 353.306 251.783L412.565 156.855L478.552 51.0626C479.846 48.9903 481.886 48.7617 482.692 48.7617C483.499 48.7617 485.539 48.9903 486.833 51.0626L487.792 52.6015L517.14 99.0598C520.124 103.844 520.124 110.03 517.14 114.815L391.863 315.443L391.802 315.55C390.508 317.607 388.499 317.836 387.677 317.836H387.692Z" fill="#F3F4F6" stroke="#100D08" stroke-width="1.0452" stroke-miterlimit="10" stroke-linejoin="round"/>
</g>
</svg>
