<svg width="192" height="46" viewBox="0 0 192 46" fill="none" xmlns="http://www.w3.org/2000/svg">
<path d="M60.2775 34.1734V15.7349H53.2114V12.1102H71.4132V15.7349H64.3787V34.1734H60.2775ZM78.2039 34.52C73.5353 34.52 70.2231 31.0529 70.2231 26.1677C70.2231 21.156 73.5669 17.7834 78.0465 17.7834C82.5891 17.7834 85.8696 20.9671 85.8696 25.8208V27.2706H74.1032C74.3242 29.7608 75.7753 31.4943 78.2039 31.4943C80.0655 31.4943 81.1064 30.6432 81.7372 29.0989L85.365 29.666C84.4815 32.6288 82.2102 34.52 78.2039 34.52ZM78.0465 20.8095C75.9959 20.8095 74.5133 22.2593 74.1664 24.5602H81.9266C81.6427 22.1961 80.2229 20.8095 78.0465 20.8095ZM88.66 34.1734V18.1303H92.3194V18.7922C92.3194 19.6746 92.2877 20.3681 92.0354 21.629L92.4139 21.7234C93.0131 19.6118 94.1172 18.1303 96.7041 18.1303H97.8712V22.0072H96.2623C93.8966 22.0072 92.6029 23.4254 92.6029 26.0729V34.1734H88.66ZM99.962 34.1734V18.1303H103.621V18.7922C103.621 19.6746 103.59 20.3681 103.337 21.629L103.716 21.7234C104.315 19.6118 105.419 18.1303 108.006 18.1303H109.173V22.0072H107.564C105.199 22.0072 103.905 23.4254 103.905 26.0729V34.1734H99.962ZM115.061 34.4255C111.844 34.4255 109.762 32.6604 109.762 29.8868C109.762 26.5775 112.128 25.5058 114.935 24.8439L119.762 23.7091V23.3625C119.762 21.6918 118.689 20.6518 116.986 20.6518C115.251 20.6518 114.241 21.5974 113.926 23.1104L110.456 22.7006C110.992 19.7062 113.516 17.7834 117.144 17.7834C121.087 17.7834 123.705 20.2736 123.705 23.9296V30.5171C123.705 30.9269 123.8 31.0845 124.115 31.0845H124.967V34.1734H122.601C121.087 34.1734 120.392 33.7004 120.392 32.4083C120.392 32.0301 120.456 31.5571 120.614 30.9901L120.266 30.8637C119.162 33.3223 117.49 34.4255 115.061 34.4255ZM113.705 29.5087C113.705 30.7692 114.62 31.5571 116.071 31.5571C118.247 31.5571 119.762 29.9813 119.762 27.4914V26.2621L116.197 27.1133C114.462 27.5227 113.705 28.1217 113.705 29.5087ZM128.921 34.1734V21.2821H126.018V18.1303H128.921V15.6405C128.921 12.7405 130.277 11.48 133.432 11.48H136.996V14.6001H134.126C133.179 14.6001 132.801 15.0415 132.801 16.0815V18.1303H136.555V21.2821H132.864V34.1734H128.921ZM145.778 34.52C141.046 34.52 137.639 31.0529 137.639 26.1677C137.639 21.2821 141.014 17.7834 145.778 17.7834C150.509 17.7834 153.948 21.2821 153.948 26.1677C153.948 31.0213 150.509 34.52 145.778 34.52ZM145.778 31.3366C148.333 31.3366 150.005 29.2566 150.005 26.1677C150.005 23.0788 148.333 20.9983 145.778 20.9983C143.254 20.9983 141.551 23.0788 141.551 26.1677C141.551 29.2566 143.254 31.3366 145.778 31.3366ZM156.692 34.1734V18.1303H160.351V18.7922C160.351 19.6746 160.319 20.3681 160.067 21.629L160.446 21.7234C161.045 19.6118 162.149 18.1303 164.736 18.1303H165.903V22.0072H164.294C161.928 22.0072 160.635 23.4254 160.635 26.0729V34.1734H156.692ZM167.994 34.1734V18.1303H171.843V18.8238C171.843 19.6746 171.779 20.242 171.559 21.3769L171.937 21.4713C172.757 18.9811 174.366 17.7834 176.89 17.7834C179.445 17.7834 181.117 18.9499 181.716 21.4081H182.063C182.915 18.9811 184.524 17.7834 186.921 17.7834C190.233 17.7834 192 19.9267 192 23.6146V34.1734H188.278V23.7407C188.278 21.9127 187.363 20.9039 185.722 20.9039C183.577 20.9039 182.063 22.7006 182.063 25.3482V34.1734H178.12V23.7407C178.12 21.9127 177.237 20.9039 175.596 20.9039C173.483 20.9039 171.937 22.7006 171.937 25.3482V34.1734H167.994Z" fill="#31373D"/>
<path fill-rule="evenodd" clip-rule="evenodd" d="M13.7144 8.1886L25.7829 15.3175V29.5829L13.7144 22.45V8.1886Z" fill="#31373D"/>
<path fill-rule="evenodd" clip-rule="evenodd" d="M26.8799 15.3175V29.5829L39.497 22.45V8.1886L26.8799 15.3175Z" fill="#31373D"/>
<path fill-rule="evenodd" clip-rule="evenodd" d="M0 0.508545V14.7702L12.0686 21.9028V7.64115L0 0.508545Z" fill="#31373D"/>
<path fill-rule="evenodd" clip-rule="evenodd" d="M13.7144 38.3588L25.7829 45.4915V31.3236V31.2298L13.7144 24.0972V38.3588Z" fill="#31373D"/>
</svg>
