<svg width="192" height="34" viewBox="0 0 192 34" fill="none" xmlns="http://www.w3.org/2000/svg">
<g clip-path="url(#clip0_4004_19943)">
<path d="M41.2467 25.7669L34.5669 5.35608H37.0719L42.1559 21.1079L47.3699 5.35608H49.6522L54.8476 21.0712L59.9502 5.35608H62.3809L55.7197 25.7669H53.8642L48.4647 9.33128L43.1209 25.7669H41.2469H41.2467Z" fill="#31373D"/>
<path d="M61.9233 25.7669V9.94055H64.4468V25.7669H61.9233Z" fill="#31373D"/>
<path d="M70.2969 18.8707V25.7668H67.8105V10.015H78.7211C80.3415 10.015 81.6094 10.4033 82.5248 11.1798C83.4401 11.9564 83.8978 13.0348 83.8979 14.4153C83.9164 15.4874 83.5288 16.5271 82.8124 17.3271C82.0887 18.147 81.1456 18.6493 79.9828 18.8339L84.3803 25.767H81.6899L77.1996 18.8709H70.2971L70.2969 18.8707ZM70.2969 16.5597H78.7208C79.5744 16.5597 80.2269 16.3748 80.6784 16.005C81.1298 15.6352 81.3555 15.1053 81.3556 14.415C81.3556 13.7249 81.1299 13.198 80.6784 12.8343C80.2267 12.4709 79.5741 12.2891 78.7208 12.2889H70.2969V16.5597Z" fill="#31373D"/>
<path d="M86.2417 25.7668V9.97827H101.104V12.2893H88.7277V16.2273H96.8548V18.5013H88.7277V23.4932H101.79V25.7672H86.2407L86.2417 25.7668Z" fill="#31373D"/>
<path d="M119.273 20.2393V17.2442H113.688V14.8962H121.815V21.0344C120.825 22.7353 119.535 24.0387 117.946 24.9446C116.356 25.8505 114.553 26.3035 112.537 26.3035C109.469 26.3035 106.937 25.2959 104.939 23.2806C102.941 21.2654 101.942 18.711 101.942 15.6173C101.942 12.5113 102.944 9.95065 104.948 7.93539C106.952 5.92019 109.482 4.9126 112.537 4.9126C114.43 4.9126 116.155 5.3255 117.714 6.15129C119.271 6.97558 120.583 8.19341 121.518 9.68254L119.384 11.1985C118.756 9.99388 117.788 8.99798 116.601 8.33281C115.362 7.63577 113.96 7.2785 112.537 7.29742C110.236 7.29742 108.331 8.08317 106.822 9.65468C105.313 11.2261 104.558 13.2136 104.559 15.6171C104.559 18.0206 105.313 20.005 106.822 21.5703C108.331 23.1357 110.236 23.9184 112.537 23.9183C113.972 23.9183 115.249 23.6101 116.369 22.9939C117.488 22.3777 118.456 21.4594 119.273 20.2391L119.273 20.2393Z" fill="#31373D"/>
<path d="M124.588 10.0154H127.075V20.1284C127.075 21.6445 127.434 22.6675 128.151 23.1974C128.868 23.7275 130.291 23.9925 132.419 23.9924C134.559 23.9924 135.987 23.7274 136.705 23.1974C137.422 22.6677 137.781 21.6447 137.781 20.1284V10.0154H140.249V20.7755C140.249 22.7107 139.633 24.1096 138.403 24.9724C137.172 25.8349 135.165 26.2663 132.381 26.2666C129.61 26.2666 127.619 25.8413 126.407 24.9908C125.194 24.1403 124.588 22.7352 124.588 20.7755L124.588 10.0154Z" fill="#31373D"/>
<path d="M139.86 25.7668L147.913 9.97827H149.472L157.599 25.7668H154.946L152.886 21.7549H144.518L142.477 25.7668H139.86ZM145.594 19.6657H151.791L148.711 13.6201L145.594 19.6657Z" fill="#31373D"/>
<path d="M160.356 18.8707V25.7668H157.87V10.015H168.78C170.401 10.015 171.669 10.4033 172.584 11.1798C173.499 11.9564 173.957 13.0348 173.957 14.4153C173.975 15.4874 173.588 16.5271 172.871 17.3271C172.148 18.147 171.205 18.6493 170.042 18.8339L174.439 25.767H171.749L167.259 18.8709H160.356L160.356 18.8707ZM160.356 16.5597H168.78C169.633 16.5597 170.286 16.3748 170.737 16.005C171.189 15.6352 171.415 15.1053 171.415 14.415C171.415 13.7249 171.189 13.198 170.737 12.8343C170.286 12.4709 169.633 12.2891 168.78 12.2889H160.356V16.5597Z" fill="#31373D"/>
<path d="M183.372 9.97839C185.957 9.97839 188.041 10.7148 189.625 12.1877C191.208 13.6607 192 15.5743 192 17.9283C192 20.3072 191.224 22.2085 189.671 23.632C188.119 25.0555 186.019 25.7673 183.372 25.7674H176.339V9.9788H183.372V9.97839ZM183.409 12.2525H178.826V23.4933H183.409C185.289 23.4933 186.767 22.991 187.843 21.9865C188.92 20.9821 189.458 19.617 189.458 17.8913C189.458 16.2274 188.901 14.8716 187.788 13.8239C186.674 12.7764 185.215 12.2526 183.409 12.2524L183.409 12.2525Z" fill="#31373D"/>
<path d="M30.7016 14.8557C30.7016 14.8557 31.4124 0 15.0261 0C0.534722 0 0.0819923 14.2505 0.0819923 14.2505C0.0819923 14.2505 -2.04962 30.6178 15.3601 30.6178C32.0578 30.6178 30.7016 14.8557 30.7016 14.8557ZM10.4415 9.6647C13.5161 7.79048 17.444 8.93599 18.9158 11.7545C19.1948 12.2886 19.2302 13.1109 19.0535 13.6713C18.4436 15.606 17.0036 16.691 15.0269 17.1519C15.6097 16.6548 16.0735 16.0911 16.2211 15.3122C16.298 14.9432 16.2964 14.5621 16.2162 14.1937C16.1361 13.8253 15.9792 13.4777 15.7559 13.1735C15.4056 12.694 14.9082 12.3412 14.3388 12.1683C13.7694 11.9954 13.1591 12.0119 12.6 12.2152C11.383 12.6756 10.7164 13.7823 10.8366 15.1426C10.9482 16.4062 11.9104 17.2251 13.7108 17.5362C13.4417 17.6781 13.2345 17.7826 13.0317 17.8952C12.207 18.3454 11.4893 18.9674 10.9274 19.7188C10.7447 19.9646 10.6191 19.9844 10.3408 19.8148C6.72126 17.6093 6.48869 12.0742 10.4415 9.6647ZM7.73239 23.2927C7.15092 23.4397 6.58746 23.6574 5.99307 23.8517C6.28381 21.8972 8.5809 20.0971 10.5234 20.3025C9.96065 21.075 9.63211 21.9921 9.5768 22.9451C8.9313 23.0636 8.32299 23.1433 7.73239 23.2927ZM20.1046 4.20964C20.6792 4.23067 21.2548 4.22198 21.8299 4.23554C21.9734 4.24498 22.1161 4.26479 22.2567 4.2948C22.1281 4.49155 21.983 4.67705 21.8229 4.84931C21.6173 5.04017 21.3851 5.22679 21.0889 4.93667C21.0176 4.86689 20.8493 4.88291 20.7254 4.88128C20.1536 4.8738 19.5811 4.85559 19.0101 4.87707C18.5147 4.89288 18.021 4.94311 17.5326 5.0274C17.4411 5.04377 17.3042 5.347 17.3463 5.4588C17.4456 5.72266 17.5904 6.01363 17.805 6.18238C18.5978 6.80596 19.4409 7.36586 20.2374 7.98516C21.0113 8.58696 21.7317 9.2464 22.1707 10.1542C22.7427 11.3371 22.7594 12.5774 22.5127 13.8232C22.1009 15.903 21.0446 17.6261 19.3342 18.8776C18.645 19.3819 17.7916 19.6681 17.0022 20.0304C16.308 20.3491 15.5933 20.6235 14.8974 20.9388C13.6428 21.5072 12.9377 22.8641 13.1451 24.2749C13.3355 25.5695 14.4753 26.6499 15.7811 26.8729C17.3474 27.1405 18.9636 26.1262 19.3468 24.5399C19.7777 22.7561 18.805 21.1634 16.9843 20.6807C16.9041 20.6594 16.8236 20.6393 16.6564 20.5963C17.1434 20.3795 17.5641 20.225 17.9524 20.0121C18.6299 19.6406 19.295 19.2473 19.9478 18.8321C20.1398 18.7097 20.2435 18.7096 20.4072 18.8507C21.6594 19.9294 22.4064 21.2713 22.6158 22.9166C22.9625 25.6399 21.6687 28.1418 19.2284 29.4241C15.4529 31.408 10.8329 29.1499 9.99906 24.9792C9.28475 21.4068 11.8151 18.1664 14.8605 17.5407C16.1702 17.2717 17.3679 16.7284 18.2989 15.7234C18.8997 15.0749 19.1909 14.5185 19.2902 14.2674C19.475 13.7969 19.5695 13.296 19.5689 12.7907C19.5489 12.3536 19.4459 11.9242 19.2651 11.5254C18.9472 10.8033 17.7292 9.65461 17.4277 9.41233L14.5597 7.17509C14.4586 7.09216 14.3447 7.09817 14.098 7.11483C13.8049 7.13462 13.0558 7.17595 12.7325 7.09154C12.994 6.89435 13.7069 6.60726 14.0131 6.37641C13.0837 5.75082 12.0229 5.97677 11.0487 5.78997C11.274 5.37195 12.3886 4.72957 13.0225 4.65803C12.9849 4.30529 12.9272 3.95496 12.8496 3.60876C12.811 3.46672 12.6518 3.32904 12.513 3.24793C12.1765 3.05129 11.8197 2.88902 11.4325 2.69347C11.7791 2.47027 12.1807 2.34649 12.5932 2.3357C12.984 2.3209 13.375 2.35885 13.7556 2.44854C14.4462 2.60576 14.9974 2.50313 15.5468 2.03541C15.1144 1.86188 14.682 1.70336 14.2626 1.51585C13.8494 1.32816 13.4466 1.11835 13.0561 0.887341C14.1441 1.03793 15.1964 1.44443 16.3089 1.29593C16.3184 1.24554 16.3278 1.19516 16.3373 1.14479C15.5056 0.951904 14.674 0.759022 13.7531 0.545453C15.2937 0.404928 16.7278 0.38175 18.0859 1.04086C18.4681 1.22633 18.8679 1.37985 19.2342 1.59169C19.4129 1.69502 19.5332 1.89867 19.6798 2.05702C19.7962 2.18281 19.8897 2.35133 20.0327 2.42713C20.5756 2.71477 21.1731 2.72607 21.782 2.71166C21.7865 2.64257 21.7908 2.57782 21.7954 2.50823C22.4081 2.699 23.0977 3.40307 23.0966 3.91725C22.104 3.91725 21.1122 3.91348 20.1205 3.92275C20.0145 3.92374 19.9092 4.00089 19.8036 4.04271C19.904 4.10096 20.0026 4.20595 20.105 4.2097L20.1046 4.20964Z" fill="#31373D"/>
<path d="M18.8241 2.74604C18.804 2.75855 18.7872 2.77555 18.7749 2.7957C18.7627 2.81584 18.7553 2.83856 18.7534 2.86205C18.7515 2.88554 18.7552 2.90914 18.7641 2.93097C18.773 2.9528 18.7869 2.97225 18.8047 2.98777C18.8197 3.01404 18.8397 3.03707 18.8637 3.05553C18.8877 3.074 18.9151 3.08753 18.9444 3.09533C18.9737 3.10314 19.0042 3.10506 19.0343 3.101C19.0643 3.09694 19.0932 3.08696 19.1194 3.07166C19.2149 3.02364 19.3086 2.97252 19.4241 2.91178C19.3311 2.83269 19.2565 2.76739 19.1797 2.70436C19.0447 2.59352 18.9328 2.66315 18.8241 2.74604Z" fill="#31373D"/>
</g>
<defs>
<clipPath id="clip0_4004_19943">
<rect width="192" height="34" fill="white"/>
</clipPath>
</defs>
</svg>
