<svg width="124" height="32" viewBox="0 0 124 32" fill="none" xmlns="http://www.w3.org/2000/svg">
<mask id="mask0_4004_19837" style="mask-type:luminance" maskUnits="userSpaceOnUse" x="0" y="0" width="124" height="32">
<path d="M124 0H0V32H124V0Z" fill="white"/>
</mask>
<g mask="url(#mask0_4004_19837)">
<path d="M124 0H0V32H124V0Z" fill="#31373D"/>
<path d="M5.31012 4.87207H23.2561V7.18805L8.82013 24.6021H23.5911V27.1281H4.9751V24.8421L19.4101 7.42905H5.31012V4.87207Z" fill="white"/>
<path d="M33.998 4.90198H37.508L46.206 27.158H43.001L40.926 21.444H30.641L28.535 27.158H25.27L33.998 4.90198ZM35.738 7.87997L31.557 18.947H39.949L35.738 7.87997Z" fill="white"/>
<path d="M49.502 4.90198H57.4099C59.7599 4.90198 61.59 5.38298 62.84 6.31598C64.12 7.27798 64.8199 8.81198 64.7299 10.376C64.7899 11.549 64.4599 12.692 63.7499 13.624C63.0199 14.466 61.98 15.008 60.89 15.128C62.26 15.368 63.5099 16.06 64.4299 17.113C65.3099 18.196 65.7399 19.549 65.6799 20.902C65.7699 22.677 65.0099 24.361 63.5999 25.474C62.2299 26.556 60.2399 27.098 57.6799 27.098H49.502V4.90198ZM52.5839 7.36798V14.075H57.1599C58.6599 14.075 59.79 13.805 60.52 13.233C61.28 12.632 61.7099 11.669 61.6199 10.707C61.6799 9.74397 61.28 8.81196 60.52 8.17996C59.79 7.63896 58.6599 7.33798 57.1599 7.33798H52.5839V7.36798ZM52.5839 16.511V24.662H57.53C59.18 24.662 60.4299 24.331 61.2199 23.669C62.0099 23.008 62.4099 21.955 62.4099 20.602C62.4099 19.218 62.0099 18.196 61.2199 17.534C60.4299 16.872 59.21 16.541 57.53 16.541L52.5839 16.511Z" fill="white"/>
<path d="M70.6499 4.90198H78.5599C80.9099 4.90198 82.7099 5.38298 83.9899 6.31598C85.2699 7.27798 85.9699 8.81198 85.9099 10.376C85.9699 11.549 85.6399 12.692 84.9399 13.624C84.1999 14.466 83.1999 15.008 82.0699 15.128C83.4399 15.368 84.6899 16.06 85.6099 17.113C86.4899 18.196 86.9199 19.549 86.8599 20.902C86.9499 22.677 86.1899 24.361 84.7799 25.474C83.4099 26.556 81.4299 27.098 78.8299 27.098H70.6499V4.90198ZM73.7299 7.36798V14.075H78.3099C79.8099 14.075 80.9399 13.805 81.6699 13.233C82.4299 12.632 82.8599 11.669 82.7699 10.707C82.8299 9.74397 82.4299 8.81196 81.6699 8.17996C80.9399 7.63896 79.8099 7.33798 78.3099 7.33798H73.7299V7.36798ZM73.7299 16.511V24.662H78.6799C80.3299 24.662 81.5499 24.331 82.3699 23.669C83.1699 23.008 83.5599 21.955 83.5599 20.602C83.5599 19.218 83.1699 18.196 82.3699 17.534C81.5799 16.872 80.3599 16.541 78.6799 16.541L73.7299 16.511Z" fill="white"/>
<path d="M100.74 4.87207H104.13L109.5 12.8721L114.91 4.87207H118.2L111.12 15.3081L119.06 27.1281H115.67L109.41 17.8051L103.13 27.1281H99.8301L107.79 15.399L100.74 4.87207Z" fill="white"/>
<path d="M94.85 4.87207H91.77V27.1281H94.85V4.87207Z" fill="white"/>
</g>
</svg>
