<svg width="293" height="150" viewBox="0 0 293 150" fill="none" xmlns="http://www.w3.org/2000/svg">
<path d="M287.977 32H5.08496V120H287.977V32Z" stroke="#505967" stroke-width="0.5" stroke-linecap="round" stroke-dasharray="4 4"/>
<path d="M8.12694 27H3.0572C1.93722 27 1.0293 27.8954 1.0293 29V34C1.0293 35.1046 1.93722 36 3.0572 36H8.12694C9.24692 36 10.1548 35.1046 10.1548 34V29C10.1548 27.8954 9.24692 27 8.12694 27Z" fill="#26282D" stroke="#505967" stroke-width="0.5"/>
<path d="M290.005 27H284.935C283.815 27 282.907 27.8954 282.907 29V34C282.907 35.1046 283.815 36 284.935 36H290.005C291.125 36 292.033 35.1046 292.033 34V29C292.033 27.8954 291.125 27 290.005 27Z" fill="#26282D" stroke="#505967" stroke-width="0.5"/>
<path d="M8.12694 115H3.0572C1.93722 115 1.0293 115.895 1.0293 117V122C1.0293 123.105 1.93722 124 3.0572 124H8.12694C9.24692 124 10.1548 123.105 10.1548 122V117C10.1548 115.895 9.24692 115 8.12694 115Z" fill="#26282D" stroke="#505967" stroke-width="0.5"/>
<path d="M290.005 115H284.935C283.815 115 282.907 115.895 282.907 117V122C282.907 123.105 283.815 124 284.935 124H290.005C291.125 124 292.033 123.105 292.033 122V117C292.033 115.895 291.125 115 290.005 115Z" fill="#26282D" stroke="#505967" stroke-width="0.5"/>
<path d="M217 17H77.0754C73.7155 17 70.9917 19.6863 70.9917 23V45C70.9917 48.3137 73.7155 51 77.0754 51H217C220.36 51 223.084 48.3137 223.084 45V23C223.084 19.6863 220.36 17 217 17Z" fill="#26282D"/>
<path d="M217 17.25H77.0753C73.8554 17.25 71.2451 19.8244 71.2451 23V45C71.2451 48.1756 73.8554 50.75 77.0753 50.75H217C220.22 50.75 222.831 48.1756 222.831 45V23C222.831 19.8244 220.22 17.25 217 17.25Z" stroke="#505967" stroke-width="0.5"/>
<path d="M160.219 34.5374L165.03 29.167V33.4633H168.156L163.003 38.8337V34.5374H160.219Z" fill="#4B8BFF" stroke="#4B8BFF" stroke-width="1.2" stroke-linecap="round" stroke-linejoin="round"/>
<path d="M197.736 31H178.471C176.791 31 175.429 32.3431 175.429 34C175.429 35.6569 176.791 37 178.471 37H197.736C199.416 37 200.777 35.6569 200.777 34C200.777 32.3431 199.416 31 197.736 31Z" fill="#4B8BFF"/>
<path d="M217 58H77.0754C73.7155 58 70.9917 60.6863 70.9917 64V127C70.9917 130.314 73.7155 133 77.0754 133H217C220.36 133 223.084 130.314 223.084 127V64C223.084 60.6863 220.36 58 217 58Z" fill="#26282D"/>
<path d="M217 58.25H77.0753C73.8554 58.25 71.2451 60.8244 71.2451 64V127C71.2451 130.176 73.8554 132.75 77.0753 132.75H217C220.22 132.75 222.831 130.176 222.831 127V64C222.831 60.8244 220.22 58.25 217 58.25Z" stroke="#505967" stroke-width="0.5"/>
<path d="M171.373 58V133" stroke="#505967" stroke-width="0.5"/>
<path d="M96.5 33.9999C96.3674 33.9999 96.2402 34.0526 96.1464 34.1464C96.0527 34.2401 96 34.3673 96 34.4999V35.4999H93.2068L92.0625 34.3537L95.2087 31.2068C95.3961 31.0192 95.5014 30.765 95.5014 30.4999C95.5014 30.2348 95.3961 29.9805 95.2087 29.793L92.8537 27.4374L91.7068 26.293C91.614 26.2001 91.5037 26.1264 91.3824 26.0761C91.261 26.0259 91.131 26 90.9996 26C90.8683 26 90.7382 26.0259 90.6169 26.0761C90.4956 26.1264 90.3853 26.2001 90.2924 26.293L81.1824 35.4337C81.0952 35.5212 81.0358 35.6325 81.0119 35.7537C80.9879 35.8749 81.0004 36.0004 81.0477 36.1145C81.0951 36.2286 81.1752 36.3261 81.2779 36.3947C81.3806 36.4633 81.5014 36.4999 81.6249 36.4999H84.0855L86.293 38.7068C86.4806 38.8942 86.7348 38.9995 86.9999 38.9995C87.265 38.9995 87.5193 38.8942 87.7068 38.7068L91.3537 35.0624L92.5 36.2068C92.5925 36.3001 92.7026 36.374 92.824 36.4243C92.9453 36.4747 93.0755 36.5004 93.2068 36.4999H96V37.4999C96 37.6326 96.0527 37.7597 96.1464 37.8535C96.2402 37.9473 96.3674 37.9999 96.5 37.9999C96.6326 37.9999 96.7598 37.9473 96.8536 37.8535C96.9473 37.7597 97 37.6326 97 37.4999V34.4999C97 34.3673 96.9473 34.2401 96.8536 34.1464C96.7598 34.0526 96.6326 33.9999 96.5 33.9999ZM91 26.9999L91.7931 27.793L84.0855 35.4999H82.5286L91 26.9999Z" fill="#4B8BFF"/>
<path d="M151.094 31H104.452C102.772 31 101.41 32.3431 101.41 34C101.41 35.6569 102.772 37 104.452 37H151.094C152.774 37 154.136 35.6569 154.136 34C154.136 32.3431 152.774 31 151.094 31Z" fill="#505967"/>
<path d="M211.419 69H179.581C178.156 69 177 70.3431 177 72C177 73.6569 178.156 75 179.581 75H211.419C212.844 75 214 73.6569 214 72C214 70.3431 212.844 69 211.419 69Z" fill="#505967"/>
<path d="M210.917 99H180.498C178.818 99 177.457 100.343 177.457 102C177.457 103.657 178.818 105 180.498 105H210.917C212.597 105 213.959 103.657 213.959 102C213.959 100.343 212.597 99 210.917 99Z" fill="#505967"/>
<path d="M194.694 114H180.498C178.818 114 177.457 115.343 177.457 117C177.457 118.657 178.818 120 180.498 120H194.694C196.374 120 197.736 118.657 197.736 117C197.736 115.343 196.374 114 194.694 114Z" fill="#4B8BFF"/>
<path d="M204.833 84H180.498C178.818 84 177.457 85.3431 177.457 87C177.457 88.6569 178.818 90 180.498 90H204.833C206.513 90 207.875 88.6569 207.875 87C207.875 85.3431 206.513 84 204.833 84Z" fill="#505967"/>
</svg>
