<svg width="292" height="150" viewBox="0 0 292 150" fill="none" xmlns="http://www.w3.org/2000/svg">
<path d="M287.446 31.5518H4.5542V120.472H287.446V31.5518Z" stroke="#505967" stroke-width="0.5" stroke-linecap="round" stroke-dasharray="4 4"/>
<path d="M7.59618 26.499H2.52643C1.40646 26.499 0.498535 27.4038 0.498535 28.5199V33.5722C0.498535 34.6883 1.40646 35.5931 2.52643 35.5931H7.59618C8.71616 35.5931 9.62408 34.6883 9.62408 33.5722V28.5199C9.62408 27.4038 8.71616 26.499 7.59618 26.499Z" fill="#26282D" stroke="#505967" stroke-width="0.5"/>
<path d="M289.474 26.499H284.404C283.284 26.499 282.376 27.4038 282.376 28.5199V33.5722C282.376 34.6883 283.284 35.5931 284.404 35.5931H289.474C290.594 35.5931 291.502 34.6883 291.502 33.5722V28.5199C291.502 27.4038 290.594 26.499 289.474 26.499Z" fill="#26282D" stroke="#505967" stroke-width="0.5"/>
<path d="M7.59618 115.418H2.52643C1.40646 115.418 0.498535 116.323 0.498535 117.439V122.491C0.498535 123.607 1.40646 124.512 2.52643 124.512H7.59618C8.71616 124.512 9.62408 123.607 9.62408 122.491V117.439C9.62408 116.323 8.71616 115.418 7.59618 115.418Z" fill="#26282D" stroke="#505967" stroke-width="0.5"/>
<path d="M289.474 115.418H284.404C283.284 115.418 282.376 116.323 282.376 117.439V122.491C282.376 123.607 283.284 124.512 284.404 124.512H289.474C290.594 124.512 291.502 123.607 291.502 122.491V117.439C291.502 116.323 290.594 115.418 289.474 115.418Z" fill="#26282D" stroke="#505967" stroke-width="0.5"/>
<path d="M155.633 99.252H117.103C113.743 99.252 111.02 101.966 111.02 105.315V127.545C111.02 130.893 113.743 133.607 117.103 133.607H155.633C158.993 133.607 161.717 130.893 161.717 127.545V105.315C161.717 101.966 158.993 99.252 155.633 99.252Z" fill="#26282D"/>
<path d="M155.633 99.5049H117.103C113.883 99.5049 111.273 102.106 111.273 105.315V127.545C111.273 130.754 113.883 133.355 117.103 133.355H155.633C158.853 133.355 161.463 130.754 161.463 127.545V105.315C161.463 102.106 158.853 99.5049 155.633 99.5049Z" stroke="#383E47" stroke-width="0.5"/>
<path d="M132.312 124.514H118.117C116.997 124.514 116.089 125.418 116.089 126.535C116.089 127.651 116.997 128.555 118.117 128.555H132.312C133.432 128.555 134.34 127.651 134.34 126.535C134.34 125.418 133.432 124.514 132.312 124.514Z" fill="#383E47"/>
<path d="M97.8379 99.252H59.3078C55.9479 99.252 53.2241 101.966 53.2241 105.315V127.545C53.2241 130.893 55.9479 133.607 59.3078 133.607H97.8379C101.198 133.607 103.922 130.893 103.922 127.545V105.315C103.922 101.966 101.198 99.252 97.8379 99.252Z" fill="#26282D"/>
<path d="M97.8378 99.5049H59.3077C56.0878 99.5049 53.4775 102.106 53.4775 105.315V127.545C53.4775 130.754 56.0878 133.355 59.3077 133.355H97.8378C101.058 133.355 103.668 130.754 103.668 127.545V105.315C103.668 102.106 101.058 99.5049 97.8378 99.5049Z" stroke="#383E47" stroke-width="0.5"/>
<path d="M73.5032 124.514H60.3218C59.2019 124.514 58.2939 125.418 58.2939 126.535C58.2939 127.651 59.2019 128.555 60.3218 128.555H73.5032C74.6232 128.555 75.5311 127.651 75.5311 126.535C75.5311 125.418 74.6232 124.514 73.5032 124.514Z" fill="#383E47"/>
<path d="M90.7398 57.8223H59.3073C55.9474 57.8223 53.2236 60.5366 53.2236 63.885V86.1149C53.2236 89.4633 55.9474 92.1777 59.3073 92.1777H90.7398C94.0997 92.1777 96.8235 89.4633 96.8235 86.1149V63.885C96.8235 60.5366 94.0997 57.8223 90.7398 57.8223Z" fill="#26282D"/>
<path d="M90.7397 58.0752H59.3073C56.0873 58.0752 53.4771 60.6765 53.4771 63.8853V86.1153C53.4771 89.3241 56.0873 91.9254 59.3073 91.9254H90.7397C93.9596 91.9254 96.5699 89.3241 96.5699 86.1153V63.8853C96.5699 60.6765 93.9596 58.0752 90.7397 58.0752Z" stroke="#383E47" stroke-width="0.5"/>
<path d="M73.5027 83.083H60.3214C59.2014 83.083 58.2935 83.9878 58.2935 85.1039C58.2935 86.22 59.2014 87.1248 60.3214 87.1248H73.5027C74.6227 87.1248 75.5306 86.22 75.5306 85.1039C75.5306 83.9878 74.6227 83.083 73.5027 83.083Z" fill="#383E47"/>
<path d="M112.033 16.3945H59.3078C55.9479 16.3945 53.2241 19.1089 53.2241 22.4572V44.6872C53.2241 48.0356 55.9479 50.7499 59.3078 50.7499H112.033C115.393 50.7499 118.117 48.0356 118.117 44.6872V22.4572C118.117 19.1089 115.393 16.3945 112.033 16.3945Z" fill="#26282D"/>
<path d="M112.033 16.6475H59.3077C56.0878 16.6475 53.4775 19.2487 53.4775 22.4576V44.6875C53.4775 47.8964 56.0878 50.4976 59.3077 50.4976H112.033C115.253 50.4976 117.863 47.8964 117.863 44.6875V22.4576C117.863 19.2487 115.253 16.6475 112.033 16.6475Z" stroke="#383E47" stroke-width="0.5"/>
<path d="M73.5032 41.6562H60.3218C59.2019 41.6562 58.2939 42.561 58.2939 43.6772C58.2939 44.7933 59.2019 45.6981 60.3218 45.6981H73.5032C74.6232 45.6981 75.5311 44.7933 75.5311 43.6772C75.5311 42.561 74.6232 41.6562 73.5032 41.6562Z" fill="#383E47"/>
<path d="M62.3497 23.4682C62.3497 22.3521 61.4418 21.4473 60.3218 21.4473C59.2019 21.4473 58.2939 22.3521 58.2939 23.4682C58.2939 24.5843 59.2019 25.4891 60.3218 25.4891C61.4418 25.4891 62.3497 24.5843 62.3497 23.4682Z" fill="#383E47"/>
<path d="M232.693 99.252H174.898C171.538 99.252 168.814 101.966 168.814 105.315V127.545C168.814 130.893 171.538 133.607 174.898 133.607H232.693C236.053 133.607 238.776 130.893 238.776 127.545V105.315C238.776 101.966 236.053 99.252 232.693 99.252Z" fill="#26282D"/>
<path d="M232.693 99.5049H174.898C171.678 99.5049 169.067 102.106 169.067 105.315V127.545C169.067 130.754 171.678 133.355 174.898 133.355H232.693C235.913 133.355 238.523 130.754 238.523 127.545V105.315C238.523 102.106 235.913 99.5049 232.693 99.5049Z" stroke="#383E47" stroke-width="0.5"/>
<path d="M191.121 124.514H175.912C174.792 124.514 173.884 125.418 173.884 126.535C173.884 127.651 174.792 128.555 175.912 128.555H191.121C192.241 128.555 193.149 127.651 193.149 126.535C193.149 125.418 192.241 124.514 191.121 124.514Z" fill="#383E47"/>
<path d="M132.312 57.8223H110.005C106.645 57.8223 103.921 60.5366 103.921 63.885V86.1149C103.921 89.4633 106.645 92.1777 110.005 92.1777H132.312C135.672 92.1777 138.396 89.4633 138.396 86.1149V63.885C138.396 60.5366 135.672 57.8223 132.312 57.8223Z" fill="#26282D"/>
<path d="M132.312 58.0752H110.005C106.785 58.0752 104.175 60.6765 104.175 63.8853V86.1153C104.175 89.3241 106.785 91.9254 110.005 91.9254H132.312C135.532 91.9254 138.142 89.3241 138.142 86.1153V63.8853C138.142 60.6765 135.532 58.0752 132.312 58.0752Z" stroke="#383E47" stroke-width="0.5"/>
<path d="M126.833 76.7503V73.2503C126.833 70.3337 125.667 69.167 122.75 69.167H119.25C116.333 69.167 115.167 70.3337 115.167 73.2503V76.7503C115.167 79.667 116.333 80.8337 119.25 80.8337H122.75C125.667 80.8337 126.833 79.667 126.833 76.7503Z" stroke="#6B9FFF" stroke-linecap="round" stroke-linejoin="round"/>
<path d="M115.47 72.1475H126.53" stroke="#6B9FFF" stroke-linecap="round" stroke-linejoin="round"/>
<path d="M118.97 69.2305V72.0655" stroke="#6B9FFF" stroke-linecap="round" stroke-linejoin="round"/>
<path d="M123.03 69.2305V71.803" stroke="#6B9FFF" stroke-linecap="round" stroke-linejoin="round"/>
<path d="M119.688 76.4291V75.7291C119.688 74.8307 120.323 74.4632 121.099 74.9124L121.706 75.2624L122.312 75.6124C123.088 76.0616 123.088 76.7966 122.312 77.2457L121.706 77.5957L121.099 77.9457C120.323 78.3949 119.688 78.0274 119.688 77.1291V76.4291V76.4291Z" stroke="#6B9FFF" stroke-miterlimit="10" stroke-linecap="round" stroke-linejoin="round"/>
<path d="M173.884 57.8223H151.577C148.217 57.8223 145.493 60.5366 145.493 63.885V86.1149C145.493 89.4633 148.217 92.1777 151.577 92.1777H173.884C177.244 92.1777 179.967 89.4633 179.967 86.1149V63.885C179.967 60.5366 177.244 57.8223 173.884 57.8223Z" fill="#26282D"/>
<path d="M173.884 58.0752H151.577C148.357 58.0752 145.747 60.6765 145.747 63.8853V86.1153C145.747 89.3241 148.357 91.9254 151.577 91.9254H173.884C177.104 91.9254 179.714 89.3241 179.714 86.1153V63.8853C179.714 60.6765 177.104 58.0752 173.884 58.0752Z" stroke="#383E47" stroke-width="0.5"/>
<path d="M160.887 71.2334L162.836 74.4629H162.905L164.862 71.2334H166.69L163.963 75.6427L166.732 80.0519H164.875L162.905 76.844H162.836L160.866 80.0519H159.016L161.812 75.6427L159.051 71.2334H160.887Z" fill="#6B9FFF"/>
<path d="M153.605 16.3945H131.298C127.938 16.3945 125.214 19.1089 125.214 22.4572V44.6872C125.214 48.0356 127.938 50.7499 131.298 50.7499H153.605C156.965 50.7499 159.689 48.0356 159.689 44.6872V22.4572C159.689 19.1089 156.965 16.3945 153.605 16.3945Z" fill="#26282D"/>
<path d="M153.605 16.6475H131.298C128.078 16.6475 125.468 19.2487 125.468 22.4576V44.6875C125.468 47.8964 128.078 50.4976 131.298 50.4976H153.605C156.825 50.4976 159.435 47.8964 159.435 44.6875V22.4576C159.435 19.2487 156.825 16.6475 153.605 16.6475Z" stroke="#383E47" stroke-width="0.5"/>
<path d="M147.833 33.417V36.917C147.833 39.2503 147.25 39.8337 144.917 39.8337H139.083C136.75 39.8337 136.167 39.2503 136.167 36.917V31.0837C136.167 28.7503 136.75 28.167 139.083 28.167H139.958C140.833 28.167 141.026 28.4237 141.358 28.867L142.233 30.0337C142.455 30.3253 142.583 30.5003 143.167 30.5003H144.917C147.25 30.5003 147.833 31.0837 147.833 33.417Z" stroke="#6B9FFF" stroke-width="1.5" stroke-miterlimit="10"/>
<path d="M195.177 16.3945H172.87C169.51 16.3945 166.786 19.1089 166.786 22.4572V44.6872C166.786 48.0356 169.51 50.7499 172.87 50.7499H195.177C198.537 50.7499 201.26 48.0356 201.26 44.6872V22.4572C201.26 19.1089 198.537 16.3945 195.177 16.3945Z" fill="#26282D"/>
<path d="M195.177 16.6475H172.87C169.65 16.6475 167.04 19.2487 167.04 22.4576V44.6875C167.04 47.8964 169.65 50.4976 172.87 50.4976H195.177C198.397 50.4976 201.007 47.8964 201.007 44.6875V22.4576C201.007 19.2487 198.397 16.6475 195.177 16.6475Z" stroke="#383E47" stroke-width="0.5"/>
<path d="M187.582 39.6119C187.068 39.7636 186.462 39.8336 185.75 39.8336H182.25C181.538 39.8336 180.932 39.7636 180.418 39.6119C180.547 38.0953 182.104 36.8994 184 36.8994C185.896 36.8994 187.453 38.0953 187.582 39.6119Z" stroke="#6B9FFF" stroke-linecap="round" stroke-linejoin="round"/>
<path d="M185.75 28.167H182.25C179.333 28.167 178.167 29.3337 178.167 32.2503V35.7503C178.167 37.9553 178.832 39.1628 180.418 39.612C180.547 38.0953 182.104 36.8995 184 36.8995C185.896 36.8995 187.453 38.0953 187.582 39.612C189.168 39.1628 189.833 37.9553 189.833 35.7503V32.2503C189.833 29.3337 188.667 28.167 185.75 28.167ZM184 35.2661C182.845 35.2661 181.912 34.327 181.912 33.172C181.912 32.017 182.845 31.0837 184 31.0837C185.155 31.0837 186.088 32.017 186.088 33.172C186.088 34.327 185.155 35.2661 184 35.2661Z" stroke="#6B9FFF" stroke-linecap="round" stroke-linejoin="round"/>
<path d="M186.088 33.1714C186.088 34.3264 185.155 35.2655 184 35.2655C182.845 35.2655 181.912 34.3264 181.912 33.1714C181.912 32.0164 182.845 31.083 184 31.083C185.155 31.083 186.088 32.0164 186.088 33.1714Z" stroke="#6B9FFF" stroke-linecap="round" stroke-linejoin="round"/>
</svg>
