<svg width="292" height="150" viewBox="0 0 292 150" fill="none" xmlns="http://www.w3.org/2000/svg">
<path d="M286.991 32H5.07471V120H286.991V32Z" stroke="#505967" stroke-width="0.5" stroke-linecap="round" stroke-dasharray="4 4"/>
<path d="M8.10589 27H3.05362C1.93751 27 1.03271 27.8954 1.03271 29V34C1.03271 35.1046 1.93751 36 3.05362 36H8.10589C9.222 36 10.1268 35.1046 10.1268 34V29C10.1268 27.8954 9.222 27 8.10589 27Z" fill="#26282D" stroke="#505967" stroke-width="0.5"/>
<path d="M289.012 27H283.959C282.843 27 281.938 27.8954 281.938 29V34C281.938 35.1046 282.843 36 283.959 36H289.012C290.128 36 291.033 35.1046 291.033 34V29C291.033 27.8954 290.128 27 289.012 27Z" fill="#26282D" stroke="#505967" stroke-width="0.5"/>
<path d="M8.10589 115H3.05362C1.93751 115 1.03271 115.895 1.03271 117V122C1.03271 123.105 1.93751 124 3.05362 124H8.10589C9.222 124 10.1268 123.105 10.1268 122V117C10.1268 115.895 9.222 115 8.10589 115Z" fill="#26282D" stroke="#505967" stroke-width="0.5"/>
<path d="M289.012 115H283.959C282.843 115 281.938 115.895 281.938 117V122C281.938 123.105 282.843 124 283.959 124H289.012C290.128 124 291.033 123.105 291.033 122V117C291.033 115.895 290.128 115 289.012 115Z" fill="#26282D" stroke="#505967" stroke-width="0.5"/>
<path d="M232.764 99H59.9763C56.6279 99 53.9136 101.686 53.9136 105V127C53.9136 130.314 56.6279 133 59.9763 133H232.764C236.112 133 238.826 130.314 238.826 127V105C238.826 101.686 236.112 99 232.764 99Z" fill="#26282D"/>
<path d="M232.764 99.25H59.9766C56.7678 99.25 54.1665 101.824 54.1665 105V127C54.1665 130.176 56.7678 132.75 59.9766 132.75H232.764C235.973 132.75 238.574 130.176 238.574 127V105C238.574 101.824 235.973 99.25 232.764 99.25Z" stroke="#505967" stroke-width="0.5"/>
<path d="M228.179 112.98L221.629 119.462" stroke="#6B9FFF" stroke-width="0.933332" stroke-linecap="round" stroke-linejoin="round"/>
<path d="M221.629 112.98L228.179 119.462" stroke="#6B9FFF" stroke-width="0.933332" stroke-linecap="round" stroke-linejoin="round"/>
<path d="M173.147 113H87.2589C85.5847 113 84.2275 114.343 84.2275 116C84.2275 117.657 85.5847 119 87.2589 119H173.147C174.822 119 176.179 117.657 176.179 116C176.179 114.343 174.822 113 173.147 113Z" fill="#505967"/>
<path fill-rule="evenodd" clip-rule="evenodd" d="M70.0827 122C73.4311 122 76.1455 119.314 76.1455 116C76.1455 112.686 73.4311 110 70.0827 110C66.7344 110 64.02 112.686 64.02 116C64.02 119.314 66.7344 122 70.0827 122ZM73.5194 114.444C73.7675 114.222 73.7863 113.842 73.5613 113.597C73.3364 113.351 72.953 113.333 72.705 113.556L68.668 117.178L67.4712 116.031C67.2307 115.8 66.847 115.806 66.614 116.044C66.381 116.282 66.3871 116.662 66.6276 116.893L68.2325 118.431C68.462 118.651 68.8247 118.657 69.0615 118.444L73.5194 114.444Z" fill="#6F7988"/>
<path d="M232.764 17H178.199C174.851 17 172.137 19.6863 172.137 23V45C172.137 48.3137 174.851 51 178.199 51H232.764C236.112 51 238.827 48.3137 238.827 45V23C238.827 19.6863 236.112 17 232.764 17Z" fill="#26282D"/>
<path d="M232.764 17.25H178.199C174.99 17.25 172.389 19.8244 172.389 23V45C172.389 48.1756 174.99 50.75 178.199 50.75H232.764C235.973 50.75 238.574 48.1756 238.574 45V23C238.574 19.8244 235.973 17.25 232.764 17.25Z" stroke="#505967" stroke-width="0.5"/>
<path d="M207.503 31H185.273C183.598 31 182.241 32.3431 182.241 34C182.241 35.6569 183.598 37 185.273 37H207.503C209.177 37 210.534 35.6569 210.534 34C210.534 32.3431 209.177 31 207.503 31Z" fill="#505967"/>
<path d="M159.001 17H59.9763C56.6279 17 53.9136 19.6863 53.9136 23V45C53.9136 48.3137 56.6279 51 59.9763 51H159.001C162.349 51 165.063 48.3137 165.063 45V23C165.063 19.6863 162.349 17 159.001 17Z" fill="#26282D"/>
<path d="M159.001 17.25H59.9766C56.7678 17.25 54.1665 19.8244 54.1665 23V45C54.1665 48.1756 56.7678 50.75 59.9766 50.75H159.001C162.21 50.75 164.811 48.1756 164.811 45V23C164.811 19.8244 162.21 17.25 159.001 17.25Z" stroke="#505967" stroke-width="0.5"/>
<path d="M66.0391 34.5374L70.8334 29.167V33.4633H73.9489L68.8125 38.8337V34.5374H66.0391Z" fill="#6F7988" stroke="#6F7988" stroke-width="1.2" stroke-linecap="round" stroke-linejoin="round"/>
<path d="M114.541 58H59.9763C56.6279 58 53.9136 60.6863 53.9136 64V86C53.9136 89.3137 56.6279 92 59.9763 92H114.541C117.889 92 120.603 89.3137 120.603 86V64C120.603 60.6863 117.889 58 114.541 58Z" fill="#26282D"/>
<path d="M114.541 58.25H59.9766C56.7678 58.25 54.1665 60.8244 54.1665 64V86C54.1665 89.1756 56.7678 91.75 59.9766 91.75H114.541C117.75 91.75 120.351 89.1756 120.351 86V64C120.351 60.8244 117.75 58.25 114.541 58.25Z" stroke="#505967" stroke-width="0.5"/>
<path d="M67.5559 74.5003L65.1982 72.3337L67.5559 70.167" stroke="#6B9FFF" stroke-width="1.2" stroke-linecap="round" stroke-linejoin="round"/>
<path d="M65.1982 72.333H72.2714" stroke="#6B9FFF" stroke-width="1.2" stroke-linecap="round" stroke-linejoin="round"/>
<path d="M72.6069 75.5L74.9646 77.6667L72.6069 79.8333" stroke="#6B9FFF" stroke-width="1.2" stroke-linecap="round" stroke-linejoin="round"/>
<path d="M74.9633 77.667H67.8901" stroke="#6B9FFF" stroke-width="1.2" stroke-linecap="round" stroke-linejoin="round"/>
<path d="M103.426 72H87.2589C85.5847 72 84.2275 73.3431 84.2275 75C84.2275 76.6569 85.5847 78 87.2589 78H103.426C105.1 78 106.458 76.6569 106.458 75C106.458 73.3431 105.1 72 103.426 72Z" fill="#505967"/>
<path d="M232.764 58H133.739C130.391 58 127.677 60.6863 127.677 64V86C127.677 89.3137 130.391 92 133.739 92H232.764C236.112 92 238.827 89.3137 238.827 86V64C238.827 60.6863 236.112 58 232.764 58Z" fill="#26282D"/>
<path d="M232.764 58.25H133.739C130.53 58.25 127.929 60.8244 127.929 64V86C127.929 89.1756 130.53 91.75 133.739 91.75H232.764C235.973 91.75 238.574 89.1756 238.574 86V64C238.574 60.8244 235.973 58.25 232.764 58.25Z" stroke="#505967" stroke-width="0.5"/>
<path d="M227.337 74.0186L224.904 76.426L222.471 74.0186" stroke="#6B9FFF" stroke-width="1.08333" stroke-linecap="round" stroke-linejoin="round"/>
<path d="M197.398 72H160.011C158.337 72 156.98 73.3431 156.98 75C156.98 76.6569 158.337 78 160.011 78H197.398C199.072 78 200.429 76.6569 200.429 75C200.429 73.3431 199.072 72 197.398 72Z" fill="#505967"/>
<path d="M145.021 72.3337C145.021 73.5303 144.041 74.5003 142.833 74.5003C141.623 74.5003 140.643 73.5303 140.643 72.3337C140.643 71.137 141.623 70.167 142.833 70.167C144.041 70.167 145.021 71.137 145.021 72.3337Z" fill="#6F7988" stroke="#6F7988" stroke-width="1.2" stroke-linecap="round" stroke-linejoin="round"/>
<path d="M139.362 79.833H146.303C147.073 79.833 147.665 79.1784 147.306 78.5053C146.777 77.515 145.572 76.333 142.833 76.333C140.092 76.333 138.887 77.515 138.358 78.5053C138 79.1784 138.592 79.833 139.362 79.833Z" fill="#6F7988" stroke="#6F7988" stroke-width="1.2" stroke-linecap="round" stroke-linejoin="round"/>
</svg>
