<svg width="292" height="116" viewBox="0 0 292 116" fill="none" xmlns="http://www.w3.org/2000/svg">
<path d="M286.991 15H5.07471V103H286.991V15Z" stroke="#505967" stroke-width="0.5" stroke-linecap="round" stroke-dasharray="4 4"/>
<path d="M8.10589 10H3.05362C1.93751 10 1.03271 10.8954 1.03271 12V17C1.03271 18.1046 1.93751 19 3.05362 19H8.10589C9.222 19 10.1268 18.1046 10.1268 17V12C10.1268 10.8954 9.222 10 8.10589 10Z" fill="#26282D" stroke="#505967" stroke-width="0.5"/>
<path d="M289.012 10H283.959C282.843 10 281.938 10.8954 281.938 12V17C281.938 18.1046 282.843 19 283.959 19H289.012C290.128 19 291.033 18.1046 291.033 17V12C291.033 10.8954 290.128 10 289.012 10Z" fill="#26282D" stroke="#505967" stroke-width="0.5"/>
<path d="M8.10589 98H3.05362C1.93751 98 1.03271 98.8954 1.03271 100V105C1.03271 106.105 1.93751 107 3.05362 107H8.10589C9.222 107 10.1268 106.105 10.1268 105V100C10.1268 98.8954 9.222 98 8.10589 98Z" fill="#26282D" stroke="#505967" stroke-width="0.5"/>
<path d="M289.012 98H283.959C282.843 98 281.938 98.8954 281.938 100V105C281.938 106.105 282.843 107 283.959 107H289.012C290.128 107 291.033 106.105 291.033 105V100C291.033 98.8954 290.128 98 289.012 98Z" fill="#26282D" stroke="#505967" stroke-width="0.5"/>
<path d="M232.426 0H59.6389C56.2905 0 53.5762 2.68629 53.5762 6V28C53.5762 31.3137 56.2905 34 59.6389 34H232.426C235.775 34 238.489 31.3137 238.489 28V6C238.489 2.68629 235.775 0 232.426 0Z" fill="#26282D"/>
<path d="M232.427 0.25H59.6392C56.4304 0.25 53.8291 2.82436 53.8291 6V28C53.8291 31.1756 56.4304 33.75 59.6392 33.75H232.427C235.635 33.75 238.237 31.1756 238.237 28V6C238.237 2.82436 235.635 0.25 232.427 0.25Z" stroke="#505967" stroke-width="0.5"/>
<path d="M115.214 14H86.921C85.2468 14 83.8896 15.3431 83.8896 17C83.8896 18.6569 85.2468 20 86.921 20H115.214C116.888 20 118.245 18.6569 118.245 17C118.245 15.3431 116.888 14 115.214 14Z" fill="#505967"/>
<path d="M221.564 12.0625C221.564 14.1336 220.436 16 218.343 16C220.436 16 221.564 17.8664 221.564 19.9375C221.564 17.8664 222.692 16 224.784 16C222.692 16 221.564 14.1336 221.564 12.0625Z" fill="#505967"/>
<path d="M216.259 18.0625C216.259 19.3051 215.052 20.5 213.796 20.5C215.052 20.5 216.259 21.6949 216.259 22.9375C216.259 21.6949 217.467 20.5 218.722 20.5C217.467 20.5 216.259 19.3051 216.259 18.0625Z" fill="#505967"/>
<path d="M221.564 12.0625C221.564 14.1336 220.436 16 218.343 16C220.436 16 221.564 17.8664 221.564 19.9375C221.564 17.8664 222.692 16 224.784 16C222.692 16 221.564 14.1336 221.564 12.0625Z" stroke="#505967" stroke-width="1.35" stroke-linecap="round" stroke-linejoin="round"/>
<path d="M216.259 18.0625C216.259 19.3051 215.052 20.5 213.796 20.5C215.052 20.5 216.259 21.6949 216.259 22.9375C216.259 21.6949 217.467 20.5 218.722 20.5C217.467 20.5 216.259 19.3051 216.259 18.0625Z" stroke="#505967" stroke-width="1.35" stroke-linecap="round" stroke-linejoin="round"/>
<path d="M232.426 82H59.6389C56.2905 82 53.5762 84.6863 53.5762 88V110C53.5762 113.314 56.2905 116 59.6389 116H232.426C235.775 116 238.489 113.314 238.489 110V88C238.489 84.6863 235.775 82 232.426 82Z" fill="#26282D"/>
<path d="M232.427 82.25H59.6392C56.4304 82.25 53.8291 84.8244 53.8291 88V110C53.8291 113.176 56.4304 115.75 59.6392 115.75H232.427C235.635 115.75 238.237 113.176 238.237 110V88C238.237 84.8244 235.635 82.25 232.427 82.25Z" stroke="#505967" stroke-width="0.5"/>
<path d="M125.318 96H86.921C85.2468 96 83.8896 97.3431 83.8896 99C83.8896 100.657 85.2468 102 86.921 102H125.318C126.992 102 128.35 100.657 128.35 99C128.35 97.3431 126.992 96 125.318 96Z" fill="#505967"/>
<path d="M221.564 94.0615C221.564 96.1335 220.436 97.9995 218.343 97.9995C220.436 97.9995 221.564 99.8655 221.564 101.937C221.564 99.8655 222.692 97.9995 224.784 97.9995C222.692 97.9995 221.564 96.1335 221.564 94.0615Z" fill="#505967"/>
<path d="M216.259 100.062C216.259 101.305 215.052 102.5 213.796 102.5C215.052 102.5 216.259 103.695 216.259 104.937C216.259 103.695 217.467 102.5 218.722 102.5C217.467 102.5 216.259 101.305 216.259 100.062Z" fill="#505967"/>
<path d="M221.564 94.0615C221.564 96.1335 220.436 97.9995 218.343 97.9995C220.436 97.9995 221.564 99.8655 221.564 101.937C221.564 99.8655 222.692 97.9995 224.784 97.9995C222.692 97.9995 221.564 96.1335 221.564 94.0615Z" stroke="#505967" stroke-width="1.35" stroke-linecap="round" stroke-linejoin="round"/>
<path d="M216.259 100.062C216.259 101.305 215.052 102.5 213.796 102.5C215.052 102.5 216.259 103.695 216.259 104.937C216.259 103.695 217.467 102.5 218.722 102.5C217.467 102.5 216.259 101.305 216.259 100.062Z" stroke="#505967" stroke-width="1.35" stroke-linecap="round" stroke-linejoin="round"/>
<path d="M232.426 41H59.6389C56.2905 41 53.5762 43.6863 53.5762 47V69C53.5762 72.3137 56.2905 75 59.6389 75H232.426C235.775 75 238.489 72.3137 238.489 69V47C238.489 43.6863 235.775 41 232.426 41Z" fill="#26282D"/>
<path d="M232.427 41.25H59.6392C56.4304 41.25 53.8291 43.8244 53.8291 47V69C53.8291 72.1756 56.4304 74.75 59.6392 74.75H232.427C235.635 74.75 238.237 72.1756 238.237 69V47C238.237 43.8244 235.635 41.25 232.427 41.25Z" stroke="#505967" stroke-width="0.5"/>
<path d="M137.444 55H86.921C85.2468 55 83.8896 56.3431 83.8896 58C83.8896 59.6569 85.2468 61 86.921 61H137.444C139.118 61 140.475 59.6569 140.475 58C140.475 56.3431 139.118 55 137.444 55Z" fill="#505967"/>
<path d="M221.564 53.0625C221.564 55.1336 220.436 57 218.343 57C220.436 57 221.564 58.8664 221.564 60.9375C221.564 58.8664 222.692 57 224.784 57C222.692 57 221.564 55.1336 221.564 53.0625Z" fill="#9098A0"/>
<path d="M216.259 59.0625C216.259 60.3051 215.052 61.5 213.796 61.5C215.052 61.5 216.259 62.6949 216.259 63.9375C216.259 62.6949 217.467 61.5 218.722 61.5C217.467 61.5 216.259 60.3051 216.259 59.0625Z" fill="#9098A0"/>
<path d="M221.564 53.0625C221.564 55.1336 220.436 57 218.343 57C220.436 57 221.564 58.8664 221.564 60.9375C221.564 58.8664 222.692 57 224.784 57C222.692 57 221.564 55.1336 221.564 53.0625Z" stroke="#9098A0" stroke-width="1.35" stroke-linecap="round" stroke-linejoin="round"/>
<path d="M216.259 59.0625C216.259 60.3051 215.052 61.5 213.796 61.5C215.052 61.5 216.259 62.6949 216.259 63.9375C216.259 62.6949 217.467 61.5 218.722 61.5C217.467 61.5 216.259 60.3051 216.259 59.0625Z" stroke="#9098A0" stroke-width="1.35" stroke-linecap="round" stroke-linejoin="round"/>
<path d="M68.2498 22.8337H71.7498C74.6665 22.8337 75.8332 21.667 75.8332 18.7503V15.2503C75.8332 12.3337 74.6665 11.167 71.7498 11.167H68.2498C65.3332 11.167 64.1665 12.3337 64.1665 15.2503V18.7503C64.1665 21.667 65.3332 22.8337 68.2498 22.8337Z" stroke="#6B9FFF" stroke-width="1.5" stroke-linecap="round" stroke-linejoin="round"/>
<path d="M73.0038 18.0615L71.2305 19.8349" stroke="#6B9FFF" stroke-width="1.5" stroke-miterlimit="10" stroke-linecap="round" stroke-linejoin="round"/>
<path d="M66.9956 18.0615H73.0039" stroke="#6B9FFF" stroke-width="1.5" stroke-miterlimit="10" stroke-linecap="round" stroke-linejoin="round"/>
<path d="M66.9956 15.9384L68.7689 14.165" stroke="#6B9FFF" stroke-width="1.5" stroke-miterlimit="10" stroke-linecap="round" stroke-linejoin="round"/>
<path d="M73.0039 15.9385H66.9956" stroke="#6B9FFF" stroke-width="1.5" stroke-miterlimit="10" stroke-linecap="round" stroke-linejoin="round"/>
<path d="M68.2498 104.834H71.7498C74.6665 104.834 75.8332 103.667 75.8332 100.75V97.2503C75.8332 94.3337 74.6665 93.167 71.7498 93.167H68.2498C65.3332 93.167 64.1665 94.3337 64.1665 97.2503V100.75C64.1665 103.667 65.3332 104.834 68.2498 104.834Z" stroke="#6B9FFF" stroke-width="1.5" stroke-linecap="round" stroke-linejoin="round"/>
<path d="M73.0038 100.062L71.2305 101.835" stroke="#6B9FFF" stroke-width="1.5" stroke-miterlimit="10" stroke-linecap="round" stroke-linejoin="round"/>
<path d="M66.9956 100.062H73.0039" stroke="#6B9FFF" stroke-width="1.5" stroke-miterlimit="10" stroke-linecap="round" stroke-linejoin="round"/>
<path d="M66.9956 97.9384L68.7689 96.165" stroke="#6B9FFF" stroke-width="1.5" stroke-miterlimit="10" stroke-linecap="round" stroke-linejoin="round"/>
<path d="M73.0039 97.9385H66.9956" stroke="#6B9FFF" stroke-width="1.5" stroke-miterlimit="10" stroke-linecap="round" stroke-linejoin="round"/>
<path d="M68.2498 63.8337H71.7498C74.6665 63.8337 75.8332 62.667 75.8332 59.7503V56.2503C75.8332 53.3337 74.6665 52.167 71.7498 52.167H68.2498C65.3332 52.167 64.1665 53.3337 64.1665 56.2503V59.7503C64.1665 62.667 65.3332 63.8337 68.2498 63.8337Z" stroke="#6B9FFF" stroke-width="1.5" stroke-linecap="round" stroke-linejoin="round"/>
<path d="M68.9384 61.0048L67.165 59.2314" stroke="#6B9FFF" stroke-width="1.5" stroke-miterlimit="10" stroke-linecap="round" stroke-linejoin="round"/>
<path d="M68.9385 54.9961V61.0044" stroke="#6B9FFF" stroke-width="1.5" stroke-miterlimit="10" stroke-linecap="round" stroke-linejoin="round"/>
<path d="M71.0615 54.9961L72.8349 56.7694" stroke="#6B9FFF" stroke-width="1.5" stroke-miterlimit="10" stroke-linecap="round" stroke-linejoin="round"/>
<path d="M71.0615 61.0044V54.9961" stroke="#6B9FFF" stroke-width="1.5" stroke-miterlimit="10" stroke-linecap="round" stroke-linejoin="round"/>
</svg>
