<svg width="292" height="150" viewBox="0 0 292 150" fill="none" xmlns="http://www.w3.org/2000/svg">
<path d="M286.958 31.5H5.04199V119.5H286.958V31.5Z" stroke="#505967" stroke-width="0.5" stroke-linecap="round" stroke-dasharray="4 4"/>
<path d="M8.07317 26.5H3.02091C1.90479 26.5 1 27.3954 1 28.5V33.5C1 34.6046 1.90479 35.5 3.02091 35.5H8.07317C9.18929 35.5 10.0941 34.6046 10.0941 33.5V28.5C10.0941 27.3954 9.18929 26.5 8.07317 26.5Z" fill="#26282D" stroke="#505967" stroke-width="0.5"/>
<path d="M288.979 26.5H283.927C282.811 26.5 281.906 27.3954 281.906 28.5V33.5C281.906 34.6046 282.811 35.5 283.927 35.5H288.979C290.095 35.5 291 34.6046 291 33.5V28.5C291 27.3954 290.095 26.5 288.979 26.5Z" fill="#26282D" stroke="#505967" stroke-width="0.5"/>
<path d="M8.07317 114.5H3.02091C1.90479 114.5 1 115.395 1 116.5V121.5C1 122.605 1.90479 123.5 3.02091 123.5H8.07317C9.18929 123.5 10.0941 122.605 10.0941 121.5V116.5C10.0941 115.395 9.18929 114.5 8.07317 114.5Z" fill="#26282D" stroke="#505967" stroke-width="0.5"/>
<path d="M288.979 114.5H283.927C282.811 114.5 281.906 115.395 281.906 116.5V121.5C281.906 122.605 282.811 123.5 283.927 123.5H288.979C290.095 123.5 291 122.605 291 121.5V116.5C291 115.395 290.095 114.5 288.979 114.5Z" fill="#26282D" stroke="#505967" stroke-width="0.5"/>
<path d="M233.066 16.5H60.279C56.9307 16.5 54.2163 19.1863 54.2163 22.5V44.5C54.2163 47.8137 56.9307 50.5 60.279 50.5H233.066C236.415 50.5 239.129 47.8137 239.129 44.5V22.5C239.129 19.1863 236.415 16.5 233.066 16.5Z" fill="#26282D"/>
<path d="M233.067 16.75H60.2793C57.0705 16.75 54.4692 19.3244 54.4692 22.5V44.5C54.4692 47.6756 57.0705 50.25 60.2793 50.25H233.067C236.276 50.25 238.877 47.6756 238.877 44.5V22.5C238.877 19.3244 236.276 16.75 233.067 16.75Z" stroke="#505967" stroke-width="0.5"/>
<path d="M65.3317 36.5C67.0058 36.5 68.363 35.1569 68.363 33.5C68.363 31.8431 67.0058 30.5 65.3317 30.5C63.6575 30.5 62.3003 31.8431 62.3003 33.5C62.3003 35.1569 63.6575 36.5 65.3317 36.5Z" fill="#505967"/>
<path d="M75.4361 36.5C77.1103 36.5 78.4675 35.1569 78.4675 33.5C78.4675 31.8431 77.1103 30.5 75.4361 30.5C73.762 30.5 72.4048 31.8431 72.4048 33.5C72.4048 35.1569 73.762 36.5 75.4361 36.5Z" fill="#505967"/>
<path d="M85.5406 36.5C87.2148 36.5 88.572 35.1569 88.572 33.5C88.572 31.8431 87.2148 30.5 85.5406 30.5C83.8665 30.5 82.5093 31.8431 82.5093 33.5C82.5093 35.1569 83.8665 36.5 85.5406 36.5Z" fill="#505967"/>
<path d="M223.972 41C228.158 41 231.551 37.6421 231.551 33.5C231.551 29.3579 228.158 26 223.972 26C219.787 26 216.394 29.3579 216.394 33.5C216.394 37.6421 219.787 41 223.972 41Z" fill="#505967" stroke="#26282D"/>
<path d="M214.879 41C219.064 41 222.457 37.6421 222.457 33.5C222.457 29.3579 219.064 26 214.879 26C210.693 26 207.3 29.3579 207.3 33.5C207.3 37.6421 210.693 41 214.879 41Z" fill="#6F7988" stroke="#26282D"/>
<path d="M205.784 41C209.97 41 213.363 37.6421 213.363 33.5C213.363 29.3579 209.97 26 205.784 26C201.599 26 198.206 29.3579 198.206 33.5C198.206 37.6421 201.599 41 205.784 41Z" fill="#505967" stroke="#26282D"/>
<path d="M93.9619 57.5H60.6169C57.2686 57.5 54.5542 60.1863 54.5542 63.5V127.5C54.5542 130.814 57.2686 133.5 60.6169 133.5H93.9619C97.3102 133.5 100.025 130.814 100.025 127.5V63.5C100.025 60.1863 97.3102 57.5 93.9619 57.5Z" fill="#26282D"/>
<path d="M93.9617 57.75H60.6167C57.4079 57.75 54.8066 60.3244 54.8066 63.5V127.5C54.8066 130.676 57.4079 133.25 60.6167 133.25H93.9617C97.1705 133.25 99.7718 130.676 99.7718 127.5V63.5C99.7718 60.3244 97.1705 57.75 93.9617 57.75Z" stroke="#505967" stroke-width="0.5"/>
<path d="M233.404 57.5H115.181C111.833 57.5 109.119 60.1863 109.119 63.5V127.5C109.119 130.814 111.833 133.5 115.181 133.5H233.404C236.753 133.5 239.467 130.814 239.467 127.5V63.5C239.467 60.1863 236.753 57.5 233.404 57.5Z" fill="#26282D"/>
<path d="M233.404 57.75H115.181C111.972 57.75 109.371 60.3244 109.371 63.5V127.5C109.371 130.676 111.972 133.25 115.181 133.25H233.404C236.613 133.25 239.214 130.676 239.214 127.5V63.5C239.214 60.3244 236.613 57.75 233.404 57.75Z" stroke="#505967" stroke-width="0.5"/>
<path d="M210.837 115.5H144.147C142.473 115.5 141.116 116.843 141.116 118.5C141.116 120.157 142.473 121.5 144.147 121.5H210.837C212.511 121.5 213.868 120.157 213.868 118.5C213.868 116.843 212.511 115.5 210.837 115.5Z" fill="#505967"/>
<path d="M119.896 119.037L124.691 113.667V117.963H127.806L122.67 123.334V119.037H119.896Z" fill="#6B9FFF" stroke="#6B9FFF" stroke-width="1.2" stroke-linecap="round" stroke-linejoin="round"/>
<path d="M167.388 92.5H144.147C142.473 92.5 141.116 93.8431 141.116 95.5C141.116 97.1569 142.473 98.5 144.147 98.5H167.388C169.062 98.5 170.419 97.1569 170.419 95.5C170.419 93.8431 169.062 92.5 167.388 92.5Z" fill="#505967"/>
<path d="M119.055 100.333L121.918 99.6666L128.179 93.4713C128.441 93.211 128.441 92.7888 128.179 92.5285L126.942 91.3046C126.678 91.0443 126.252 91.0443 125.989 91.3046L119.729 97.4999L119.055 100.333Z" fill="#9098A0" stroke="#9098A0" stroke-width="1.2" stroke-linecap="round" stroke-linejoin="round"/>
<path d="M128.823 100.333H125.118" stroke="#9098A0" stroke-width="1.2" stroke-linecap="round" stroke-linejoin="round"/>
<path d="M183.555 69.5H144.147C142.473 69.5 141.116 70.8431 141.116 72.5C141.116 74.1569 142.473 75.5 144.147 75.5H183.555C185.229 75.5 186.586 74.1569 186.586 72.5C186.586 70.8431 185.229 69.5 183.555 69.5Z" fill="#505967"/>
<path d="M126.126 69.8337C126.126 71.0303 125.146 72.0003 123.937 72.0003C122.728 72.0003 121.748 71.0303 121.748 69.8337C121.748 68.637 122.728 67.667 123.937 67.667C125.146 67.667 126.126 68.637 126.126 69.8337Z" fill="#6B9FFF" stroke="#6B9FFF" stroke-width="1.2" stroke-linecap="round" stroke-linejoin="round"/>
<path d="M120.466 77.333H127.408C128.177 77.333 128.769 76.6784 128.41 76.0053C127.882 75.015 126.677 73.833 123.937 73.833C121.197 73.833 119.991 75.015 119.463 76.0053C119.104 76.6784 119.696 77.333 120.466 77.333Z" fill="#6B9FFF" stroke="#6B9FFF" stroke-width="1.2" stroke-linecap="round" stroke-linejoin="round"/>
</svg>
