<svg width="292" height="116" viewBox="0 0 292 116" fill="none" xmlns="http://www.w3.org/2000/svg">
<path d="M286.958 15H5.04199V103H286.958V15Z" stroke="#505967" stroke-width="0.5" stroke-linecap="round" stroke-dasharray="4 4"/>
<path d="M8.07317 10H3.02091C1.90479 10 1 10.8954 1 12V17C1 18.1046 1.90479 19 3.02091 19H8.07317C9.18929 19 10.0941 18.1046 10.0941 17V12C10.0941 10.8954 9.18929 10 8.07317 10Z" fill="#26282D" stroke="#505967" stroke-width="0.5"/>
<path d="M288.979 10H283.927C282.811 10 281.906 10.8954 281.906 12V17C281.906 18.1046 282.811 19 283.927 19H288.979C290.095 19 291 18.1046 291 17V12C291 10.8954 290.095 10 288.979 10Z" fill="#26282D" stroke="#505967" stroke-width="0.5"/>
<path d="M8.07317 98H3.02091C1.90479 98 1 98.8954 1 100V105C1 106.105 1.90479 107 3.02091 107H8.07317C9.18929 107 10.0941 106.105 10.0941 105V100C10.0941 98.8954 9.18929 98 8.07317 98Z" fill="#26282D" stroke="#505967" stroke-width="0.5"/>
<path d="M288.979 98H283.927C282.811 98 281.906 98.8954 281.906 100V105C281.906 106.105 282.811 107 283.927 107H288.979C290.095 107 291 106.105 291 105V100C291 98.8954 290.095 98 288.979 98Z" fill="#26282D" stroke="#505967" stroke-width="0.5"/>
<path d="M233.066 0H60.279C56.9307 0 54.2163 2.68629 54.2163 6V28C54.2163 31.3137 56.9307 34 60.279 34H233.066C236.415 34 239.129 31.3137 239.129 28V6C239.129 2.68629 236.415 0 233.066 0Z" fill="#26282D"/>
<path d="M233.067 0.25H60.2793C57.0705 0.25 54.4692 2.82436 54.4692 6V28C54.4692 31.1756 57.0705 33.75 60.2793 33.75H233.067C236.276 33.75 238.877 31.1756 238.877 28V6C238.877 2.82436 236.276 0.25 233.067 0.25Z" stroke="#505967" stroke-width="0.5"/>
<path d="M125.959 14H87.5616C85.8875 14 84.5303 15.3431 84.5303 17C84.5303 18.6569 85.8875 20 87.5616 20H125.959C127.633 20 128.99 18.6569 128.99 17C128.99 15.3431 127.633 14 125.959 14Z" fill="#505967"/>
<path d="M202.753 14H181.534C179.86 14 178.502 15.3431 178.502 17C178.502 18.6569 179.86 20 181.534 20H202.753C204.427 20 205.785 18.6569 205.785 17C205.785 15.3431 204.427 14 202.753 14Z" fill="#505967"/>
<path d="M164.356 14.834L160.819 19.1673H167.893L164.356 14.834Z" fill="#6F7988" stroke="#6F7988" stroke-width="1.2" stroke-linecap="round" stroke-linejoin="round"/>
<path d="M147.178 4V30" stroke="#505967" stroke-width="0.5"/>
<path d="M233.066 82H60.279C56.9307 82 54.2163 84.6863 54.2163 88V110C54.2163 113.314 56.9307 116 60.279 116H233.066C236.415 116 239.129 113.314 239.129 110V88C239.129 84.6863 236.415 82 233.066 82Z" fill="#26282D"/>
<path d="M233.067 82.25H60.2793C57.0705 82.25 54.4692 84.8244 54.4692 88V110C54.4692 113.176 57.0705 115.75 60.2793 115.75H233.067C236.276 115.75 238.877 113.176 238.877 110V88C238.877 84.8244 236.276 82.25 233.067 82.25Z" stroke="#505967" stroke-width="0.5"/>
<path d="M120.907 96H87.5616C85.8875 96 84.5303 97.3431 84.5303 99C84.5303 100.657 85.8875 102 87.5616 102H120.907C122.581 102 123.938 100.657 123.938 99C123.938 97.3431 122.581 96 120.907 96Z" fill="#505967"/>
<path d="M212.858 96H181.534C179.86 96 178.502 97.3431 178.502 99C178.502 100.657 179.86 102 181.534 102H212.858C214.532 102 215.889 100.657 215.889 99C215.889 97.3431 214.532 96 212.858 96Z" fill="#505967"/>
<path d="M164.356 96.834L160.819 101.167H167.893L164.356 96.834Z" fill="#6F7988" stroke="#6F7988" stroke-width="1.2" stroke-linecap="round" stroke-linejoin="round"/>
<path d="M147.178 86V112" stroke="#505967" stroke-width="0.5"/>
<path d="M233.066 41H60.279C56.9307 41 54.2163 43.6863 54.2163 47V69C54.2163 72.3137 56.9307 75 60.279 75H233.066C236.415 75 239.129 72.3137 239.129 69V47C239.129 43.6863 236.415 41 233.066 41Z" fill="#26282D"/>
<path d="M233.067 41.25H60.2793C57.0705 41.25 54.4692 43.8244 54.4692 47V69C54.4692 72.1756 57.0705 74.75 60.2793 74.75H233.067C236.276 74.75 238.877 72.1756 238.877 69V47C238.877 43.8244 236.276 41.25 233.067 41.25Z" stroke="#505967" stroke-width="0.5"/>
<path d="M106.76 55H87.5616C85.8875 55 84.5303 56.3431 84.5303 58C84.5303 59.6569 85.8875 61 87.5616 61H106.76C108.434 61 109.792 59.6569 109.792 58C109.792 56.3431 108.434 55 106.76 55Z" fill="#505967"/>
<path d="M218.921 55H181.534C179.86 55 178.502 56.3431 178.502 58C178.502 59.6569 179.86 61 181.534 61H218.921C220.595 61 221.952 59.6569 221.952 58C221.952 56.3431 220.595 55 218.921 55Z" fill="#505967"/>
<path d="M164.356 60.1663L167.893 55.833H160.819L164.356 60.1663Z" fill="#6B9FFF" stroke="#6B9FFF" stroke-width="1.2" stroke-linecap="round" stroke-linejoin="round"/>
<path d="M147.178 45V71" stroke="#505967" stroke-width="0.5"/>
<path d="M75.8157 20.6928C75.8157 20.9028 75.769 21.1187 75.6698 21.3287C75.5707 21.5387 75.4423 21.737 75.2732 21.9237C74.9873 22.2387 74.6723 22.4662 74.3165 22.612C73.9665 22.7578 73.5873 22.8337 73.179 22.8337C72.584 22.8337 71.9482 22.6937 71.2773 22.4078C70.6065 22.122 69.9357 21.737 69.2707 21.2528C68.5998 20.7628 67.964 20.2203 67.3573 19.6195C66.7565 19.0128 66.214 18.377 65.7298 17.712C65.2515 17.047 64.8665 16.382 64.5865 15.7228C64.3065 15.0578 64.1665 14.422 64.1665 13.8153C64.1665 13.4187 64.2365 13.0395 64.3765 12.6895C64.5165 12.3337 64.7382 12.007 65.0473 11.7153C65.4207 11.3478 65.829 11.167 66.2607 11.167C66.424 11.167 66.5873 11.202 66.7332 11.272C66.8848 11.342 67.019 11.447 67.124 11.5987L68.4773 13.5062C68.5823 13.652 68.6582 13.7862 68.7107 13.9145C68.7632 14.037 68.7923 14.1595 68.7923 14.2703C68.7923 14.4103 68.7515 14.5503 68.6698 14.6845C68.594 14.8187 68.4832 14.9587 68.3432 15.0987L67.8998 15.5595C67.8357 15.6237 67.8065 15.6995 67.8065 15.7928C67.8065 15.8395 67.8123 15.8803 67.824 15.927C67.8415 15.9737 67.859 16.0087 67.8707 16.0437C67.9757 16.2362 68.1565 16.487 68.4132 16.7903C68.6757 17.0937 68.9557 17.4028 69.259 17.712C69.574 18.0212 69.8773 18.307 70.1865 18.5695C70.4898 18.8262 70.7407 19.0012 70.939 19.1062C70.9682 19.1178 71.0032 19.1353 71.044 19.1528C71.0907 19.1703 71.1373 19.1762 71.1898 19.1762C71.289 19.1762 71.3648 19.1412 71.429 19.077L71.8723 18.6395C72.0182 18.4937 72.1582 18.3828 72.2923 18.3128C72.4265 18.2312 72.5607 18.1903 72.7065 18.1903C72.8173 18.1903 72.934 18.2137 73.0623 18.2662C73.1907 18.3187 73.3248 18.3945 73.4707 18.4937L75.4015 19.8645C75.5532 19.9695 75.6582 20.092 75.7223 20.2378C75.7807 20.3837 75.8157 20.5295 75.8157 20.6928Z" stroke="#6B9FFF" stroke-width="1.5" stroke-miterlimit="10"/>
<path d="M72.4497 14.55H75.2497M72.4497 14.55V11.75V14.55Z" stroke="#6B9FFF" stroke-width="1.5" stroke-linecap="round" stroke-linejoin="round"/>
<path d="M75.8157 61.6928C75.8157 61.9028 75.769 62.1187 75.6698 62.3287C75.5707 62.5387 75.4423 62.737 75.2732 62.9237C74.9873 63.2387 74.6723 63.4662 74.3165 63.612C73.9665 63.7578 73.5873 63.8337 73.179 63.8337C72.584 63.8337 71.9482 63.6937 71.2773 63.4078C70.6065 63.122 69.9357 62.737 69.2707 62.2528C68.5998 61.7628 67.964 61.2203 67.3573 60.6195C66.7565 60.0128 66.214 59.377 65.7298 58.712C65.2515 58.047 64.8665 57.382 64.5865 56.7228C64.3065 56.0578 64.1665 55.422 64.1665 54.8153C64.1665 54.4187 64.2365 54.0395 64.3765 53.6895C64.5165 53.3337 64.7382 53.007 65.0473 52.7153C65.4207 52.3478 65.829 52.167 66.2607 52.167C66.424 52.167 66.5873 52.202 66.7332 52.272C66.8848 52.342 67.019 52.447 67.124 52.5987L68.4773 54.5062C68.5823 54.652 68.6582 54.7862 68.7107 54.9145C68.7632 55.037 68.7923 55.1595 68.7923 55.2703C68.7923 55.4103 68.7515 55.5503 68.6698 55.6845C68.594 55.8187 68.4832 55.9587 68.3432 56.0987L67.8998 56.5595C67.8357 56.6237 67.8065 56.6995 67.8065 56.7928C67.8065 56.8395 67.8123 56.8803 67.824 56.927C67.8415 56.9737 67.859 57.0087 67.8707 57.0437C67.9757 57.2362 68.1565 57.487 68.4132 57.7903C68.6757 58.0937 68.9557 58.4028 69.259 58.712C69.574 59.0212 69.8773 59.307 70.1865 59.5695C70.4898 59.8262 70.7407 60.0012 70.939 60.1062C70.9682 60.1178 71.0032 60.1353 71.044 60.1528C71.0907 60.1703 71.1373 60.1762 71.1898 60.1762C71.289 60.1762 71.3648 60.1412 71.429 60.077L71.8723 59.6395C72.0182 59.4937 72.1582 59.3828 72.2923 59.3128C72.4265 59.2312 72.5607 59.1903 72.7065 59.1903C72.8173 59.1903 72.934 59.2137 73.0623 59.2662C73.1907 59.3187 73.3248 59.3945 73.4707 59.4937L75.4015 60.8645C75.5532 60.9695 75.6582 61.092 75.7223 61.2378C75.7807 61.3837 75.8157 61.5295 75.8157 61.6928Z" stroke="#6B9FFF" stroke-width="1.5" stroke-miterlimit="10"/>
<path d="M74.6667 53.334H71.8667M74.6667 53.334V56.134V53.334Z" stroke="#6B9FFF" stroke-width="1.5" stroke-linecap="round" stroke-linejoin="round"/>
<path d="M76.8157 102.693C76.8157 102.903 76.769 103.119 76.6698 103.329C76.5707 103.539 76.4423 103.737 76.2732 103.924C75.9873 104.239 75.6723 104.466 75.3165 104.612C74.9665 104.758 74.5873 104.834 74.179 104.834C73.584 104.834 72.9482 104.694 72.2773 104.408C71.6065 104.122 70.9357 103.737 70.2707 103.253C69.5998 102.763 68.964 102.22 68.3573 101.619C67.7565 101.013 67.214 100.377 66.7298 99.712C66.2515 99.047 65.8665 98.382 65.5865 97.7228C65.3065 97.0578 65.1665 96.422 65.1665 95.8153C65.1665 95.4187 65.2365 95.0395 65.3765 94.6895C65.5165 94.3337 65.7382 94.007 66.0473 93.7153C66.4207 93.3478 66.829 93.167 67.2607 93.167C67.424 93.167 67.5873 93.202 67.7332 93.272C67.8848 93.342 68.019 93.447 68.124 93.5987L69.4773 95.5062C69.5823 95.652 69.6582 95.7862 69.7107 95.9145C69.7632 96.037 69.7923 96.1595 69.7923 96.2703C69.7923 96.4103 69.7515 96.5503 69.6698 96.6845C69.594 96.8187 69.4832 96.9587 69.3432 97.0987L68.8998 97.5595C68.8357 97.6237 68.8065 97.6995 68.8065 97.7928C68.8065 97.8395 68.8123 97.8803 68.824 97.927C68.8415 97.9737 68.859 98.0087 68.8707 98.0437C68.9757 98.2362 69.1565 98.487 69.4132 98.7903C69.6757 99.0937 69.9557 99.4028 70.259 99.712C70.574 100.021 70.8773 100.307 71.1865 100.569C71.4898 100.826 71.7407 101.001 71.939 101.106C71.9682 101.118 72.0032 101.135 72.044 101.153C72.0907 101.17 72.1373 101.176 72.1898 101.176C72.289 101.176 72.3648 101.141 72.429 101.077L72.8723 100.639C73.0182 100.494 73.1582 100.383 73.2923 100.313C73.4265 100.231 73.5607 100.19 73.7065 100.19C73.8173 100.19 73.934 100.214 74.0623 100.266C74.1907 100.319 74.3248 100.394 74.4707 100.494L76.4015 101.864C76.5532 101.969 76.6582 102.092 76.7223 102.238C76.7807 102.384 76.8157 102.529 76.8157 102.693Z" stroke="#6B9FFF" stroke-width="1.5" stroke-miterlimit="10"/>
<path d="M73.4673 96.5328L75.5323 94.4678" stroke="#6B9FFF" stroke-width="1.5" stroke-linecap="round" stroke-linejoin="round"/>
<path d="M75.5323 96.5328L73.4673 94.4678" stroke="#6B9FFF" stroke-width="1.5" stroke-linecap="round" stroke-linejoin="round"/>
</svg>
